<?xml version="1.0" standalone="no"?>
<!DOCTYPE svg PUBLIC "-//W3C//DTD SVG 20010904//EN"
 "http://www.w3.org/TR/2001/REC-SVG-20010904/DTD/svg10.dtd">
<svg version="1.0" xmlns="http://www.w3.org/2000/svg"
 width="542.000000pt" height="542.000000pt" viewBox="0 0 542.000000 542.000000"
 preserveAspectRatio="xMidYMid meet">
<metadata>
Created by potrace 1.11, written by Peter Selinger 2001-2013
</metadata>
<g transform="translate(0.000000,542.000000) scale(0.100000,-0.100000)"
fill="#000000" stroke="none">
<path d="M2112 5393 c-5 -16 -119 -327 -252 -693 -216 -594 -288 -792 -363
-995 -12 -33 -22 -62 -23 -65 0 -3 -4 -12 -7 -20 -4 -8 -43 -116 -88 -240
-183 -507 -351 -968 -369 -1014 -11 -27 -18 -51 -16 -53 3 -3 1304 -6 1479 -3
24 0 31 9 63 78 20 42 53 113 74 157 21 44 57 121 80 170 86 183 119 253 170
360 126 266 144 303 170 360 30 65 95 202 167 355 72 151 135 285 201 425 33
72 74 157 90 190 l30 60 -3 -90 c-3 -81 -6 -165 -20 -595 -3 -69 -7 -192 -10
-275 -6 -192 -15 -447 -20 -600 -2 -66 -7 -205 -10 -310 -4 -104 -8 -211 -10
-238 -2 -38 0 -47 14 -47 21 -1 1114 -1 1167 0 l41 0 -1 1553 -1 1552 -1272 3
-1271 2 -10 -27z"/>
<path d="M4169 2193 c-4 -14 -3 -540 0 -578 1 -14 677 -11 714 3 15 7 27 10
27 7 0 -7 122 44 168 71 180 105 188 295 19 407 -64 43 -162 82 -237 96 -30 5
-197 10 -371 11 -295 0 -317 -1 -320 -17z"/>
<path d="M694 1495 c-2 -5 -90 -246 -195 -535 -105 -289 -211 -579 -234 -645
-24 -66 -59 -164 -79 -217 l-35 -98 943 0 944 0 11 28 c6 15 75 220 155 457
79 237 149 444 155 460 l11 30 528 -2 c290 -1 529 -2 532 -2 3 -1 5 -218 5
-483 l0 -483 616 -3 617 -2 0 737 c0 406 -1 745 -4 753 -3 13 -232 15 -1985
15 -1313 0 -1983 -3 -1985 -10z"/>
</g>
</svg>
