<svg width="360" height="281" viewBox="0 0 360 281" fill="none" xmlns="http://www.w3.org/2000/svg">
<g clip-path="url(#clip0)">
<path d="M360 24.2232C360 101.74 253.066 280.999 163.011 280.999C72.9571 280.999 0 218.182 0 140.623C0 63.0647 106.934 79.9595 196.945 79.9595C286.956 79.9595 360 -53.294 360 24.2232Z" fill="#465973"/>
<path d="M360 24.2232C360 101.74 253.066 280.999 163.011 280.999C72.9571 280.999 0 218.182 0 140.623C0 63.0647 106.934 79.9595 196.945 79.9595C286.956 79.9595 360 -53.294 360 24.2232Z" fill="url(#paint0_linear)"/>
</g>
<path d="M184.71 230.291C183.125 229.85 181.962 229.107 181.548 228.272C181.175 227.522 181.174 227.384 181.525 225.867C181.73 224.982 181.897 223.943 181.897 223.562C181.897 223.179 182.007 222.748 182.14 222.604C182.273 222.459 182.475 221.54 182.588 220.568C182.7 219.592 182.886 218.671 183 218.523C183.373 218.031 183.957 215.131 183.81 214.499C183.732 214.159 183.285 213.378 182.818 212.766C182.045 211.753 181.987 211.578 182.175 210.815C182.288 210.354 182.677 209.509 183.039 208.937C183.401 208.369 183.701 207.81 183.705 207.699C183.709 207.588 183.908 207.06 184.147 206.522C184.386 205.983 184.586 205.401 184.59 205.226C184.594 205.052 184.806 204.412 185.06 203.807C185.314 203.198 185.609 201.913 185.715 200.947C185.821 199.981 186.119 198.73 186.377 198.168C186.636 197.603 186.847 197.031 186.847 196.896C186.847 196.762 187.176 196.318 187.579 195.911C188.191 195.288 188.31 194.992 188.31 194.087C188.31 193.28 188.172 192.842 187.771 192.381L187.233 191.759L187.517 187.903C187.674 185.78 187.992 183.203 188.225 182.174C188.457 181.144 188.648 179.96 188.648 179.543C188.648 178.769 189.321 176.956 190.02 175.852C190.236 175.509 190.588 174.513 190.802 173.642C191.144 172.249 191.153 171.966 190.875 171.33C190.701 170.933 190.331 170.499 190.053 170.368C189.772 170.234 189.546 169.907 189.544 169.635C189.543 169.366 189.901 167.549 190.34 165.601C190.779 163.653 191.239 161.577 191.362 160.988C191.5 160.332 191.927 159.498 192.468 158.832C193.117 158.031 193.417 157.382 193.611 156.359C193.755 155.598 193.972 154.613 194.092 154.175C194.212 153.735 194.29 152.361 194.264 151.121C194.239 149.881 194.35 147.657 194.511 146.179C194.672 144.701 194.815 142.062 194.829 140.315C194.86 136.495 195.022 136.006 196.946 133.927C198.663 132.071 199.627 131.533 200.858 131.747C201.837 131.917 203.768 131.368 204.446 130.727C204.967 130.233 205.275 129.132 205.398 127.317C205.619 124.042 206.525 122.022 208.107 121.273C209.189 120.761 211.62 120.412 212.61 120.626C214.863 121.113 215.408 121.422 216.065 122.582C217.094 124.399 217.751 126.851 217.599 128.314C217.487 129.394 217.546 129.666 218.014 130.292L218.556 131.019L218.073 131.578C217.779 131.918 217.673 132.221 217.8 132.35C218.129 132.681 226.371 132.953 226.551 132.639C226.715 132.348 225.683 130.76 225.11 130.428C224.908 130.311 223.505 130.179 221.996 130.137L219.247 130.059V128.344L225.153 128.327C228.404 128.316 231.313 128.262 231.623 128.204C232.137 128.109 232.193 128.186 232.258 129.078C232.298 129.615 232.497 130.252 232.698 130.494C233.309 131.227 234.412 131.685 235.019 131.455C235.784 131.165 237.055 131.442 237.281 131.948C237.386 132.183 237.56 132.568 237.665 132.803C237.938 133.409 241.662 133.65 247.993 133.469L253 133.327V134.805L246.868 134.652C241.331 134.514 240.705 134.538 240.426 134.903C240.203 135.196 239.751 135.307 238.79 135.307C237.752 135.307 237.427 135.397 237.315 135.717C237.222 135.978 237.327 136.241 237.603 136.439C238.939 137.404 238.945 137.413 238.61 138.093C238.328 138.666 238.344 138.784 238.759 139.278C239.19 139.791 239.202 139.944 238.967 141.606C238.75 143.12 238.626 143.431 238.149 143.69C237.312 144.144 236.931 145.218 236.974 147.007C237.018 148.751 236.506 152.597 236.038 154.039C235.868 154.556 235.66 155.42 235.577 155.955C235.422 156.934 235.022 157.627 233.247 160.026C232.717 160.739 232.023 161.688 231.707 162.136C231.391 162.58 230.913 163.051 230.647 163.182C230.38 163.316 229.916 163.576 229.615 163.764C229.315 163.949 228.335 164.178 227.44 164.269C225.59 164.457 223.932 164.087 222.027 163.068C221.388 162.724 220.611 162.378 220.304 162.294C219.994 162.21 219.511 161.873 219.232 161.55C218.95 161.224 218.578 160.958 218.408 160.958C217.98 160.958 215.644 158.526 215.396 157.826C215.064 156.887 214.646 157.365 214.469 158.882C214.379 159.666 214.101 161.116 213.853 162.102C213.602 163.088 213.397 164.134 213.397 164.423C213.397 164.713 213.227 165.54 213.016 166.267C212.681 167.418 212.672 167.653 212.951 168.121C213.162 168.471 213.31 169.668 213.391 171.586L213.512 174.52L214.578 175.983C215.166 176.791 215.913 177.81 216.242 178.248C216.815 179.015 216.821 179.065 216.437 179.523C216.074 179.96 216.068 180.068 216.381 180.801C217.277 182.907 217.348 183.395 216.895 184.303C216.57 184.96 216.533 185.225 216.734 185.447C216.88 185.602 216.998 186.275 216.998 186.938C216.998 188.25 217.992 191.836 218.559 192.563C218.838 192.923 218.897 193.522 218.841 195.5C218.776 197.899 218.792 198.003 219.353 198.575C220.468 199.712 220.542 200.143 220.626 205.957L220.707 211.41L220.09 212.07C219.34 212.874 219.263 214.307 219.861 216.363C220.186 217.483 220.524 217.978 221.977 219.438C223.238 220.709 224.035 221.302 224.908 221.621C229.156 223.179 229.699 224.72 226.572 226.348C225.671 226.816 224.66 227.162 224.205 227.156C222.752 227.135 221.475 226.745 220.865 226.129C220.115 225.372 218.358 224.723 217.069 224.723C216.53 224.723 215.916 224.626 215.702 224.504C215.486 224.387 215.036 224.171 214.705 224.027C213.865 223.67 213.698 222.523 214.181 220.434C214.897 217.332 214.624 214.576 213.549 214.014C213.205 213.836 212.787 213.341 212.616 212.918C212.449 212.49 212.163 211.757 211.983 211.286C211.803 210.815 211.532 209.412 211.381 208.164C211.23 206.916 210.964 205.587 210.789 205.206C210.492 204.56 210.145 203.104 209.881 201.391C209.818 200.987 209.677 200.439 209.568 200.17C208.829 198.36 208.223 196.577 208.222 196.207C208.221 195.968 208.081 195.483 207.91 195.127C207.739 194.773 207.381 193.784 207.113 192.93C206.845 192.075 206.387 190.827 206.094 190.154C205.802 189.481 205.502 188.768 205.428 188.566C205.354 188.364 205.099 187.87 204.862 187.466C204.625 187.062 204.423 186.504 204.414 186.221C204.398 185.7 203.755 184.902 203.353 184.902C202.982 184.902 201.989 186.204 201.842 186.887C201.766 187.237 201.347 188.062 200.912 188.718C200.477 189.374 200.055 190.073 199.976 190.275C199.896 190.477 199.655 191.083 199.44 191.621C199.225 192.156 198.975 192.984 198.885 193.451C198.795 193.922 198.645 194.417 198.552 194.551C198.46 194.686 198.109 195.786 197.773 196.994C197.436 198.205 197.069 199.413 196.956 199.682C196.567 200.607 195.874 201.818 195.437 202.337C195.196 202.623 194.923 203.127 194.831 203.46C194.738 203.79 194.43 204.261 194.146 204.503C193.616 204.954 193.296 205.812 193.038 207.471C192.957 207.995 192.695 208.816 192.457 209.301C192.218 209.785 192.023 210.431 192.023 210.737C192.023 211.044 191.926 211.484 191.808 211.716C191.691 211.952 191.422 212.564 191.211 213.079C191.001 213.594 190.616 214.119 190.357 214.243C189.252 214.775 188.515 215.397 188.228 216.036C187.772 217.056 187.452 222.065 187.764 223.33C187.903 223.896 188.108 224.478 188.219 224.626C188.818 225.42 188.584 229.45 187.904 230.056C187.479 230.436 185.697 230.567 184.71 230.291ZM230.355 162.65C230.68 162.374 230.947 162.008 230.947 161.843C230.947 161.675 231.251 161.224 231.622 160.837C231.994 160.45 232.298 160.033 232.298 159.912C232.298 159.787 232.561 159.346 232.883 158.929C234.569 156.756 236.326 149.681 235.598 148.011C235.176 147.044 234.516 147.12 233.692 148.23C233.296 148.766 232.973 149.311 232.973 149.442C232.973 149.573 232.561 150.035 232.056 150.468C231.176 151.225 229.667 151.755 228.474 151.728C228.164 151.721 227.675 151.954 227.387 152.245C226.894 152.741 226.665 152.772 223.811 152.722C221.366 152.679 220.681 152.59 220.359 152.274C220.139 152.056 219.544 151.818 219.036 151.745C218.422 151.655 217.902 151.371 217.465 150.888C216.393 149.696 216.006 150.006 215.869 152.167C215.807 153.173 215.566 154.522 215.33 155.168L214.906 156.335L215.46 156.998C215.767 157.365 216.185 157.957 216.393 158.32C216.848 159.118 217.855 159.642 219.361 159.861C219.978 159.949 221.093 160.329 221.834 160.699C222.578 161.069 223.575 161.567 224.053 161.802C226.993 163.249 229.292 163.559 230.355 162.65ZM230.271 143.01C231.672 141.996 233.872 139.741 233.872 139.322C233.872 139.17 234.185 138.579 234.563 138.009C235.372 136.798 235.294 136.285 234.306 136.285C233.807 136.285 233.274 136.58 232.496 137.286C231.04 138.611 227.284 143.551 227.48 143.89C227.737 144.342 228.976 143.952 230.271 143.01ZM226.59 143.223C227.17 143.054 231.285 137.855 231.285 137.293C231.285 137.026 230.981 136.827 230.343 136.681C229.038 136.382 228.672 136.577 228.84 137.48C228.967 138.176 228.936 138.209 228.105 138.284C227.281 138.357 227.238 138.402 227.291 139.13C227.325 139.627 227.225 139.948 227.009 140.038C226.823 140.115 226.674 140.401 226.674 140.674C226.674 140.947 226.575 141.171 226.457 141.171C226.153 141.171 225.478 142.804 225.654 143.113C225.819 143.405 225.924 143.417 226.59 143.223ZM219.987 138.862C221.013 138.361 222.032 137.365 221.849 137.044C221.636 136.665 220.991 136.706 220.471 137.132C220.232 137.329 219.86 137.494 219.646 137.498C219.188 137.508 218.469 138.593 218.68 138.961C218.872 139.302 219.126 139.283 219.987 138.862ZM232.763 132.856C233.401 132.485 233.302 131.713 232.561 131.299C232.214 131.102 231.796 130.77 231.635 130.559C231.405 130.26 230.863 130.177 229.134 130.177C227.842 130.177 226.863 130.283 226.779 130.432C226.624 130.703 227.111 131.655 227.867 132.559C228.279 133.05 228.539 133.109 230.327 133.109C231.427 133.109 232.524 132.995 232.763 132.856Z" fill="url(#paint1_linear)"/>
<path d="M155.847 238.83C158.049 238.321 159.664 237.461 160.24 236.497C160.757 235.63 160.758 235.47 160.271 233.716C159.986 232.694 159.754 231.492 159.754 231.053C159.754 230.609 159.602 230.111 159.417 229.944C159.231 229.777 158.952 228.715 158.795 227.592C158.638 226.464 158.381 225.398 158.222 225.227C157.705 224.66 156.893 221.307 157.097 220.576C157.206 220.184 157.826 219.281 158.475 218.574C159.549 217.403 159.629 217.201 159.368 216.318C159.211 215.786 158.67 214.809 158.168 214.148C157.665 213.491 157.249 212.846 157.243 212.717C157.237 212.589 156.961 211.978 156.629 211.356C156.297 210.734 156.02 210.061 156.014 209.859C156.008 209.657 155.714 208.918 155.361 208.218C155.008 207.514 154.598 206.029 154.452 204.913C154.304 203.797 153.89 202.35 153.532 201.701C153.172 201.047 152.879 200.386 152.879 200.231C152.879 200.075 152.422 199.562 151.863 199.091C151.013 198.372 150.847 198.03 150.847 196.984C150.847 196.05 151.038 195.545 151.595 195.012L152.344 194.293L151.948 189.836C151.731 187.382 151.289 184.404 150.966 183.214C150.643 182.024 150.378 180.655 150.378 180.173C150.378 179.278 149.443 177.182 148.473 175.907C148.172 175.51 147.683 174.359 147.386 173.352C146.911 171.742 146.899 171.415 147.285 170.68C147.527 170.222 148.041 169.72 148.427 169.568C148.816 169.413 149.13 169.036 149.133 168.721C149.135 168.409 148.638 166.31 148.028 164.058C147.418 161.806 146.779 159.407 146.608 158.727C146.417 157.968 145.823 157.004 145.073 156.234C144.17 155.308 143.754 154.558 143.485 153.376C143.284 152.497 142.983 151.358 142.816 150.851C142.65 150.343 142.542 148.754 142.577 147.321C142.613 145.888 142.458 143.318 142.235 141.609C142.011 139.901 141.812 136.851 141.793 134.832C141.75 130.416 141.525 129.851 138.853 127.448C136.468 125.302 135.129 124.681 133.42 124.928C132.06 125.125 129.377 124.49 128.437 123.749C127.712 123.178 127.285 121.906 127.114 119.808C126.807 116.023 125.549 113.688 123.351 112.822C121.849 112.23 118.472 111.826 117.097 112.074C113.968 112.637 113.211 112.994 112.299 114.335C110.87 116.435 109.957 119.269 110.168 120.96C110.323 122.209 110.241 122.523 109.592 123.247L108.839 124.087L109.51 124.733C109.919 125.126 110.065 125.476 109.889 125.625C109.432 126.008 97.9849 126.322 97.7353 125.959C97.5072 125.623 98.9403 123.788 99.7365 123.404C100.016 123.268 101.966 123.116 104.062 123.067L107.879 122.978V120.995L99.6762 120.975C95.1618 120.963 91.1207 120.9 90.6903 120.834C89.9759 120.724 89.8985 120.812 89.8081 121.843C89.7522 122.464 89.4767 123.201 89.197 123.48C88.3492 124.327 86.8171 124.857 85.9736 124.591C84.9106 124.256 83.1462 124.575 82.832 125.161C82.6857 125.432 82.4447 125.877 82.2984 126.149C81.9197 126.85 76.7468 127.128 67.9546 126.919L61 126.754V128.463L69.5168 128.286C77.2073 128.126 78.0766 128.155 78.4639 128.576C78.7738 128.914 79.4021 129.044 80.7362 129.044C82.1779 129.044 82.6298 129.148 82.7847 129.517C82.9138 129.819 82.7675 130.122 82.3845 130.352C80.5296 131.467 80.521 131.477 80.9858 132.263C81.3774 132.925 81.3559 133.062 80.7792 133.633C80.181 134.226 80.1638 134.403 80.4909 136.324C80.7921 138.074 80.9643 138.433 81.627 138.733C82.789 139.257 83.3183 140.498 83.2581 142.567C83.1978 144.582 83.9079 149.028 84.5578 150.694C84.7944 151.292 85.0828 152.291 85.199 152.909C85.4142 154.041 85.9693 154.842 88.4353 157.615C89.1712 158.439 90.1352 159.536 90.5741 160.053C91.0131 160.566 91.6759 161.111 92.046 161.262C92.4161 161.418 93.0616 161.717 93.4791 161.935C93.8965 162.149 95.2564 162.413 96.5002 162.518C99.0694 162.736 101.372 162.308 104.019 161.13C104.905 160.733 105.985 160.333 106.411 160.236C106.842 160.138 107.513 159.749 107.9 159.376C108.292 158.999 108.808 158.692 109.045 158.692C109.639 158.692 112.884 155.88 113.228 155.071C113.689 153.986 114.27 154.539 114.515 156.292C114.64 157.198 115.027 158.875 115.371 160.014C115.72 161.153 116.004 162.363 116.004 162.697C116.004 163.032 116.241 163.988 116.533 164.828C116.998 166.158 117.011 166.43 116.624 166.971C116.331 167.375 116.124 168.76 116.013 170.976L115.845 174.367L114.364 176.059C113.547 176.992 112.509 178.17 112.053 178.676C111.257 179.562 111.249 179.621 111.782 180.15C112.286 180.655 112.294 180.78 111.86 181.627C110.616 184.062 110.517 184.625 111.145 185.675C111.597 186.434 111.649 186.741 111.369 186.998C111.167 187.176 111.003 187.954 111.003 188.72C111.003 190.237 109.622 194.382 108.834 195.222C108.447 195.638 108.365 196.33 108.443 198.617C108.533 201.39 108.511 201.51 107.732 202.171C106.183 203.486 106.08 203.983 105.964 210.703L105.852 217.007L106.708 217.769C107.75 218.698 107.857 220.355 107.027 222.731C106.575 224.026 106.106 224.597 104.087 226.285C102.336 227.755 101.23 228.439 100.016 228.809C94.116 230.609 93.3629 232.39 97.7052 234.273C98.9575 234.813 100.36 235.214 100.993 235.206C103.011 235.182 104.785 234.731 105.632 234.02C106.674 233.145 109.114 232.394 110.904 232.394C111.653 232.394 112.505 232.282 112.802 232.142C113.103 232.005 113.727 231.757 114.188 231.589C115.354 231.177 115.587 229.851 114.915 227.436C113.921 223.851 114.3 220.666 115.793 220.017C116.271 219.81 116.852 219.239 117.088 218.749C117.321 218.255 117.718 217.407 117.968 216.863C118.218 216.318 118.594 214.697 118.804 213.254C119.014 211.811 119.384 210.275 119.627 209.836C120.039 209.089 120.521 207.405 120.888 205.426C120.975 204.96 121.17 204.326 121.323 204.015C122.349 201.922 123.19 199.861 123.192 199.434C123.194 199.158 123.388 198.598 123.625 198.185C123.862 197.777 124.36 196.634 124.732 195.646C125.104 194.658 125.74 193.216 126.147 192.438C126.553 191.66 126.969 190.836 127.073 190.602C127.176 190.369 127.529 189.797 127.859 189.331C128.188 188.864 128.468 188.219 128.48 187.892C128.503 187.289 129.395 186.368 129.954 186.368C130.469 186.368 131.848 187.873 132.052 188.662C132.158 189.066 132.74 190.019 133.344 190.777C133.949 191.536 134.534 192.345 134.644 192.578C134.755 192.811 135.09 193.511 135.389 194.133C135.688 194.752 136.035 195.708 136.16 196.249C136.285 196.793 136.493 197.365 136.622 197.52C136.751 197.676 137.238 198.948 137.705 200.344C138.172 201.744 138.682 203.14 138.839 203.451C139.379 204.52 140.342 205.92 140.948 206.519C141.283 206.849 141.662 207.433 141.791 207.818C141.92 208.199 142.347 208.743 142.742 209.023C143.478 209.544 143.923 210.536 144.281 212.453C144.393 213.06 144.757 214.009 145.088 214.568C145.42 215.128 145.691 215.875 145.691 216.229C145.691 216.583 145.825 217.092 145.988 217.361C146.152 217.633 146.525 218.341 146.818 218.935C147.11 219.53 147.644 220.137 148.004 220.281C149.539 220.895 150.562 221.615 150.961 222.354C151.595 223.532 152.038 229.322 151.606 230.784C151.413 231.438 151.128 232.11 150.973 232.282C150.142 233.199 150.467 237.858 151.411 238.558C152.001 238.997 154.477 239.149 155.847 238.83ZM92.4514 160.648C91.9995 160.329 91.6294 159.905 91.6294 159.714C91.6294 159.52 91.2076 158.999 90.6912 158.552C90.1748 158.104 89.753 157.622 89.753 157.482C89.753 157.338 89.3872 156.829 88.9397 156.347C86.5985 153.835 84.1584 145.657 85.1697 143.727C85.755 142.609 86.6717 142.697 87.8164 143.981C88.3673 144.6 88.8149 145.23 88.8149 145.381C88.8149 145.533 89.3872 146.067 90.0887 146.567C91.3109 147.442 93.4068 148.055 95.0636 148.023C95.494 148.015 96.174 148.284 96.5742 148.621C97.2585 149.194 97.5769 149.23 101.541 149.172C104.936 149.123 105.887 149.02 106.335 148.654C106.64 148.403 107.467 148.128 108.172 148.042C109.024 147.939 109.747 147.61 110.354 147.052C111.843 145.674 112.381 146.033 112.571 148.53C112.657 149.694 112.992 151.253 113.319 151.999L113.909 153.349L113.139 154.115C112.713 154.539 112.132 155.223 111.843 155.643C111.211 156.565 109.812 157.171 107.72 157.424C106.864 157.525 105.315 157.964 104.286 158.392C103.253 158.82 101.868 159.395 101.205 159.668C97.1208 161.34 93.9275 161.698 92.4514 160.648ZM92.5676 137.947C90.6224 136.774 87.5668 134.168 87.5668 133.684C87.5668 133.508 87.1322 132.825 86.6071 132.166C85.4839 130.766 85.5915 130.173 86.9643 130.173C87.6572 130.173 88.3974 130.514 89.4776 131.331C91.5003 132.862 96.7162 138.571 96.4451 138.963C96.0879 139.486 94.3665 139.035 92.5676 137.947ZM97.6802 138.192C96.8755 137.998 91.1603 131.988 91.1603 131.339C91.1603 131.03 91.5821 130.8 92.4686 130.632C94.2804 130.286 94.7882 130.511 94.5558 131.555C94.3794 132.359 94.4224 132.398 95.5758 132.484C96.7205 132.569 96.7808 132.62 96.7076 133.462C96.6603 134.036 96.798 134.407 97.0992 134.512C97.3574 134.601 97.564 134.931 97.564 135.247C97.564 135.562 97.7017 135.821 97.8653 135.821C98.287 135.821 99.2252 137.708 98.9799 138.065C98.7518 138.404 98.6055 138.418 97.6802 138.192ZM106.851 133.152C105.427 132.573 104.011 131.422 104.265 131.051C104.562 130.613 105.457 130.66 106.18 131.152C106.511 131.38 107.028 131.571 107.325 131.576C107.961 131.587 108.96 132.841 108.667 133.267C108.4 133.661 108.048 133.639 106.851 133.152ZM89.1075 126.21C88.221 125.782 88.3587 124.889 89.3872 124.41C89.8692 124.183 90.4502 123.799 90.674 123.556C90.9925 123.209 91.7456 123.114 94.147 123.114C95.9416 123.114 97.3015 123.236 97.4177 123.408C97.6329 123.722 96.9572 124.821 95.9071 125.867C95.3348 126.434 94.9733 126.502 92.4901 126.502C90.9623 126.502 89.4389 126.37 89.1075 126.21Z" fill="url(#paint2_linear)"/>
<defs>
<linearGradient id="paint0_linear" x1="-4.13199" y1="280.999" x2="388.387" y2="162.112" gradientUnits="userSpaceOnUse">
<stop stop-color="#37A633"/>
<stop offset="1" stop-color="#81D080"/>
</linearGradient>
<linearGradient id="paint1_linear" x1="61" y1="112" x2="258.961" y2="228.906" gradientUnits="userSpaceOnUse">
<stop stop-color="#E3E3E3"/>
<stop offset="1" stop-color="#F5F5F5"/>
</linearGradient>
<linearGradient id="paint2_linear" x1="61" y1="112" x2="258.961" y2="228.906" gradientUnits="userSpaceOnUse">
<stop stop-color="#E3E3E3"/>
<stop offset="1" stop-color="#F5F5F5"/>
</linearGradient>
<clipPath id="clip0">
<rect width="360" height="281" fill="white"/>
</clipPath>
</defs>
</svg>
