<svg width="360" height="282" viewBox="0 0 360 282" fill="none" xmlns="http://www.w3.org/2000/svg">
<path fill-rule="evenodd" clip-rule="evenodd" d="M163.011 281.008C253.066 281.008 360 101.749 360 24.232C360 -15.2301 341.07 -0.0693722 310.609 24.3268C281.233 47.8532 241.134 79.9682 196.945 79.9682C183.245 79.9682 169.151 79.5768 155.104 79.1867C76.8586 77.0134 0 74.8787 0 140.632C0 218.191 72.9571 281.008 163.011 281.008ZM155.847 238.839C158.049 238.329 159.664 237.47 160.24 236.505C160.757 235.638 160.758 235.479 160.271 233.725C159.986 232.702 159.754 231.501 159.754 231.061C159.754 230.618 159.602 230.12 159.417 229.953C159.231 229.786 158.952 228.724 158.795 227.6C158.638 226.473 158.381 225.407 158.222 225.236C157.705 224.668 156.893 221.316 157.097 220.585C157.206 220.192 157.826 219.29 158.475 218.582C159.549 217.412 159.629 217.21 159.368 216.327C159.211 215.794 158.67 214.818 158.168 214.157C157.665 213.5 157.249 212.854 157.243 212.726C157.237 212.598 156.961 211.987 156.629 211.365C156.297 210.743 156.02 210.07 156.014 209.868C156.008 209.666 155.714 208.927 155.361 208.227C155.008 207.523 154.598 206.038 154.452 204.921C154.304 203.805 153.89 202.359 153.532 201.709C153.172 201.056 152.879 200.395 152.879 200.239C152.879 200.084 152.422 199.571 151.863 199.1C151.013 198.381 150.847 198.038 150.847 196.992C150.847 196.059 151.038 195.554 151.595 195.021L152.344 194.301L151.948 189.845C151.731 187.391 151.289 184.412 150.966 183.223C150.643 182.033 150.378 180.664 150.378 180.182C150.378 179.287 149.443 177.191 148.473 175.916C148.172 175.519 147.683 174.368 147.386 173.361C146.911 171.751 146.899 171.424 147.285 170.689C147.527 170.23 148.041 169.729 148.427 169.577C148.816 169.422 149.13 169.044 149.133 168.729C149.135 168.418 148.638 166.318 148.028 164.067C147.418 161.815 146.779 159.416 146.608 158.735C146.417 157.977 145.823 157.013 145.073 156.243C144.17 155.317 143.754 154.567 143.485 153.385C143.284 152.506 142.983 151.366 142.816 150.86C142.65 150.352 142.542 148.763 142.577 147.33C142.612 145.897 142.458 143.326 142.235 141.618C142.011 139.91 141.812 136.86 141.793 134.841C141.75 130.424 141.525 129.86 138.853 127.457C136.468 125.311 135.129 124.69 133.42 124.937C132.06 125.133 129.377 124.498 128.437 123.758C127.712 123.187 127.285 121.915 127.114 119.817C126.807 116.032 125.549 113.697 123.351 112.831C121.849 112.239 118.472 111.835 117.097 112.083C113.968 112.646 113.211 113.003 112.299 114.344C110.87 116.444 109.957 119.278 110.168 120.969C110.323 122.218 110.241 122.531 109.592 123.256L108.839 124.095L109.51 124.742C109.919 125.135 110.065 125.485 109.889 125.634C109.432 126.016 97.9849 126.331 97.7353 125.968C97.5072 125.632 98.9403 123.796 99.7365 123.413C100.016 123.277 101.966 123.125 104.062 123.076L107.879 122.986V121.004L99.6762 120.984C95.1618 120.972 91.1207 120.909 90.6903 120.842C89.9759 120.732 89.8985 120.821 89.8081 121.852C89.7522 122.473 89.4767 123.209 89.197 123.488C88.3492 124.336 86.8171 124.865 85.9736 124.6C84.9107 124.265 83.1462 124.584 82.832 125.169C82.7597 125.304 82.6644 125.48 82.5687 125.657L82.5652 125.664L82.5617 125.67L82.4394 125.896L82.2984 126.158C81.9197 126.859 76.7468 127.136 67.9546 126.928L61 126.763V128.472L69.5168 128.295C77.2073 128.135 78.0766 128.163 78.4639 128.585C78.7738 128.923 79.4021 129.052 80.7362 129.052C82.1779 129.052 82.6298 129.156 82.7847 129.526C82.9138 129.827 82.7675 130.131 82.3845 130.361C80.5296 131.476 80.521 131.486 80.9858 132.272C81.3774 132.934 81.3559 133.071 80.7792 133.642C80.181 134.235 80.1638 134.411 80.4909 136.333C80.7921 138.083 80.9643 138.442 81.627 138.741C82.789 139.266 83.3183 140.507 83.2581 142.576C83.1978 144.591 83.9079 149.036 84.5578 150.703C84.7945 151.3 85.0828 152.3 85.199 152.918C85.4142 154.05 85.9693 154.851 88.4353 157.623C89.1712 158.448 90.1352 159.544 90.5742 160.062C91.0131 160.575 91.6759 161.119 92.046 161.271C92.4161 161.426 93.0616 161.726 93.4791 161.944C93.8965 162.158 95.2564 162.422 96.5002 162.527C99.0694 162.745 101.372 162.317 104.019 161.139C104.905 160.742 105.985 160.342 106.411 160.244C106.842 160.147 107.513 159.758 107.9 159.385C108.292 159.008 108.808 158.7 109.045 158.7C109.639 158.7 112.884 155.889 113.228 155.08C113.689 153.995 114.27 154.547 114.515 156.301C114.64 157.207 115.027 158.883 115.371 160.023C115.72 161.162 116.004 162.371 116.004 162.706C116.004 163.04 116.241 163.997 116.533 164.837C116.998 166.167 117.011 166.439 116.624 166.98C116.331 167.384 116.124 168.768 116.013 170.985L115.845 174.376L114.364 176.067C113.547 177.001 112.509 178.179 112.053 178.685C111.257 179.571 111.249 179.629 111.782 180.158C112.286 180.664 112.294 180.788 111.86 181.636C110.616 184.07 110.517 184.634 111.145 185.684C111.597 186.442 111.649 186.75 111.369 187.006C111.167 187.185 111.003 187.963 111.003 188.729C111.003 190.246 109.622 194.391 108.834 195.231C108.447 195.647 108.365 196.339 108.443 198.626C108.533 201.398 108.511 201.519 107.732 202.18C106.183 203.494 106.08 203.992 105.964 210.712L105.852 217.015L106.708 217.778C107.75 218.707 107.857 220.364 107.027 222.74C106.575 224.035 106.106 224.606 104.087 226.294C102.336 227.764 101.23 228.448 100.016 228.818C94.116 230.618 93.3629 232.399 97.7052 234.281C98.9575 234.822 100.36 235.222 100.993 235.215C103.011 235.191 104.785 234.74 105.632 234.029C106.674 233.154 109.114 232.403 110.904 232.403C111.653 232.403 112.505 232.29 112.802 232.15C113.103 232.014 113.727 231.765 114.188 231.598C115.354 231.186 115.587 229.86 114.915 227.445C113.921 223.86 114.3 220.675 115.793 220.025C116.271 219.819 116.852 219.248 117.088 218.758C117.321 218.264 117.718 217.416 117.968 216.872C118.218 216.327 118.594 214.706 118.804 213.263C119.014 211.82 119.384 210.284 119.627 209.845C120.039 209.098 120.521 207.414 120.888 205.435C120.975 204.968 121.17 204.334 121.323 204.023C122.349 201.931 123.19 199.87 123.192 199.442C123.194 199.166 123.388 198.606 123.625 198.194C123.862 197.786 124.36 196.643 124.732 195.655C125.104 194.667 125.74 193.224 126.147 192.447C126.553 191.669 126.969 190.844 127.073 190.611C127.176 190.378 127.529 189.806 127.859 189.34C128.188 188.873 128.468 188.227 128.48 187.901C128.503 187.298 129.395 186.376 129.954 186.376C130.469 186.376 131.848 187.881 132.052 188.671C132.158 189.075 132.74 190.028 133.344 190.786C133.949 191.544 134.534 192.353 134.644 192.587C134.755 192.82 135.09 193.52 135.389 194.142C135.688 194.76 136.035 195.717 136.16 196.258C136.285 196.802 136.493 197.374 136.622 197.529C136.751 197.685 137.238 198.956 137.705 200.352C138.172 201.752 138.682 203.148 138.839 203.459C139.379 204.529 140.342 205.929 140.948 206.528C141.283 206.858 141.662 207.441 141.791 207.826C141.92 208.208 142.347 208.752 142.742 209.032C143.478 209.553 143.923 210.545 144.281 212.462C144.393 213.068 144.757 214.017 145.088 214.577C145.42 215.137 145.691 215.884 145.691 216.238C145.691 216.592 145.825 217.101 145.988 217.369C146.152 217.642 146.525 218.349 146.818 218.944C147.11 219.539 147.644 220.146 148.004 220.29C149.539 220.904 150.562 221.624 150.961 222.362C151.595 223.541 152.038 229.331 151.606 230.793C151.413 231.446 151.128 232.119 150.973 232.29C150.142 233.208 150.467 237.867 151.411 238.567C152.001 239.006 154.477 239.158 155.847 238.839ZM91.6294 159.723C91.6294 159.914 91.9995 160.337 92.4514 160.656C93.9275 161.706 97.1208 161.349 101.205 159.676C101.672 159.485 102.497 159.143 103.305 158.808L103.317 158.802L104.286 158.401C105.315 157.973 106.864 157.534 107.72 157.433C109.812 157.18 111.211 156.573 111.843 155.652C112.132 155.232 112.713 154.547 113.139 154.123L113.909 153.357L113.319 152.008C112.992 151.261 112.657 149.702 112.571 148.539C112.381 146.042 111.843 145.683 110.354 147.061C109.747 147.619 109.024 147.948 108.172 148.051C107.467 148.136 106.64 148.412 106.335 148.663C105.887 149.029 104.936 149.131 101.541 149.181C97.5769 149.238 97.2585 149.203 96.5742 148.629C96.174 148.293 95.494 148.024 95.0636 148.032C93.4068 148.064 91.3109 147.45 90.0887 146.576C89.3872 146.075 88.8149 145.541 88.8149 145.39C88.8149 145.238 88.3673 144.608 87.8164 143.989C86.6717 142.705 85.755 142.617 85.1697 143.736C84.1584 145.666 86.5985 153.843 88.9397 156.355C89.3872 156.838 89.753 157.347 89.753 157.491C89.753 157.631 90.1748 158.113 90.6912 158.56C91.2076 159.008 91.6294 159.529 91.6294 159.723ZM87.5668 133.693C87.5668 134.177 90.6224 136.783 92.5676 137.956C94.3665 139.044 96.0879 139.494 96.4451 138.972C96.7162 138.58 91.5003 132.87 89.4776 131.339C88.3974 130.523 87.6572 130.182 86.9643 130.182C85.5915 130.182 85.4839 130.775 86.6071 132.175C87.1322 132.834 87.5668 133.517 87.5668 133.693ZM91.1603 131.348C91.1603 131.997 96.8755 138.006 97.6802 138.201C98.6055 138.426 98.7518 138.412 98.9799 138.074C99.2252 137.717 98.287 135.829 97.8653 135.829C97.7017 135.829 97.564 135.571 97.564 135.256C97.564 134.94 97.3574 134.609 97.0992 134.52C96.798 134.416 96.6603 134.045 96.7076 133.47C96.7808 132.629 96.7205 132.577 95.5758 132.492C94.4224 132.407 94.3794 132.368 94.5558 131.564C94.7882 130.519 94.2804 130.295 92.4686 130.64C91.5821 130.809 91.1603 131.038 91.1603 131.348ZM104.265 131.06C104.011 131.43 105.427 132.582 106.851 133.161C108.048 133.647 108.4 133.67 108.667 133.275C108.96 132.85 107.961 131.595 107.325 131.584C107.028 131.58 106.511 131.389 106.18 131.161C105.457 130.669 104.562 130.622 104.265 131.06ZM89.3872 124.419C88.3587 124.897 88.221 125.79 89.1075 126.218C89.4389 126.379 90.9623 126.511 92.4901 126.511C94.9733 126.511 95.3348 126.443 95.9072 125.875C96.9572 124.83 97.6329 123.731 97.4177 123.417C97.3015 123.244 95.9416 123.122 94.147 123.122C91.7456 123.122 90.9925 123.218 90.674 123.564C90.4502 123.807 89.8692 124.192 89.3872 124.419ZM181.548 228.281C181.962 229.116 183.125 229.859 184.71 230.3C185.697 230.576 187.479 230.445 187.904 230.064C188.584 229.459 188.818 225.428 188.219 224.634C188.108 224.486 187.903 223.904 187.764 223.339C187.452 222.074 187.772 217.064 188.228 216.045C188.515 215.406 189.252 214.783 190.357 214.252C190.616 214.127 191.001 213.603 191.211 213.088C191.422 212.573 191.691 211.961 191.808 211.725C191.926 211.493 192.023 211.052 192.023 210.746C192.023 210.44 192.218 209.794 192.457 209.31C192.695 208.825 192.957 208.004 193.038 207.479C193.296 205.821 193.616 204.963 194.146 204.512C194.43 204.27 194.738 203.799 194.831 203.469C194.923 203.136 195.196 202.631 195.437 202.345C195.874 201.827 196.567 200.616 196.956 199.691C197.069 199.422 197.436 198.214 197.773 197.003C198.109 195.795 198.46 194.695 198.552 194.56C198.645 194.426 198.795 193.931 198.885 193.46C198.975 192.992 199.225 192.165 199.44 191.63C199.655 191.091 199.896 190.486 199.976 190.284C200.055 190.082 200.477 189.382 200.912 188.726C201.347 188.07 201.766 187.246 201.842 186.896C201.989 186.213 202.982 184.911 203.353 184.911C203.755 184.911 204.398 185.708 204.414 186.23C204.423 186.513 204.625 187.071 204.862 187.475C205.099 187.878 205.354 188.373 205.428 188.575C205.502 188.777 205.802 189.49 206.094 190.163C206.387 190.836 206.845 192.084 207.113 192.938C207.381 193.793 207.739 194.782 207.91 195.135C208.081 195.492 208.221 195.977 208.222 196.215C208.223 196.585 208.829 198.369 209.568 200.179C209.677 200.448 209.818 200.996 209.881 201.4C210.145 203.112 210.492 204.569 210.789 205.215C210.964 205.595 211.23 206.924 211.381 208.172C211.532 209.421 211.803 210.824 211.983 211.295C212.163 211.766 212.449 212.499 212.616 212.926C212.787 213.35 213.205 213.845 213.549 214.023C214.624 214.585 214.897 217.34 214.181 220.442C213.698 222.532 213.865 223.679 214.705 224.035C215.036 224.18 215.486 224.395 215.702 224.513C215.916 224.634 216.53 224.732 217.069 224.732C218.358 224.732 220.115 225.381 220.865 226.138C221.475 226.754 222.752 227.144 224.205 227.164C224.66 227.171 225.671 226.825 226.572 226.357C229.699 224.729 229.156 223.188 224.908 221.63C224.035 221.31 223.238 220.718 221.977 219.446C220.524 217.986 220.186 217.492 219.861 216.371C219.263 214.316 219.34 212.883 220.09 212.078L220.707 211.419L220.626 205.965C220.542 200.152 220.468 199.721 219.353 198.584C218.792 198.012 218.776 197.908 218.841 195.509C218.897 193.531 218.838 192.932 218.559 192.572C217.992 191.845 216.998 188.259 216.998 186.947C216.998 186.284 216.88 185.611 216.734 185.456C216.533 185.234 216.57 184.968 216.895 184.312C217.348 183.404 217.277 182.916 216.381 180.81C216.068 180.076 216.074 179.969 216.437 179.531C216.821 179.074 216.815 179.023 216.242 178.256C215.913 177.819 215.166 176.8 214.578 175.992L213.512 174.529L213.391 171.595C213.31 169.677 213.162 168.479 212.951 168.13C212.672 167.662 212.681 167.426 213.016 166.276C213.227 165.549 213.397 164.721 213.397 164.432C213.397 164.143 213.602 163.096 213.853 162.111C214.101 161.125 214.379 159.675 214.469 158.891C214.646 157.374 215.064 156.896 215.396 157.835C215.644 158.534 217.98 160.967 218.408 160.967C218.578 160.967 218.95 161.233 219.232 161.559C219.511 161.882 219.994 162.218 220.304 162.302C220.611 162.387 221.388 162.733 222.027 163.076C223.932 164.096 225.59 164.466 227.44 164.277C228.335 164.186 229.315 163.958 229.615 163.773C229.916 163.584 230.38 163.325 230.647 163.191C230.913 163.059 231.391 162.588 231.707 162.144C232.023 161.697 232.717 160.748 233.247 160.035C235.022 157.636 235.422 156.943 235.577 155.964C235.66 155.429 235.868 154.564 236.038 154.048C236.506 152.606 237.018 148.759 236.974 147.016C236.931 145.227 237.312 144.152 238.149 143.699C238.626 143.44 238.75 143.129 238.967 141.615C239.202 139.953 239.19 139.8 238.759 139.287C238.344 138.793 238.328 138.674 238.61 138.102C238.945 137.421 238.939 137.413 237.603 136.448C237.327 136.249 237.222 135.987 237.315 135.726C237.427 135.406 237.752 135.316 238.79 135.316C239.751 135.316 240.203 135.204 240.426 134.912C240.705 134.547 241.331 134.522 246.868 134.661L253 134.814V133.335L247.993 133.478C241.662 133.658 237.938 133.418 237.665 132.812C237.56 132.577 237.386 132.192 237.281 131.957C237.055 131.45 235.784 131.174 235.019 131.464C234.412 131.694 233.309 131.236 232.698 130.502C232.497 130.261 232.298 129.624 232.258 129.086C232.193 128.194 232.137 128.118 231.623 128.213C231.313 128.27 228.404 128.325 225.153 128.335L219.247 128.353V130.068L221.996 130.145C223.505 130.188 224.908 130.319 225.11 130.437C225.683 130.769 226.715 132.357 226.551 132.647C226.371 132.961 218.129 132.689 217.8 132.359C217.673 132.23 217.779 131.927 218.073 131.587L218.556 131.027L218.014 130.301C217.546 129.674 217.487 129.403 217.599 128.323C217.751 126.86 217.094 124.408 216.065 122.591C215.408 121.431 214.863 121.122 212.61 120.635C211.62 120.42 209.189 120.77 208.107 121.282C206.525 122.031 205.619 124.051 205.398 127.326C205.275 129.141 204.967 130.241 204.446 130.735C203.768 131.376 201.837 131.926 200.858 131.755C199.627 131.542 198.663 132.079 196.946 133.936C195.022 136.015 194.86 136.503 194.829 140.324C194.815 142.071 194.672 144.71 194.511 146.188C194.35 147.666 194.239 149.889 194.264 151.13C194.29 152.369 194.212 153.744 194.092 154.183C193.972 154.621 193.755 155.607 193.611 156.368C193.417 157.39 193.117 158.04 192.468 158.84C191.927 159.507 191.5 160.341 191.362 160.997C191.239 161.586 190.779 163.662 190.34 165.61C189.901 167.557 189.543 169.374 189.544 169.643C189.546 169.916 189.772 170.242 190.053 170.377C190.331 170.508 190.701 170.942 190.875 171.339C191.153 171.975 191.144 172.258 190.802 173.65C190.588 174.522 190.236 175.518 190.02 175.861C189.321 176.964 188.648 178.778 188.648 179.552C188.648 179.969 188.457 181.153 188.225 182.182C187.992 183.212 187.674 185.789 187.517 187.912L187.233 191.768L187.771 192.39C188.172 192.851 188.31 193.288 188.31 194.096C188.31 195.001 188.191 195.297 187.579 195.919C187.176 196.326 186.847 196.77 186.847 196.905C186.847 197.04 186.636 197.612 186.377 198.177C186.119 198.739 185.821 199.99 185.715 200.956C185.609 201.921 185.314 203.206 185.06 203.815C184.806 204.421 184.594 205.06 184.59 205.235C184.586 205.41 184.386 205.992 184.147 206.531C183.908 207.069 183.709 207.597 183.705 207.708C183.701 207.819 183.401 208.378 183.039 208.946C182.677 209.518 182.288 210.363 182.175 210.823C181.987 211.587 182.045 211.762 182.818 212.775C183.285 213.387 183.732 214.168 183.81 214.507C183.957 215.14 183.373 218.04 183 218.531C182.886 218.679 182.7 219.601 182.588 220.577C182.475 221.549 182.273 222.468 182.14 222.612C182.007 222.757 181.897 223.188 181.897 223.571C181.897 223.951 181.73 224.991 181.525 225.876C181.174 227.393 181.175 227.531 181.548 228.281ZM230.355 162.659C230.68 162.383 230.947 162.016 230.947 161.852C230.947 161.683 231.251 161.232 231.622 160.846C231.994 160.459 232.298 160.041 232.298 159.92C232.298 159.796 232.561 159.355 232.883 158.938C234.569 156.765 236.326 149.69 235.598 148.02C235.176 147.052 234.516 147.128 233.692 148.239C233.296 148.775 232.973 149.32 232.973 149.451C232.973 149.582 232.561 150.044 232.056 150.477C231.176 151.234 229.667 151.764 228.474 151.736C228.164 151.729 227.675 151.962 227.387 152.254C226.894 152.75 226.665 152.78 223.811 152.731C221.366 152.688 220.681 152.599 220.359 152.283C220.139 152.065 219.544 151.827 219.036 151.753C218.422 151.664 217.902 151.38 217.465 150.897C216.393 149.704 216.006 150.015 215.869 152.176C215.807 153.182 215.566 154.531 215.33 155.177L214.906 156.344L215.46 157.007C215.767 157.374 216.185 157.966 216.393 158.329C216.848 159.126 217.855 159.651 219.361 159.87C219.978 159.957 221.093 160.338 221.834 160.708C222.05 160.815 222.288 160.934 222.529 161.054C223.114 161.345 223.714 161.644 224.053 161.811C226.993 163.258 229.292 163.567 230.355 162.659ZM230.271 143.019C231.672 142.004 233.872 139.75 233.872 139.331C233.872 139.179 234.185 138.587 234.563 138.018C235.372 136.806 235.294 136.293 234.306 136.293C233.807 136.293 233.274 136.588 232.496 137.295C231.04 138.619 227.284 143.559 227.48 143.898C227.737 144.35 228.976 143.96 230.271 143.019ZM226.59 143.231C227.17 143.063 231.285 137.864 231.285 137.302C231.285 137.034 230.981 136.836 230.343 136.69C229.038 136.391 228.672 136.585 228.84 137.489C228.967 138.185 228.936 138.218 228.105 138.292C227.281 138.366 227.238 138.411 227.291 139.139C227.325 139.636 227.225 139.957 227.009 140.047C226.823 140.124 226.674 140.41 226.674 140.683C226.674 140.956 226.575 141.179 226.457 141.179C226.153 141.179 225.478 142.812 225.654 143.121C225.819 143.414 225.924 143.426 226.59 143.231ZM219.987 138.871C221.013 138.369 222.032 137.374 221.849 137.053C221.636 136.674 220.991 136.715 220.471 137.14C220.232 137.338 219.86 137.503 219.646 137.507C219.188 137.516 218.469 138.602 218.68 138.97C218.872 139.311 219.126 139.292 219.987 138.871ZM232.763 132.864C233.401 132.494 233.302 131.721 232.561 131.307C232.214 131.111 231.796 130.778 231.635 130.568C231.405 130.268 230.863 130.186 229.134 130.186C227.842 130.186 226.863 130.291 226.779 130.441C226.624 130.712 227.111 131.663 227.867 132.568C228.279 133.059 228.539 133.117 230.327 133.117C231.427 133.117 232.524 133.003 232.763 132.864Z" fill="url(#paint0_linear)"/>
<defs>
<linearGradient id="paint0_linear" x1="-4.13199" y1="281.008" x2="388.387" y2="162.121" gradientUnits="userSpaceOnUse">
<stop stop-color="#01AD84"/>
<stop offset="1" stop-color="#00CB44"/>
</linearGradient>
</defs>
</svg>
