<svg width="454" height="260" viewBox="0 0 454 260" fill="none" xmlns="http://www.w3.org/2000/svg">
<path d="M188.086 138.912H143.03V145.179H191.653L188.086 138.912Z" fill="url(#paint0_linear)"/>
<path d="M307.346 85.871H268.337V91.1506H310.434L307.346 85.871Z" fill="url(#paint1_linear)"/>
<path fill-rule="evenodd" clip-rule="evenodd" d="M129.963 30.5091C139.693 30.0774 161.518 23.2944 184.235 16.234C211.24 7.84084 239.507 -0.944375 250.217 0.0820579C273.119 2.28082 295.37 12.9891 320.289 24.9814C342.49 35.6659 366.81 47.3697 395.595 54.983C474.042 75.7717 474.437 108.939 390.468 186.424C306.499 263.909 159.938 268.539 107.127 252.475C39.4469 231.876 -106.996 41.0452 129.963 30.5091ZM73.007 137.287L76.5739 160.497L83.1445 174.655L91.0292 186.259L95.1592 167.46L103.795 157.712H123.131L133.832 174.655L135.709 192.758H197.284V170.477L212.491 155.855H230.513L241.589 172.798L247.221 170.477L248.91 157.712L243.466 151.909H230.513L214.931 131.949H183.768L176.071 129.628H159.363V122.433L150.915 124.29V129.628H153.731V131.949H142.467L137.399 128.236L123.131 129.628V133.574L73.007 137.287ZM188.086 138.912H143.03V145.179H191.653L188.086 138.912ZM112.994 205.988C123.569 205.988 132.142 195.804 132.142 183.242C132.142 170.681 123.569 160.497 112.994 160.497C102.418 160.497 93.8451 170.681 93.8451 183.242C93.8451 195.804 102.418 205.988 112.994 205.988ZM239.652 183.023C239.652 195.591 230.844 205.778 219.979 205.778C209.114 205.778 200.305 195.591 200.305 183.023C200.305 170.456 209.114 160.268 219.979 160.268C230.844 160.268 239.652 170.456 239.652 183.023ZM242.332 142.382C251.488 142.382 258.91 133.803 258.91 123.219C258.91 112.636 251.488 104.056 242.332 104.056C233.176 104.056 225.753 112.636 225.753 123.219C225.753 133.803 233.176 142.382 242.332 142.382ZM351.991 123.035C351.991 133.623 344.366 142.206 334.958 142.206C325.551 142.206 317.925 133.623 317.925 123.035C317.925 112.447 325.551 103.863 334.958 103.863C344.366 103.863 351.991 112.447 351.991 123.035ZM210.8 104.056L207.712 84.5021L251.109 81.3735V78.0493L263.461 76.8761L267.85 80.0047H277.602V78.0493H275.164V73.5519L282.478 71.9876V78.0493H296.944L303.607 80.0047H330.588L344.079 96.8211H355.294L360.007 101.71L358.544 112.464L353.668 114.42L344.079 100.145H328.475L315.31 112.464V131.236H261.999L260.373 115.984L251.109 101.71H234.368L226.891 109.922L223.315 125.761L216.489 115.984L210.8 104.056ZM268.337 85.871H307.346L310.434 91.1506H268.337V85.871Z" fill="url(#paint2_linear)"/>
<defs>
<linearGradient id="paint0_linear" x1="343.038" y1="35.2241" x2="217.59" y2="276.396" gradientUnits="userSpaceOnUse">
<stop stop-color="#F26E50"/>
<stop offset="1" stop-color="#E86F8C"/>
</linearGradient>
<linearGradient id="paint1_linear" x1="343.038" y1="35.2241" x2="217.59" y2="276.396" gradientUnits="userSpaceOnUse">
<stop stop-color="#F26E50"/>
<stop offset="1" stop-color="#E86F8C"/>
</linearGradient>
<linearGradient id="paint2_linear" x1="343.038" y1="35.2241" x2="217.59" y2="276.396" gradientUnits="userSpaceOnUse">
<stop stop-color="#F26E50"/>
<stop offset="1" stop-color="#E86F8C"/>
</linearGradient>
</defs>
</svg>
