<svg width="48" height="48" viewBox="0 0 48 48" fill="none" xmlns="http://www.w3.org/2000/svg">
<circle cx="24" cy="24" r="23" fill="#222222" stroke="#02AA3B" stroke-width="2"/>
<path d="M37.1955 25.8571C37.1955 25.8571 38.8246 26.1048 38.8246 27.0952C38.8246 28.0857 37.1955 28.3333 37.1955 28.3333H34.4802L34.4802 25.8571L37.1955 25.8571Z" fill="#02AA3B"/>
<g filter="url(#filter0_i)">
<path d="M26.2804 12.6508H15.7861L11.122 25.5475H17.3404L21.541 16.6637L21.241 25.5475H26.2804V12.6508Z" fill="white"/>
<path d="M8 35.3492H15.7861L17.1402 31.3399H21.541V35.3492H26.6189V28.746H10.2568L8 35.3492Z" fill="white"/>
<path d="M31.9977 16.1587H36.3421V17.3968H39.6522V12.6508H35.7215V11H32.4115V12.6508H27.4464L27.4464 25.4444H31.9977V16.1587Z" fill="white"/>
<path d="M39.6522 35.3492V31.6349H36.3421V32.4603H31.9977L32.0542 28.746L27.4464 28.746V35.3492H32.4115V37H35.7215V35.3492L39.6522 35.3492Z" fill="white"/>
</g>
<defs>
<filter id="filter0_i" x="8" y="11" width="31.6522" height="30" filterUnits="userSpaceOnUse" color-interpolation-filters="sRGB">
<feFlood flood-opacity="0" result="BackgroundImageFix"/>
<feBlend mode="normal" in="SourceGraphic" in2="BackgroundImageFix" result="shape"/>
<feColorMatrix in="SourceAlpha" type="matrix" values="0 0 0 0 0 0 0 0 0 0 0 0 0 0 0 0 0 0 127 0" result="hardAlpha"/>
<feOffset dy="4"/>
<feGaussianBlur stdDeviation="2"/>
<feComposite in2="hardAlpha" operator="arithmetic" k2="-1" k3="1"/>
<feColorMatrix type="matrix" values="0 0 0 0 0 0 0 0 0 0 0 0 0 0 0 0 0 0 0.1 0"/>
<feBlend mode="normal" in2="shape" result="effect1_innerShadow"/>
</filter>
</defs>
</svg>
