<svg width="64" height="64" viewBox="0 0 64 64" fill="none" xmlns="http://www.w3.org/2000/svg">
<path d="M36.9625 9H15.7433L6.31253 35.1361H18.8861L27.3796 17.1323L26.773 35.1361H36.9625V9Z" fill="white"/>
<path d="M0 55H15.7433L18.4813 46.8749H27.3796V55H37.647V41.6182H4.56327L0 55Z" fill="white"/>
<path fill-rule="evenodd" clip-rule="evenodd" d="M39.3203 55L64 55V47.4727H57.3072V49.1454H48.5229L48.637 41.6182L39.3203 41.6181V55ZM39.3202 34.9273L39.3203 9H64V18.6182H57.3072V16.1091H48.5229V34.9273H39.3202Z" fill="white"/>
<path d="M59.955 35.1895C59.955 35.1895 63.3006 35.6993 63.3006 37.7385C63.3006 39.7777 59.955 40.2875 59.955 40.2875H54.379L54.379 35.1895L59.955 35.1895Z" fill="white"/>
</svg>
