<svg width="200" height="200" viewBox="0 0 200 200" fill="none" xmlns="http://www.w3.org/2000/svg">
<path d="M17.2414 17.2418V65.5177H65.5172V17.2418H17.2414ZM58.6207 39.6556C58.6112 48.2216 51.6694 55.1634 43.1034 55.1729C40.1875 55.1651 37.3339 54.3279 34.8759 52.7591L30.0241 57.6108C28.6711 58.9176 26.5204 58.8989 25.1903 57.5688C23.8602 56.2387 23.8415 54.088 25.1483 52.7349L30 47.8832C28.4312 45.4252 27.594 42.5716 27.5862 39.6556C27.5957 31.0896 34.5374 24.1479 43.1034 24.1384H55.1724C57.0768 24.1384 58.6207 25.6822 58.6207 27.5867V39.6556Z" fill="url(#paint0_linear)"/>
<path d="M82.7586 148.276H117.245V182.759H82.7586V148.276Z" fill="url(#paint1_linear)"/>
<path d="M34.4828 39.655C34.4816 41.9197 35.3766 44.0929 36.9724 45.6998C36.9724 45.6998 37.0069 45.7205 37.0241 45.7343C37.0414 45.7481 37.0414 45.7723 37.0586 45.7861C39.5333 48.2199 43.2262 48.9322 46.4285 47.5934C49.6309 46.2547 51.718 43.126 51.7241 39.655V31.0343H43.1034C38.3424 31.0343 34.4828 34.8939 34.4828 39.655Z" fill="url(#paint2_linear)"/>
<path d="M17.2414 148.276H51.7276V182.759H17.2414V148.276Z" fill="url(#paint3_linear)"/>
<path d="M82.7586 86.207V120.69H117.241V86.207H82.7586ZM109.334 98.9898L95.5414 112.783C94.1884 114.09 92.0376 114.071 90.7075 112.741C89.3774 111.411 89.3587 109.26 90.6655 107.907L104.459 94.1139C105.812 92.8071 107.962 92.8258 109.292 94.1559C110.623 95.486 110.641 97.6367 109.334 98.9898Z" fill="url(#paint4_linear)"/>
<path d="M17.2414 86.207V120.69H51.7241V86.207H17.2414ZM43.8172 98.9898L30.0241 112.783C28.6711 114.09 26.5204 114.071 25.1903 112.741C23.8602 111.411 23.8415 109.26 25.1483 107.907L38.9414 94.1139C40.2944 92.8071 42.4451 92.8258 43.7752 94.1559C45.1053 95.486 45.124 97.6367 43.8172 98.9898Z" fill="url(#paint5_linear)"/>
<path d="M148.276 86.207H182.762V120.69H148.276V86.207Z" fill="url(#paint6_linear)"/>
<path d="M148.276 148.276H182.762V182.759H148.276V148.276Z" fill="url(#paint7_linear)"/>
<path d="M193.103 0H6.89655C3.08769 0 0 3.08769 0 6.89655V193.103C0 196.912 3.08769 200 6.89655 200H193.103C196.912 200 200 196.912 200 193.103V6.89655C200 3.08769 196.912 0 193.103 0ZM134.483 37.931C134.483 39.8355 132.939 41.3793 131.034 41.3793H106.897C104.992 41.3793 103.448 39.8355 103.448 37.931C103.448 36.0266 104.992 34.4828 106.897 34.4828H131.034C132.939 34.4828 134.483 36.0266 134.483 37.931ZM82.7586 13.7931H113.793C115.698 13.7931 117.241 15.3369 117.241 17.2414C117.241 19.1458 115.698 20.6897 113.793 20.6897H82.7586C80.8542 20.6897 79.3103 19.1458 79.3103 17.2414C79.3103 15.3369 80.8542 13.7931 82.7586 13.7931ZM82.7586 34.4828H93.1034C95.0079 34.4828 96.5517 36.0266 96.5517 37.931C96.5517 39.8355 95.0079 41.3793 93.1034 41.3793H82.7586C80.8542 41.3793 79.3103 39.8355 79.3103 37.931C79.3103 36.0266 80.8542 34.4828 82.7586 34.4828ZM58.6207 182.759C58.6207 186.567 55.533 189.655 51.7241 189.655H17.2414C13.4325 189.655 10.3448 186.567 10.3448 182.759V148.276C10.3448 144.467 13.4325 141.379 17.2414 141.379H51.7241C55.533 141.379 58.6207 144.467 58.6207 148.276V182.759ZM58.6207 120.69C58.6207 124.499 55.533 127.586 51.7241 127.586H17.2414C13.4325 127.586 10.3448 124.499 10.3448 120.69V86.2069C10.3448 82.398 13.4325 79.3103 17.2414 79.3103H51.7241C55.533 79.3103 58.6207 82.398 58.6207 86.2069V120.69ZM72.4138 65.5172C72.4138 69.3261 69.3261 72.4138 65.5172 72.4138H17.2414C13.4325 72.4138 10.3448 69.3261 10.3448 65.5172V17.2414C10.3448 13.4325 13.4325 10.3448 17.2414 10.3448H65.5172C69.3261 10.3448 72.4138 13.4325 72.4138 17.2414V65.5172ZM124.138 182.759C124.138 186.567 121.05 189.655 117.241 189.655H82.7586C78.9498 189.655 75.8621 186.567 75.8621 182.759V148.276C75.8621 144.467 78.9498 141.379 82.7586 141.379H117.241C121.05 141.379 124.138 144.467 124.138 148.276V182.759ZM124.138 120.69C124.138 124.499 121.05 127.586 117.241 127.586H82.7586C78.9498 127.586 75.8621 124.499 75.8621 120.69V86.2069C75.8621 82.398 78.9498 79.3103 82.7586 79.3103H117.241C121.05 79.3103 124.138 82.398 124.138 86.2069V120.69ZM79.3103 65.5172C79.3103 63.6128 80.8542 62.069 82.7586 62.069H93.1034C95.0079 62.069 96.5517 63.6128 96.5517 65.5172C96.5517 67.4217 95.0079 68.9655 93.1034 68.9655H82.7586C80.8542 68.9655 79.3103 67.4217 79.3103 65.5172ZM131.034 68.9655H106.897C104.992 68.9655 103.448 67.4217 103.448 65.5172C103.448 63.6128 104.992 62.069 106.897 62.069H131.034C132.939 62.069 134.483 63.6128 134.483 65.5172C134.483 67.4217 132.939 68.9655 131.034 68.9655ZM137.931 55.1724H82.7586C80.8542 55.1724 79.3103 53.6286 79.3103 51.7241C79.3103 49.8197 80.8542 48.2759 82.7586 48.2759H137.931C139.835 48.2759 141.379 49.8197 141.379 51.7241C141.379 53.6286 139.835 55.1724 137.931 55.1724ZM189.655 182.759C189.655 186.567 186.567 189.655 182.759 189.655H148.276C144.467 189.655 141.379 186.567 141.379 182.759V148.276C141.379 144.467 144.467 141.379 148.276 141.379H182.759C186.567 141.379 189.655 144.467 189.655 148.276V182.759ZM189.655 120.69C189.655 124.499 186.567 127.586 182.759 127.586H148.276C144.467 127.586 141.379 124.499 141.379 120.69V86.2069C141.379 82.398 144.467 79.3103 148.276 79.3103H182.759C186.567 79.3103 189.655 82.398 189.655 86.2069V120.69ZM188.645 18.2517C189.541 19.1175 189.901 20.3996 189.585 21.6052C189.27 22.8108 188.328 23.7524 187.122 24.0679C185.917 24.3835 184.635 24.024 183.769 23.1276L182.759 22.1172L181.748 23.1276C180.395 24.4344 178.245 24.4157 176.914 23.0856C175.584 21.7555 175.566 19.6048 176.872 18.2517L177.883 17.2414L176.872 16.231C175.566 14.878 175.584 12.7273 176.914 11.3972C178.245 10.0671 180.395 10.0484 181.748 11.3552L182.759 12.3655L183.769 11.3552C184.635 10.4588 185.917 10.0993 187.122 10.4148C188.328 10.7304 189.27 11.6719 189.585 12.8776C189.901 14.0832 189.541 15.3653 188.645 16.231L187.634 17.2414L188.645 18.2517Z" fill="url(#paint8_linear)"/>
<defs>
<linearGradient id="paint0_linear" x1="151.134" y1="27.0996" x2="33.8035" y2="156.274" gradientUnits="userSpaceOnUse">
<stop stop-color="#F26E50"/>
<stop offset="1" stop-color="#E86F8C"/>
</linearGradient>
<linearGradient id="paint1_linear" x1="151.134" y1="27.0996" x2="33.8035" y2="156.274" gradientUnits="userSpaceOnUse">
<stop stop-color="#F26E50"/>
<stop offset="1" stop-color="#E86F8C"/>
</linearGradient>
<linearGradient id="paint2_linear" x1="151.134" y1="27.0996" x2="33.8035" y2="156.274" gradientUnits="userSpaceOnUse">
<stop stop-color="#F26E50"/>
<stop offset="1" stop-color="#E86F8C"/>
</linearGradient>
<linearGradient id="paint3_linear" x1="151.134" y1="27.0996" x2="33.8035" y2="156.274" gradientUnits="userSpaceOnUse">
<stop stop-color="#F26E50"/>
<stop offset="1" stop-color="#E86F8C"/>
</linearGradient>
<linearGradient id="paint4_linear" x1="151.134" y1="27.0996" x2="33.8035" y2="156.274" gradientUnits="userSpaceOnUse">
<stop stop-color="#F26E50"/>
<stop offset="1" stop-color="#E86F8C"/>
</linearGradient>
<linearGradient id="paint5_linear" x1="151.134" y1="27.0996" x2="33.8035" y2="156.274" gradientUnits="userSpaceOnUse">
<stop stop-color="#F26E50"/>
<stop offset="1" stop-color="#E86F8C"/>
</linearGradient>
<linearGradient id="paint6_linear" x1="151.134" y1="27.0996" x2="33.8035" y2="156.274" gradientUnits="userSpaceOnUse">
<stop stop-color="#F26E50"/>
<stop offset="1" stop-color="#E86F8C"/>
</linearGradient>
<linearGradient id="paint7_linear" x1="151.134" y1="27.0996" x2="33.8035" y2="156.274" gradientUnits="userSpaceOnUse">
<stop stop-color="#F26E50"/>
<stop offset="1" stop-color="#E86F8C"/>
</linearGradient>
<linearGradient id="paint8_linear" x1="151.134" y1="27.0996" x2="33.8035" y2="156.274" gradientUnits="userSpaceOnUse">
<stop stop-color="#F26E50"/>
<stop offset="1" stop-color="#E86F8C"/>
</linearGradient>
</defs>
</svg>
