<svg width="64" height="64" viewBox="0 0 64 64" fill="none" xmlns="http://www.w3.org/2000/svg">
<path d="M39.3846 27.077C39.3846 23.0051 36.0719 19.6924 32 19.6924C28.479 19.6924 25.4318 22.1974 24.7539 25.6485C24.4918 26.9825 25.3609 28.2763 26.6949 28.5382C28.0295 28.8002 29.3227 27.9312 29.5846 26.5972C29.8102 25.4489 30.826 24.6155 32 24.6155C33.3573 24.6155 34.4615 25.7197 34.4615 27.077C34.4615 28.4343 33.3573 29.5385 32 29.5385C30.6406 29.5385 29.5385 30.6406 29.5385 32.0001C29.5385 33.3595 30.6406 34.4616 32 34.4616C33.3573 34.4616 34.4615 35.5659 34.4615 36.9232C34.4615 38.2804 33.3573 39.3847 32 39.3847C30.7786 39.3847 29.7306 38.4754 29.5624 37.2694C29.5465 37.156 29.5385 37.0395 29.5385 36.9232C29.5385 35.5637 28.4363 34.4616 27.0769 34.4616C25.7175 34.4616 24.6154 35.5637 24.6154 36.9232C24.6154 37.2666 24.6393 37.6121 24.6866 37.9501C25.1924 41.5746 28.3364 44.3078 32 44.3078C36.0719 44.3078 39.3846 40.995 39.3846 36.9232C39.3846 35.0332 38.6703 33.3076 37.4983 32.0001C38.6703 30.6925 39.3846 28.967 39.3846 27.077Z" fill="white"/>
<path d="M32 64C14.3552 64 0 49.6448 0 32C0 14.3552 14.3552 0 32 0C33.3594 0 34.4615 1.10211 34.4615 2.46154V7.38462C34.4615 8.74404 33.3594 9.84615 32 9.84615C19.7844 9.84615 9.84615 19.7844 9.84615 32C9.84615 44.2156 19.7844 54.1538 32 54.1538C44.2156 54.1538 54.1538 44.2156 54.1538 32C54.1538 30.6406 55.256 29.5385 56.6154 29.5385H61.5385C62.8979 29.5385 64 30.6406 64 32C64 49.6448 49.6448 64 32 64Z" fill="white"/>
</svg>
