<svg width="64" height="64" viewBox="0 0 64 64" fill="none" xmlns="http://www.w3.org/2000/svg">
<path d="M35.8311 54.8501C36.3477 54.8379 36.7886 54.4731 36.8975 53.9678C36.9341 53.7827 36.9854 53.6035 37.0322 53.4219C37.0601 53.313 37.0815 53.2012 37.1138 53.0947C37.1362 53.0161 37.1675 52.9419 37.1914 52.8662C37.8022 50.9531 38.9609 49.2612 40.5239 48H33.7593C33.6084 48.6992 33.5034 49.3931 33.4224 50.0859C33.4063 50.2241 33.3911 50.3623 33.3789 50.5005C33.3115 51.1865 33.2646 51.8721 33.2646 52.5713C33.2646 52.9863 33.292 53.3862 33.3306 53.7793C33.3662 54.1108 33.4175 54.4409 33.4829 54.7705C33.4883 54.7988 33.4917 54.8286 33.4976 54.8569H35.7832C35.8037 54.8569 35.8164 54.8501 35.8311 54.8501Z" fill="white"/>
<path d="M36.8223 6.51416C36.8564 6.2627 36.8906 6.02295 36.9478 5.78271C36.9707 5.64551 37.0166 5.50879 37.0508 5.37158C37.1079 5.1543 37.165 4.93701 37.2451 4.72021C37.2876 4.58398 37.3374 4.45068 37.3936 4.31982C37.4736 4.11426 37.5537 3.90869 37.645 3.71436C37.7021 3.58838 37.7705 3.45166 37.8276 3.32568C37.9307 3.13135 38.0449 2.93701 38.1479 2.75439C38.228 2.62842 38.2964 2.51416 38.3652 2.3999C38.4907 2.20557 38.6392 2.01123 38.7764 1.82861C38.8452 1.72559 38.9136 1.63428 38.9937 1.53125C39.1797 1.2998 39.3779 1.07861 39.5879 0.868652C39.6338 0.822754 39.668 0.777344 39.7021 0.742676C39.9512 0.491699 40.2144 0.254883 40.4907 0.0341798L40.5249 0H8.125C3.70654 0 0.125 3.58154 0.125 8C0.125 12.4185 3.70654 16 8.125 16H40.5249C38.1055 14.0488 36.6982 11.1084 36.6963 8C36.6963 7.62158 36.7192 7.24414 36.7651 6.86865C36.7764 6.75439 36.7993 6.62842 36.8223 6.51416V6.51416ZM8.125 4.57129C6.56006 4.5708 5.19238 5.62793 4.79932 7.14307C4.67334 7.646 4.22119 7.99951 3.70215 8C3.34814 8.00049 3.01416 7.8374 2.79736 7.55762C2.58057 7.27832 2.50488 6.91406 2.59375 6.57129C3.24463 4.04883 5.52002 2.28613 8.125 2.28564C8.75635 2.28564 9.26807 2.79736 9.26807 3.42871C9.26807 4.05957 8.75635 4.57129 8.125 4.57129ZM16.125 4.57129H12.6963C12.0654 4.57129 11.5537 4.05957 11.5537 3.42871C11.5537 2.79736 12.0654 2.28564 12.6963 2.28564H16.125C16.7563 2.28564 17.2681 2.79736 17.2681 3.42871C17.2681 4.05957 16.7563 4.57129 16.125 4.57129Z" fill="white"/>
<path d="M54.3286 58.8022C55.1582 57.0664 55.6177 54.3452 53.0962 51.2207C51.6475 49.2808 49.4014 48.0977 46.9819 48C46.7217 48 46.4727 48.0435 46.2178 48.0674C46.0005 48.0894 45.7788 48.0903 45.5659 48.1289C45.4063 48.1577 45.2578 48.2148 45.1021 48.2539C42.6304 48.8555 40.5903 50.5942 39.605 52.9395C39.5845 52.9888 39.5537 53.0308 39.5342 53.0801C39.4497 53.2983 39.4004 53.5371 39.334 53.7656C39.2681 53.9941 39.1831 54.209 39.1362 54.4443C38.8179 55.9683 37.5005 57.0781 35.9443 57.1328C35.8931 57.1328 35.8452 57.1465 35.7935 57.1465H34.2349C35.2119 59.2231 36.7983 60.9531 38.7832 62.105L38.8086 62.1201C39.2993 62.4102 39.8086 62.6675 40.333 62.8901C40.4038 62.9199 40.4761 62.9438 40.5469 62.9712C40.9614 63.1406 41.3901 63.2847 41.8267 63.4136C41.9751 63.457 42.1226 63.5039 42.2725 63.543C42.7617 63.6694 43.2578 63.7695 43.7583 63.8423C43.8975 63.8628 44.0371 63.8765 44.1763 63.8936C44.728 63.9609 45.2832 63.9966 45.8394 64C49.4058 63.9473 52.6602 61.9551 54.3286 58.8022V58.8022Z" fill="white"/>
<path d="M12.6963 64H37.4619C34.3354 62.1909 32.1128 59.1509 31.3364 55.623C31.2905 55.417 31.2451 55.2114 31.2109 55.0059C31.165 54.7544 31.1191 54.4912 31.085 54.2285C31.0166 53.6787 30.9824 53.1255 30.9819 52.5713C30.9819 51.9541 31.0166 51.3486 31.062 50.7314C31.0737 50.5259 31.0962 50.3086 31.1191 50.103C31.165 49.7144 31.2109 49.3145 31.2793 48.9258C31.3135 48.6743 31.3477 48.4116 31.3936 48.1484C31.4966 47.6343 31.6108 47.1084 31.748 46.5713C31.9424 45.8174 32.1592 45.063 32.4336 44.3086C31.8164 44.9028 31.3135 45.4399 30.9248 45.8745C30.9136 45.8857 30.9136 45.897 30.9023 45.897C30.7422 46.0801 30.5937 46.2515 30.4678 46.3999C30.4595 46.417 30.4478 46.4326 30.4336 46.4458C30.3193 46.583 30.2163 46.7085 30.1362 46.8228L30.0791 46.8799C30.0107 46.9829 29.9424 47.063 29.8965 47.1313C29.8735 47.1543 29.8623 47.1772 29.8506 47.1885C29.8135 47.2397 29.7793 47.2935 29.748 47.3486L29.7134 47.3828C29.7021 47.4058 29.6909 47.417 29.6909 47.4287C29.6909 47.4399 29.668 47.4517 29.668 47.4517C29.6562 47.4731 29.6406 47.4927 29.6221 47.5088C29.6021 47.541 29.5791 47.5718 29.5537 47.6001C29.5146 47.6445 29.4727 47.6865 29.4277 47.7256C29.4165 47.7373 29.3936 47.7485 29.3823 47.7598C29.3584 47.7827 29.3315 47.8022 29.3022 47.8174C29.2446 47.8545 29.1836 47.8853 29.1191 47.9087C29.1079 47.9087 29.1079 47.9199 29.0962 47.9199C29.085 47.9199 29.0737 47.9316 29.062 47.9316C29.0508 47.9316 29.0278 47.9429 29.0049 47.9541C28.9194 47.9775 28.8311 47.9893 28.7422 47.9888C28.731 47.9888 28.708 48 28.6963 48H28.6851C28.6621 48 28.6621 47.9888 28.6392 47.9888C28.5298 47.9917 28.4209 47.9727 28.3193 47.9316C28.3076 47.9316 28.3076 47.9199 28.2964 47.9199H28.2852C28.1553 47.8755 28.0381 47.8008 27.9424 47.7026C27.9097 47.6782 27.8823 47.647 27.8623 47.6113C27.7925 47.541 27.7344 47.46 27.6909 47.3716C27.667 47.3276 27.6475 47.2817 27.6338 47.2344L27.5991 47.1313C27.5767 47.1084 27.5767 47.0742 27.5649 47.04C27.5537 47.0059 27.5767 46.9941 27.5649 46.9829C27.5767 46.8691 27.5801 46.7544 27.5767 46.6401C28.1021 41.5869 29.8091 36.7285 32.5591 32.457C37.1289 25.0967 44.1328 19.5688 52.3535 16.8345C54.0103 14.1802 54.9185 11.1279 54.9819 8C54.9819 3.58154 51.4004 0 46.9819 0C42.564 0 38.9819 3.58154 38.9819 8C38.9819 12.4185 42.564 16 46.9819 16C47.6133 16 48.125 16.5117 48.125 17.1431C48.1211 17.522 47.9336 17.8755 47.6221 18.0913C47.4336 18.2202 47.2104 18.2881 46.9819 18.2856H11.9077C10.7739 21.0151 9.40137 23.6387 7.80518 26.1255C7.13086 27.2573 6.43359 28.4116 5.75928 29.623C2.45557 35.167 0.545898 41.4302 0.193359 47.8745C0.147949 48.6514 0.125 49.4629 0.125 50.2856C0.125 57.3369 6.23926 64 12.6963 64V64ZM8.15918 30.583C8.22852 30.3057 8.3999 30.0649 8.63916 29.9087L10.8564 28.4229C11.9702 27.6792 13.4224 27.6792 14.5366 28.4229L15.5537 29.0972C15.8965 29.3374 16.3535 29.3374 16.6963 29.0972L17.7134 28.4229C18.8276 27.6792 20.2798 27.6792 21.3936 28.4229L22.4106 29.0972C22.7539 29.3374 23.2104 29.3374 23.5537 29.0972L24.5708 28.4229C25.6846 27.6792 27.1367 27.6792 28.2505 28.4229L30.4678 29.9087C30.9414 30.2163 31.1128 30.8281 30.8677 31.3369C30.8457 31.3892 30.8188 31.4385 30.7881 31.4858C30.5776 31.8052 30.2217 31.998 29.8394 32C29.6147 32.0024 29.3945 31.9346 29.2109 31.8057L26.9819 30.3315C26.6392 30.0913 26.1826 30.0913 25.8394 30.3315L24.8223 31.0059C23.708 31.7495 22.2563 31.7495 21.1421 31.0059L20.125 30.3315C19.7817 30.0913 19.3252 30.0913 18.9819 30.3315L17.9648 31.0059C16.8511 31.7495 15.3989 31.7495 14.2852 31.0059L13.2681 30.3315C12.9248 30.0913 12.4683 30.0913 12.125 30.3315L9.89648 31.8057C9.64551 31.9741 9.3374 32.0352 9.04102 31.9751C8.74463 31.915 8.48486 31.7388 8.31934 31.4858C8.14453 31.2192 8.08643 30.8931 8.15918 30.583ZM5.21094 37.9087L7.42773 36.4229C8.54199 35.6792 9.99365 35.6792 11.1079 36.4229L12.125 37.0972C12.4683 37.3374 12.9248 37.3374 13.2681 37.0972L14.2852 36.4229C15.3989 35.6792 16.8511 35.6792 17.9648 36.4229L18.9819 37.0972C19.3252 37.3374 19.7817 37.3374 20.125 37.0972L21.1421 36.4229C22.2563 35.6792 23.708 35.6792 24.8223 36.4229L27.0391 37.9087C27.4551 38.188 27.6406 38.7061 27.4966 39.186C27.3521 39.666 26.9121 39.9961 26.4106 40C26.186 40.0024 25.9663 39.9346 25.7822 39.8057L23.5537 38.3315C23.2104 38.0913 22.7539 38.0913 22.4106 38.3315L21.3936 39.0059C20.2798 39.7495 18.8276 39.7495 17.7134 39.0059L16.6963 38.3315C16.3535 38.0913 15.8965 38.0913 15.5537 38.3315L14.5366 39.0059C13.4224 39.7495 11.9702 39.7495 10.8564 39.0059L9.83936 38.3315C9.49609 38.0913 9.03955 38.0913 8.69629 38.3315L6.46777 39.8057C6.12988 40.0776 5.66748 40.1353 5.27344 39.9541C4.87939 39.7729 4.62207 39.3843 4.6084 38.9507C4.59521 38.5171 4.82861 38.1138 5.21094 37.9087V37.9087ZM2.9248 47.0513L5.14209 45.5659C6.25635 44.8223 7.70801 44.8223 8.82227 45.5659L9.83936 46.2402C10.1826 46.48 10.6392 46.48 10.9819 46.2402L11.9995 45.5659C13.1133 44.8223 14.5654 44.8223 15.6792 45.5659L16.6963 46.2402C17.0396 46.48 17.4961 46.48 17.8394 46.2402L18.8564 45.5659C19.9702 44.8223 21.4224 44.8223 22.5366 45.5659L24.7534 47.0513C24.8335 47.103 24.9062 47.1646 24.9707 47.2344C25.2729 47.5693 25.3501 48.0508 25.167 48.4629C24.9844 48.8755 24.5762 49.1416 24.125 49.1431C23.9004 49.1455 23.6807 49.0776 23.4966 48.9487L21.2681 47.4741C20.9248 47.2344 20.4683 47.2344 20.125 47.4741L19.1079 48.1484C17.9937 48.8921 16.542 48.8921 15.4277 48.1484L14.4106 47.4741C14.0674 47.2344 13.6108 47.2344 13.2681 47.4741L12.2505 48.1484C11.1367 48.8921 9.68457 48.8921 8.5708 48.1484L7.55371 47.4741C7.21045 47.2344 6.75391 47.2344 6.41064 47.4741L4.18213 48.9487C3.93115 49.1177 3.62305 49.1792 3.32666 49.1187C3.03027 49.0586 2.77002 48.8818 2.60498 48.6284C2.48096 48.4424 2.41357 48.2236 2.41064 48C2.4126 47.6177 2.60547 47.2617 2.9248 47.0513V47.0513Z" fill="white"/>
<path d="M30.6392 40.7539C34.7651 34.4224 43.7251 24.251 61.5308 17.291C42.3306 18.8794 33.9536 32.5708 30.6392 40.7539V40.7539Z" fill="white"/>
<path d="M63.8623 18.8691C44.0107 26.2061 35.1191 37.5547 31.645 43.4521C35.9468 39.46 40.7124 35.999 45.8394 33.1436C52.5601 29.3628 58.6426 24.5454 63.8623 18.8691V18.8691Z" fill="white"/>
</svg>
