<svg width="30" height="30" viewBox="0 0 30 30" fill="none" xmlns="http://www.w3.org/2000/svg">
<g clip-path="url(#clip0)">
<path d="M20.0008 0.857239L18.2504 5.7106C19.8661 11.0428 19.8661 18.9572 18.2504 24.2896L20.0008 29.1425C25.8259 27.0827 30 21.5301 30 14.9995C30 8.46991 25.8259 2.91709 20.0008 0.857239Z" fill="#E61E25"/>
<path d="M20.0007 5.71054V0.857182C18.4364 0.303965 16.7539 9.15527e-05 14.9998 9.15527e-05C17.3128 9.15527e-05 14.1057 7.83905 20.0007 5.71054Z" fill="#E4E4E4"/>
<path d="M14.9998 29.9999C16.7538 29.9999 18.4364 29.696 20.0007 29.1427V24.2898C14.165 23.7074 14.9998 29.9999 14.9998 29.9999Z" fill="#E4E4E4"/>
<path d="M0 14.9997C0 21.5521 4.20249 27.1193 10.0577 29.1625V0.83783C4.20249 2.88103 0 8.44822 0 14.9997Z" fill="#3757A6"/>
<path d="M20.0008 5.7106V24.2896C21.6168 18.9572 21.6168 11.0428 20.0008 5.7106Z" fill="#EF4F4E"/>
<path d="M20.0008 24.2898V5.71054C18.9795 2.33937 17.3128 9.15527e-05 14.9998 9.15527e-05C13.2676 9.15527e-05 11.6057 0.297568 10.0577 0.837802V29.1626C11.6057 29.7029 13.2676 29.9999 14.9998 29.9999C17.3128 29.9998 18.9795 27.6606 20.0008 24.2898Z" fill="#F3F4F5"/>
</g>
<defs>
<clipPath id="clip0">
<rect width="30" height="30" fill="white"/>
</clipPath>
</defs>
</svg>
