<svg width="38" height="38" viewBox="0 0 38 38" fill="none" xmlns="http://www.w3.org/2000/svg">
<path d="M12.719 23.4128C13.5589 27.5187 18.2514 36.556 15.7552 36.4415C11.2167 36.2333 2.20519 29.5806 1.26489 23.7324C-0.0559183 18.1745 12.3364 0.99168 15.7404 1.14783C18.9174 1.29358 11.6227 15.027 12.719 23.4128Z" fill="white"/>
<path d="M28.8409 21.196C29.6068 24.3523 24.8323 36.8579 26.8747 36.9516C28.917 37.0453 36.8518 26.0517 35.6509 21.4508C34.7782 18.1071 20.2606 1.83535 17.6911 3.63818C16.4536 4.50646 19.8138 7.57698 23.0803 11.3282C25.9113 14.5792 28.075 18.0397 28.8409 21.196Z" fill="white"/>
<path d="M27.4793 21.1335C28.5275 25.2568 24.3601 37.3165 22.1092 36.733C19.8582 36.1496 23.7731 28.8864 20.3621 22.9678C18.1309 19.0963 17.7144 14.9234 17.116 12.7352C16.3183 9.81751 16.2288 6.21207 17.5812 6.5142C18.9336 6.81633 26.4913 17.2468 27.4793 21.1335Z" fill="white"/>
<path d="M31.1877 7.37849C24.8267 1.32455 16.9025 0.48085 18.4452 1.75206C19.9879 3.02328 30.3055 9.5685 34.4521 17.1318C38.5986 24.6951 37.5487 13.4324 31.1877 7.37849Z" fill="white"/>
<path d="M13.9532 24.1143C12.6443 20.7108 15.2569 7.84811 16.2083 12.6935C17.1597 17.539 16.8962 18.4872 19.5139 23.2232C22.5975 29.2914 20.248 37.8481 18.7053 36.5769C17.1626 35.3057 16.0209 29.4911 13.9532 24.1143Z" fill="white"/>
</svg>
