<svg width="30" height="30" viewBox="0 0 30 30" fill="none" xmlns="http://www.w3.org/2000/svg">
<g clip-path="url(#clip0)">
<path d="M29.9331 16.403H0.0671387V16.4034H29.9331V16.403Z" fill="#C42126"/>
<path d="M28.3766 8.21445H1.62292V8.21489H28.3766V8.21445Z" fill="#C42126"/>
<path d="M29.4389 10.9435H0.558472V10.944H29.4389V10.9435Z" fill="#C42126"/>
<path d="M6.44687 27.3199H23.5531L23.554 27.3189H6.44592L6.44687 27.3199Z" fill="#C42126"/>
<path d="M14.9999 0C14.7053 0 14.413 0.0106402 14.1229 0.0272337H15.8771C15.5867 0.0106402 15.2945 0 14.9999 0Z" fill="#C42126"/>
<path d="M29.9371 13.6732H0.0616455V13.6737H29.9371V13.6732Z" fill="#C42126"/>
<path d="M19.4333 5.48532H26.5959C25.7452 4.44961 24.7564 3.53278 23.6609 2.75662H18.2825C18.7275 3.53962 19.1103 4.46355 19.4333 5.48532Z" fill="#E7E7E7"/>
<path d="M18.2823 2.75664H23.6609C21.4374 1.18095 18.7678 0.194201 15.8769 0.0272522H15.415C16.7757 0.198508 17.4007 1.20552 18.2823 2.75664Z" fill="#DC3027"/>
<path d="M29.4409 10.9438C29.1742 9.99263 28.8166 9.08004 28.377 8.21509H20.1367C20.3037 9.09119 20.4354 10.0063 20.5329 10.9438H29.4409Z" fill="#E7E7E7"/>
<path d="M19.6729 8.21464H28.3764C27.8804 7.2391 27.2846 6.32367 26.5958 5.4855H18.9929C19.261 6.33412 19.4886 7.24955 19.6729 8.21464Z" fill="#DC3027"/>
<path d="M20.8484 16.4023H29.9325C29.9756 15.9407 30 15.4729 30 15.0002C30 14.5528 29.9766 14.1111 29.9382 13.6734H20.8505C20.8801 14.581 20.8796 15.4952 20.8484 16.4023Z" fill="#E7E7E7"/>
<path d="M29.9384 13.673C29.8562 12.7358 29.6873 11.824 29.4408 10.9443H20.1501C20.2434 11.8379 20.3051 12.7521 20.3351 13.673H29.9384Z" fill="#DC3027"/>
<path d="M19.9799 21.8609H28.3376C28.7833 20.9968 29.1466 20.0836 29.419 19.1317H20.3839C20.2844 20.0706 20.1494 20.9855 19.9799 21.8609Z" fill="#E7E7E7"/>
<path d="M29.4193 19.1315C29.6711 18.2521 29.8459 17.3403 29.9328 16.4028H20.5654C20.5334 17.3244 20.4699 18.2384 20.3748 19.1315H29.4193Z" fill="#DC3027"/>
<path d="M23.5536 27.3189C24.6649 26.5459 25.6677 25.6281 26.5319 24.5902H19.4942C19.1652 25.6163 18.7746 26.5387 18.3215 27.3189H23.5536Z" fill="#E7E7E7"/>
<path d="M19.2297 24.59H26.5323C27.2291 23.7528 27.834 22.8374 28.3373 21.8609H19.9182C19.7314 22.8267 19.5014 23.7426 19.2297 24.59Z" fill="#DC3027"/>
<path d="M14.4562 29.9893C14.4258 29.9884 14.3956 29.987 14.3652 29.9861C14.3956 29.9869 14.4259 29.9884 14.4562 29.9893Z" fill="#DC3027"/>
<path d="M14.9994 30C18.1795 30 21.126 29.0074 23.5528 27.3199H18.1241C17.1605 28.9799 16.5249 30 14.9994 30Z" fill="#DC3027"/>
<path d="M14.9997 30C14.8176 30 14.6366 29.9957 14.4562 29.9893C14.6385 29.9955 14.8197 30 14.9997 30Z" fill="#C42126"/>
<path d="M18.7791 2.75662H6.33916C5.24354 3.53278 4.25495 4.44955 3.40393 5.48532H19.9297C19.6066 4.46355 19.2241 3.53962 18.7791 2.75662Z" fill="#F3F4F5"/>
<path d="M6.33972 2.75664H18.7797C17.8979 1.20552 16.7765 0.198508 15.4158 0.0272522H14.1233C11.2324 0.194201 8.56295 1.18095 6.33972 2.75664Z" fill="#E73625"/>
<path d="M0.559082 10.9438H21.0053C20.9077 10.0061 20.776 9.09119 20.6091 8.21509H1.62297C1.18337 9.08011 0.825783 9.99263 0.559082 10.9438Z" fill="#F3F4F5"/>
<path d="M3.40386 5.48532C2.71561 6.32349 2.11925 7.23886 1.62354 8.21447H20.6094C20.4253 7.24957 20.1978 6.33419 19.9296 5.48532C19.9296 5.48532 3.40386 5.48532 3.40386 5.48532Z" fill="#E73625"/>
<path d="M0 15.0002C0 15.4729 0.024637 15.9407 0.0675144 16.4023H21.1889C21.2202 15.4952 21.2207 14.5812 21.1911 13.6736H0.0618143C0.0234337 14.1111 0 14.5528 0 15.0002Z" fill="#F3F4F5"/>
<path d="M0.0616455 13.673H21.1907C21.1606 12.7519 21.0988 11.838 21.0057 10.9443H0.55901C0.312449 11.8241 0.1436 12.7358 0.0616455 13.673Z" fill="#E73625"/>
<path d="M20.9984 19.1315H0.581055C0.853456 20.0836 1.21699 20.9967 1.66249 21.8607H20.5943C20.7639 20.9855 20.8986 20.0706 20.9984 19.1315Z" fill="#F3F4F5"/>
<path d="M0.5812 19.1315H20.9985C21.0935 18.2384 21.1572 17.3242 21.1892 16.4028H0.067749C0.154644 17.3405 0.3297 18.2521 0.5812 19.1315Z" fill="#E73625"/>
<path d="M6.44631 27.3189H18.7337C19.1868 26.5385 19.5776 25.6163 19.9064 24.5902H3.46802C4.33228 25.6281 5.3348 26.5459 6.44631 27.3189Z" fill="#F3F4F5"/>
<path d="M1.6626 21.8608C2.16592 22.8373 2.77076 23.7528 3.46756 24.59H19.9059C20.1774 23.7426 20.4073 22.8267 20.5942 21.8608H1.6626Z" fill="#E73625"/>
<path d="M14.3649 29.986C14.3952 29.987 14.4255 29.9883 14.4559 29.9893C14.6364 29.9957 14.8173 29.9999 14.9994 29.9999C16.5249 29.9999 17.7688 28.9799 18.7325 27.3198H6.44653C8.71054 28.8944 11.4281 29.8636 14.3649 29.986Z" fill="#E73625"/>
<path d="M14.6901 0.0078125C7.00337 0.164185 0.738344 6.09918 0.0640869 13.6486H14.6903V0.0078125H14.6901Z" fill="#283991"/>
<path d="M3.00142 8.49866L3.22993 9.2023H3.97031L3.37136 9.63741L3.60012 10.3416L3.00142 9.9062L2.40291 10.3416L2.63123 9.63741L2.03247 9.2023H2.77285L3.00142 8.49866Z" fill="#EFEFEF"/>
<path d="M3.00142 10.9846L3.22993 11.6887H3.97031L3.37136 12.1238L3.60012 12.828L3.00142 12.3926L2.40291 12.828L2.63123 12.1238L2.03247 11.6887H2.77285L3.00142 10.9846Z" fill="#EFEFEF"/>
<path d="M5.48764 4.76883L5.71621 5.47273H6.45634L5.85757 5.90809L6.08615 6.61173L5.48764 6.17688L4.88887 6.61173L5.11745 5.90809L4.51843 5.47273H5.25881L5.48764 4.76883Z" fill="#EFEFEF"/>
<path d="M5.48764 7.25522L5.71621 7.95912H6.45634L5.85757 8.39397L6.08615 9.09812L5.48764 8.66327L4.88887 9.09812L5.11745 8.39397L4.51843 7.95912H5.25881L5.48764 7.25522Z" fill="#EFEFEF"/>
<path d="M5.48764 9.74158L5.71621 10.4457H6.45634L5.85757 10.8803L6.08615 11.5845L5.48764 11.1492L4.88887 11.5845L5.11745 10.8803L4.51843 10.4457H5.25881L5.48764 9.74158Z" fill="#EFEFEF"/>
<path d="M1.11366 11.5845L0.884895 10.8804L1.48366 10.4455H0.743722L0.727129 10.3941C0.64587 10.6454 0.572465 10.8998 0.504761 11.157L0.515211 11.1492L1.11366 11.5845Z" fill="#EFEFEF"/>
<path d="M2.40313 7.85518L3.00164 7.41988L3.60041 7.85518L3.37164 7.15103L3.97041 6.71573H3.23003L3.00145 6.01208L2.77288 6.71573H2.50004C2.44937 6.79249 2.40035 6.8697 2.35107 6.9476L2.63152 7.15103L2.40313 7.85518Z" fill="#EFEFEF"/>
<path d="M5.48758 3.69051L6.08608 4.12536L5.85751 3.42172L6.45602 2.98642H6.02851C5.66542 3.25787 5.31512 3.54515 4.97856 3.84827L4.88831 4.12536L5.48758 3.69051Z" fill="#EFEFEF"/>
<path d="M7.37488 2.8824L7.97367 2.44711L8.57221 2.8824L8.34362 2.17825L8.94216 1.7434H8.202L8.17097 1.64865C7.92015 1.77678 7.67193 1.91009 7.42935 2.05196L7.60321 2.17819L7.37488 2.8824Z" fill="#EFEFEF"/>
<path d="M7.97418 3.52591L8.20277 4.22936H8.94292L8.34413 4.66466L8.57272 5.36881L7.97418 4.93345L7.3754 5.36881L7.60398 4.66466L7.005 4.22936H7.74535L7.97418 3.52591Z" fill="#EFEFEF"/>
<path d="M7.97418 6.01227L8.20277 6.71572H8.94292L8.34413 7.15102L8.57272 7.85517L7.97418 7.41981L7.3754 7.85517L7.60398 7.15102L7.005 6.71572H7.74535L7.97418 6.01227Z" fill="#EFEFEF"/>
<path d="M7.97418 8.49866L8.20277 9.2023H8.94292L8.34413 9.63741L8.57272 10.3416L7.97418 9.9062L7.3754 10.3416L7.60398 9.63741L7.005 9.2023H7.74535L7.97418 8.49866Z" fill="#EFEFEF"/>
<path d="M7.97418 10.9846L8.20277 11.6887H8.94292L8.34413 12.1238L8.57272 12.828L7.97418 12.3926L7.3754 12.828L7.60398 12.1238L7.005 11.6887H7.74535L7.97418 10.9846Z" fill="#EFEFEF"/>
<path d="M10.4607 2.28244L10.6893 2.98634H11.4294L10.8309 3.4217L11.0592 4.12535L10.4607 3.69049L9.86177 4.12535L10.0905 3.4217L9.49158 2.98634H10.2319L10.4607 2.28244Z" fill="#EFEFEF"/>
<path d="M10.4607 4.76883L10.6893 5.47273H11.4294L10.8309 5.90809L11.0592 6.61173L10.4607 6.17688L9.86177 6.61173L10.0905 5.90809L9.49158 5.47273H10.2319L10.4607 4.76883Z" fill="#EFEFEF"/>
<path d="M10.4607 7.25522L10.6893 7.95912H11.4294L10.8309 8.39397L11.0592 9.09812L10.4607 8.66327L9.86177 9.09812L10.0905 8.39397L9.49158 7.95912H10.2319L10.4607 7.25522Z" fill="#EFEFEF"/>
<path d="M10.4607 9.74158L10.6893 10.4457H11.4294L10.8309 10.8803L11.0592 11.5845L10.4607 11.1492L9.86177 11.5845L10.0905 10.8803L9.49158 10.4457H10.2319L10.4607 9.74158Z" fill="#EFEFEF"/>
<path d="M12.9473 1.03952L13.1759 1.74342H13.916L13.3172 2.17827L13.5458 2.88242L12.9473 2.44706L12.3483 2.88242L12.5771 2.17827L11.9781 1.74342H12.7183L12.9473 1.03952Z" fill="#EFEFEF"/>
<path d="M12.9473 3.52591L13.1759 4.22936H13.916L13.3172 4.66466L13.5458 5.36881L12.9473 4.93345L12.3483 5.36881L12.5771 4.66466L11.9781 4.22936H12.7183L12.9473 3.52591Z" fill="#EFEFEF"/>
<path d="M12.9473 6.01227L13.1759 6.71572H13.916L13.3172 7.15102L13.5458 7.85517L12.9473 7.41981L12.3483 7.85517L12.5771 7.15102L11.9781 6.71572H12.7183L12.9473 6.01227Z" fill="#EFEFEF"/>
<path d="M12.9473 8.49866L13.1759 9.2023H13.916L13.3172 9.63741L13.5458 10.3416L12.9473 9.9062L12.3483 10.3416L12.5771 9.63741L11.9781 9.2023H12.7183L12.9473 8.49866Z" fill="#EFEFEF"/>
<path d="M12.9473 10.9846L13.1759 11.6887H13.916L13.3172 12.1238L13.5458 12.828L12.9473 12.3926L12.3483 12.828L12.5771 12.1238L11.9781 11.6887H12.7183L12.9473 10.9846Z" fill="#EFEFEF"/>
</g>
<defs>
<clipPath id="clip0">
<rect width="30" height="30" fill="white"/>
</clipPath>
</defs>
</svg>
