<svg width="1091" height="445" viewBox="0 0 1091 445" fill="none" xmlns="http://www.w3.org/2000/svg">
<path d="M360.377 175.436C365.719 151.454 353.399 151.115 351.85 116.383C351.356 105.318 349.529 96.1407 337.459 80.2051C325.389 64.2696 316.328 65.0906 320.088 45.1019C323.848 25.1133 361.827 48.2337 388.042 45.1019C428.261 40.2972 420.38 25.9382 450.722 25.9382C466.989 25.9382 473.046 33.7012 478.289 45.1019C489.486 69.4516 526.398 42.3044 556.572 28.0916C575.06 19.3836 579.183 14.8662 594.175 25.9382C609.534 37.282 596.559 44.8065 601.035 62.643C607.173 87.0966 617.386 93.9876 641.525 105.186C659.646 113.591 676.303 109.33 692.357 99.7649C718.962 83.9118 696.963 57.9642 715.187 36.3314C736.882 10.5791 736.691 2.2506 762.223 0.0966236C779.15 -1.33137 782.603 13.3047 787.17 28.3767C792.53 46.0678 838.74 23.3456 828.533 62.643C818.327 101.94 823.213 147.348 817.863 196.061C813.565 235.195 805.221 264.126 805.221 264.126C798.646 297.823 801.106 305.754 800.164 318.636C798.778 337.586 816.96 339.9 811.343 358.394C807.239 371.906 787.875 372.121 779.649 384.501C774.372 392.443 776.886 398.61 771.054 406.326C745.931 439.567 650.255 377.606 672.212 343.096C681.678 328.22 684.234 328.714 692.357 310.194C702.106 287.967 703.981 282.454 706.052 260.234C709.002 228.584 706.981 231.809 692.357 196.061C681.08 168.495 641.452 176.47 622.028 200.799C594.175 235.685 620.203 271.863 578.761 301.715C554.087 319.49 535.211 302.667 506.222 316.173C485.538 325.809 476.335 352.138 455.19 343.096C437.762 335.644 454.505 318.04 443.909 305.158C413.435 268.111 321.396 372.24 300.749 331.47C285.104 300.577 340.815 288.279 352.588 256.411C363.865 225.882 355.034 199.418 360.377 175.436Z" fill="url(#paint0_linear)"/>
<path d="M509.222 380.827C519.364 367.988 507.604 355.113 524.487 347.379C542.141 339.292 575.251 341.567 575.251 358.394C575.251 368.768 565.857 374.798 569.571 387.288C571.623 394.191 575.251 398.055 583.962 406.326C595.65 417.423 606.115 421.725 607.75 434.881C611.132 462.078 552.28 426.893 518.578 417.34C504.926 413.47 487.82 417.044 484.198 406.326C480.326 394.867 501.208 390.972 509.222 380.827Z" fill="url(#paint1_linear)"/>
<g filter="url(#filter0_d)">
<ellipse cx="658.702" cy="144.281" rx="7.8918" ry="7.32174" fill="white"/>
</g>
<g filter="url(#filter1_d)">
<ellipse cx="564.01" cy="174.197" rx="7.8918" ry="7.32174" fill="white"/>
</g>
<g filter="url(#filter2_d)">
<ellipse cx="611.294" cy="188.972" rx="7.8918" ry="7.32174" fill="white"/>
</g>
<g filter="url(#filter3_d)">
<ellipse cx="728.892" cy="71.3217" rx="7.8918" ry="7.32174" fill="white"/>
</g>
<g filter="url(#filter4_d)">
<ellipse cx="720.907" cy="257.983" rx="7.8918" ry="7.32174" fill="white"/>
</g>
<g filter="url(#filter5_d)">
<ellipse cx="507.365" cy="205.44" rx="7.8918" ry="7.32174" fill="white"/>
</g>
<line x1="507" y1="205.5" x2="179" y2="205.5" stroke="#595757"/>
<line x1="471" y1="137.5" x2="179" y2="137.5" stroke="#595757"/>
<line x1="563.815" y1="174.465" x2="470.815" y2="137.465" stroke="#595757"/>
<line x1="987" y1="144.5" x2="659" y2="144.5" stroke="#595757"/>
<line x1="987" y1="71.5" x2="729" y2="71.5" stroke="#595757"/>
<path d="M610.613 187.136L525 64.0001" stroke="#595757"/>
<line x1="987" y1="258.5" x2="721" y2="258.5" stroke="#595757"/>
<line x1="525" y1="64.5" x2="179" y2="64.5" stroke="#595757"/>
<path d="M102.087 211.192C100.407 211.192 98.8867 210.824 97.5267 210.088C96.1827 209.336 95.1267 208.312 94.3587 207.016C93.5907 205.704 93.2067 204.232 93.2067 202.6C93.2067 200.968 93.5907 199.504 94.3587 198.208C95.1267 196.896 96.1907 195.872 97.5507 195.136C98.9107 194.384 100.431 194.008 102.111 194.008C103.423 194.008 104.623 194.232 105.711 194.68C106.799 195.112 107.727 195.76 108.495 196.624L106.935 198.136C105.671 196.808 104.095 196.144 102.207 196.144C100.959 196.144 99.8307 196.424 98.8227 196.984C97.8147 197.544 97.0227 198.32 96.4467 199.312C95.8867 200.288 95.6067 201.384 95.6067 202.6C95.6067 203.816 95.8867 204.92 96.4467 205.912C97.0227 206.888 97.8147 207.656 98.8227 208.216C99.8307 208.776 100.959 209.056 102.207 209.056C104.079 209.056 105.655 208.384 106.935 207.04L108.495 208.552C107.727 209.416 106.791 210.072 105.687 210.52C104.599 210.968 103.399 211.192 102.087 211.192ZM116.05 198.16C117.81 198.16 119.154 198.592 120.082 199.456C121.026 200.32 121.498 201.608 121.498 203.32V211H119.314V209.32C118.93 209.912 118.378 210.368 117.658 210.688C116.954 210.992 116.114 211.144 115.138 211.144C113.714 211.144 112.57 210.8 111.706 210.112C110.858 209.424 110.434 208.52 110.434 207.4C110.434 206.28 110.842 205.384 111.658 204.712C112.474 204.024 113.77 203.68 115.546 203.68H119.194V203.224C119.194 202.232 118.906 201.472 118.33 200.944C117.754 200.416 116.906 200.152 115.786 200.152C115.034 200.152 114.298 200.28 113.578 200.536C112.858 200.776 112.25 201.104 111.754 201.52L110.794 199.792C111.45 199.264 112.234 198.864 113.146 198.592C114.058 198.304 115.026 198.16 116.05 198.16ZM115.522 209.368C116.402 209.368 117.162 209.176 117.802 208.792C118.442 208.392 118.906 207.832 119.194 207.112V205.336H115.642C113.69 205.336 112.714 205.992 112.714 207.304C112.714 207.944 112.962 208.448 113.458 208.816C113.954 209.184 114.642 209.368 115.522 209.368ZM129.41 211.144C128.37 211.144 127.37 211.008 126.41 210.736C125.45 210.448 124.698 210.088 124.154 209.656L125.114 207.832C125.674 208.232 126.354 208.552 127.154 208.792C127.954 209.032 128.762 209.152 129.578 209.152C131.594 209.152 132.602 208.576 132.602 207.424C132.602 207.04 132.466 206.736 132.194 206.512C131.922 206.288 131.578 206.128 131.162 206.032C130.762 205.92 130.186 205.8 129.434 205.672C128.41 205.512 127.57 205.328 126.914 205.12C126.274 204.912 125.722 204.56 125.258 204.064C124.794 203.568 124.562 202.872 124.562 201.976C124.562 200.824 125.042 199.904 126.002 199.216C126.962 198.512 128.25 198.16 129.866 198.16C130.714 198.16 131.562 198.264 132.41 198.472C133.258 198.68 133.954 198.96 134.498 199.312L133.514 201.136C132.474 200.464 131.25 200.128 129.842 200.128C128.866 200.128 128.122 200.288 127.61 200.608C127.098 200.928 126.842 201.352 126.842 201.88C126.842 202.296 126.986 202.624 127.274 202.864C127.562 203.104 127.914 203.28 128.33 203.392C128.762 203.504 129.362 203.632 130.13 203.776C131.154 203.952 131.978 204.144 132.602 204.352C133.242 204.544 133.786 204.88 134.234 205.36C134.682 205.84 134.906 206.512 134.906 207.376C134.906 208.528 134.41 209.448 133.418 210.136C132.442 210.808 131.106 211.144 129.41 211.144ZM137.786 198.28H140.09V211H137.786V198.28ZM138.938 195.832C138.49 195.832 138.114 195.688 137.81 195.4C137.522 195.112 137.378 194.76 137.378 194.344C137.378 193.928 137.522 193.576 137.81 193.288C138.114 192.984 138.49 192.832 138.938 192.832C139.386 192.832 139.754 192.976 140.042 193.264C140.346 193.536 140.498 193.88 140.498 194.296C140.498 194.728 140.346 195.096 140.042 195.4C139.754 195.688 139.386 195.832 138.938 195.832ZM151.281 198.16C152.897 198.16 154.177 198.632 155.121 199.576C156.081 200.504 156.561 201.872 156.561 203.68V211H154.257V203.944C154.257 202.712 153.961 201.784 153.369 201.16C152.777 200.536 151.929 200.224 150.825 200.224C149.577 200.224 148.593 200.592 147.873 201.328C147.153 202.048 146.793 203.088 146.793 204.448V211H144.489V198.28H146.697V200.2C147.161 199.544 147.785 199.04 148.569 198.688C149.369 198.336 150.273 198.16 151.281 198.16ZM166.343 211.144C165.079 211.144 163.943 210.864 162.935 210.304C161.927 209.744 161.135 208.976 160.559 208C159.999 207.008 159.719 205.888 159.719 204.64C159.719 203.392 159.999 202.28 160.559 201.304C161.135 200.312 161.927 199.544 162.935 199C163.943 198.44 165.079 198.16 166.343 198.16C167.607 198.16 168.735 198.44 169.727 199C170.735 199.544 171.519 200.312 172.079 201.304C172.655 202.28 172.943 203.392 172.943 204.64C172.943 205.888 172.655 207.008 172.079 208C171.519 208.976 170.735 209.744 169.727 210.304C168.735 210.864 167.607 211.144 166.343 211.144ZM166.343 209.128C167.159 209.128 167.887 208.944 168.527 208.576C169.183 208.192 169.695 207.664 170.063 206.992C170.431 206.304 170.615 205.52 170.615 204.64C170.615 203.76 170.431 202.984 170.063 202.312C169.695 201.624 169.183 201.096 168.527 200.728C167.887 200.36 167.159 200.176 166.343 200.176C165.527 200.176 164.791 200.36 164.135 200.728C163.495 201.096 162.983 201.624 162.599 202.312C162.231 202.984 162.047 203.76 162.047 204.64C162.047 205.52 162.231 206.304 162.599 206.992C162.983 207.664 163.495 208.192 164.135 208.576C164.791 208.944 165.527 209.128 166.343 209.128Z" fill="#00AC3A"/>
<path d="M4.92 130.288V136.144H13.344V138.208H4.92V145H2.52V128.2H14.376V130.288H4.92ZM17.184 132.28H19.488V145H17.184V132.28ZM18.336 129.832C17.888 129.832 17.512 129.688 17.208 129.4C16.92 129.112 16.776 128.76 16.776 128.344C16.776 127.928 16.92 127.576 17.208 127.288C17.512 126.984 17.888 126.832 18.336 126.832C18.784 126.832 19.152 126.976 19.44 127.264C19.744 127.536 19.896 127.88 19.896 128.296C19.896 128.728 19.744 129.096 19.44 129.4C19.152 129.688 18.784 129.832 18.336 129.832ZM36.0551 132.28V143.272C36.0551 145.496 35.5031 147.136 34.3991 148.192C33.2951 149.264 31.6471 149.8 29.4551 149.8C28.2551 149.8 27.1111 149.632 26.0231 149.296C24.9351 148.976 24.0551 148.512 23.3831 147.904L24.4871 146.128C25.0791 146.64 25.8071 147.04 26.6711 147.328C27.5511 147.632 28.4551 147.784 29.3831 147.784C30.8711 147.784 31.9671 147.432 32.6711 146.728C33.3911 146.024 33.7511 144.952 33.7511 143.512V142.504C33.2071 143.16 32.5351 143.656 31.7351 143.992C30.9511 144.312 30.0951 144.472 29.1671 144.472C27.9511 144.472 26.8471 144.216 25.8551 143.704C24.8791 143.176 24.1111 142.448 23.5511 141.52C22.9911 140.576 22.7111 139.504 22.7111 138.304C22.7111 137.104 22.9911 136.04 23.5511 135.112C24.1111 134.168 24.8791 133.44 25.8551 132.928C26.8471 132.416 27.9511 132.16 29.1671 132.16C30.1271 132.16 31.0151 132.336 31.8311 132.688C32.6631 133.04 33.3431 133.56 33.8711 134.248V132.28H36.0551ZM29.4311 142.456C30.2631 142.456 31.0071 142.28 31.6631 141.928C32.3351 141.576 32.8551 141.088 33.2231 140.464C33.6071 139.824 33.7991 139.104 33.7991 138.304C33.7991 137.072 33.3911 136.08 32.5751 135.328C31.7591 134.56 30.7111 134.176 29.4311 134.176C28.1351 134.176 27.0791 134.56 26.2631 135.328C25.4471 136.08 25.0391 137.072 25.0391 138.304C25.0391 139.104 25.2231 139.824 25.5911 140.464C25.9751 141.088 26.4951 141.576 27.1511 141.928C27.8231 142.28 28.5831 142.456 29.4311 142.456ZM47.2494 132.16C48.8654 132.16 50.1454 132.632 51.0894 133.576C52.0494 134.504 52.5294 135.872 52.5294 137.68V145H50.2254V137.944C50.2254 136.712 49.9294 135.784 49.3374 135.16C48.7454 134.536 47.8974 134.224 46.7934 134.224C45.5454 134.224 44.5614 134.592 43.8414 135.328C43.1214 136.048 42.7614 137.088 42.7614 138.448V145H40.4574V127.192H42.7614V134.08C43.2414 133.472 43.8654 133 44.6334 132.664C45.4174 132.328 46.2894 132.16 47.2494 132.16ZM63.9454 144.256C63.6094 144.544 63.1934 144.768 62.6974 144.928C62.2014 145.072 61.6894 145.144 61.1614 145.144C59.8814 145.144 58.8894 144.8 58.1854 144.112C57.4814 143.424 57.1294 142.44 57.1294 141.16V134.176H54.9694V132.28H57.1294V129.496H59.4334V132.28H63.0814V134.176H59.4334V141.064C59.4334 141.752 59.6014 142.28 59.9374 142.648C60.2894 143.016 60.7854 143.2 61.4254 143.2C62.1294 143.2 62.7294 143 63.2254 142.6L63.9454 144.256ZM66.7309 132.28H69.0349V145H66.7309V132.28ZM67.8829 129.832C67.4349 129.832 67.0589 129.688 66.7549 129.4C66.4669 129.112 66.3229 128.76 66.3229 128.344C66.3229 127.928 66.4669 127.576 66.7549 127.288C67.0589 126.984 67.4349 126.832 67.8829 126.832C68.3309 126.832 68.6989 126.976 68.9869 127.264C69.2909 127.536 69.4429 127.88 69.4429 128.296C69.4429 128.728 69.2909 129.096 68.9869 129.4C68.6989 129.688 68.3309 129.832 67.8829 129.832ZM80.226 132.16C81.842 132.16 83.122 132.632 84.066 133.576C85.026 134.504 85.506 135.872 85.506 137.68V145H83.202V137.944C83.202 136.712 82.906 135.784 82.314 135.16C81.722 134.536 80.874 134.224 79.77 134.224C78.522 134.224 77.538 134.592 76.818 135.328C76.098 136.048 75.738 137.088 75.738 138.448V145H73.434V132.28H75.642V134.2C76.106 133.544 76.73 133.04 77.514 132.688C78.314 132.336 79.218 132.16 80.226 132.16ZM102.008 132.28V143.272C102.008 145.496 101.456 147.136 100.352 148.192C99.2483 149.264 97.6003 149.8 95.4083 149.8C94.2083 149.8 93.0643 149.632 91.9763 149.296C90.8883 148.976 90.0083 148.512 89.3363 147.904L90.4403 146.128C91.0323 146.64 91.7603 147.04 92.6243 147.328C93.5043 147.632 94.4083 147.784 95.3363 147.784C96.8243 147.784 97.9203 147.432 98.6243 146.728C99.3443 146.024 99.7043 144.952 99.7043 143.512V142.504C99.1603 143.16 98.4883 143.656 97.6883 143.992C96.9043 144.312 96.0483 144.472 95.1203 144.472C93.9043 144.472 92.8003 144.216 91.8083 143.704C90.8323 143.176 90.0643 142.448 89.5043 141.52C88.9443 140.576 88.6643 139.504 88.6643 138.304C88.6643 137.104 88.9443 136.04 89.5043 135.112C90.0643 134.168 90.8323 133.44 91.8083 132.928C92.8003 132.416 93.9043 132.16 95.1203 132.16C96.0803 132.16 96.9683 132.336 97.7843 132.688C98.6163 133.04 99.2963 133.56 99.8243 134.248V132.28H102.008ZM95.3843 142.456C96.2163 142.456 96.9603 142.28 97.6163 141.928C98.2883 141.576 98.8083 141.088 99.1763 140.464C99.5603 139.824 99.7523 139.104 99.7523 138.304C99.7523 137.072 99.3443 136.08 98.5283 135.328C97.7123 134.56 96.6643 134.176 95.3843 134.176C94.0883 134.176 93.0323 134.56 92.2163 135.328C91.4003 136.08 90.9923 137.072 90.9923 138.304C90.9923 139.104 91.1763 139.824 91.5443 140.464C91.9283 141.088 92.4483 141.576 93.1043 141.928C93.7763 142.28 94.5363 142.456 95.3843 142.456ZM124.424 145L120.8 139.84C120.352 139.872 120 139.888 119.744 139.888H115.592V145H113.192V128.2H119.744C121.92 128.2 123.632 128.72 124.88 129.76C126.128 130.8 126.752 132.232 126.752 134.056C126.752 135.352 126.432 136.456 125.792 137.368C125.152 138.28 124.24 138.944 123.056 139.36L127.04 145H124.424ZM119.672 137.848C121.192 137.848 122.352 137.52 123.152 136.864C123.952 136.208 124.352 135.272 124.352 134.056C124.352 132.84 123.952 131.912 123.152 131.272C122.352 130.616 121.192 130.288 119.672 130.288H115.592V137.848H119.672ZM135.741 145.144C134.477 145.144 133.341 144.864 132.333 144.304C131.325 143.744 130.533 142.976 129.957 142C129.397 141.008 129.117 139.888 129.117 138.64C129.117 137.392 129.397 136.28 129.957 135.304C130.533 134.312 131.325 133.544 132.333 133C133.341 132.44 134.477 132.16 135.741 132.16C137.005 132.16 138.133 132.44 139.125 133C140.133 133.544 140.917 134.312 141.477 135.304C142.053 136.28 142.341 137.392 142.341 138.64C142.341 139.888 142.053 141.008 141.477 142C140.917 142.976 140.133 143.744 139.125 144.304C138.133 144.864 137.005 145.144 135.741 145.144ZM135.741 143.128C136.557 143.128 137.285 142.944 137.925 142.576C138.581 142.192 139.093 141.664 139.461 140.992C139.829 140.304 140.013 139.52 140.013 138.64C140.013 137.76 139.829 136.984 139.461 136.312C139.093 135.624 138.581 135.096 137.925 134.728C137.285 134.36 136.557 134.176 135.741 134.176C134.925 134.176 134.189 134.36 133.533 134.728C132.893 135.096 132.381 135.624 131.997 136.312C131.629 136.984 131.445 137.76 131.445 138.64C131.445 139.52 131.629 140.304 131.997 140.992C132.381 141.664 132.893 142.192 133.533 142.576C134.189 142.944 134.925 143.128 135.741 143.128ZM150.043 132.16C151.803 132.16 153.147 132.592 154.075 133.456C155.019 134.32 155.491 135.608 155.491 137.32V145H153.307V143.32C152.923 143.912 152.371 144.368 151.651 144.688C150.947 144.992 150.107 145.144 149.131 145.144C147.707 145.144 146.563 144.8 145.699 144.112C144.851 143.424 144.427 142.52 144.427 141.4C144.427 140.28 144.835 139.384 145.651 138.712C146.467 138.024 147.763 137.68 149.539 137.68H153.187V137.224C153.187 136.232 152.899 135.472 152.323 134.944C151.747 134.416 150.899 134.152 149.779 134.152C149.027 134.152 148.291 134.28 147.571 134.536C146.851 134.776 146.243 135.104 145.747 135.52L144.787 133.792C145.443 133.264 146.227 132.864 147.139 132.592C148.051 132.304 149.019 132.16 150.043 132.16ZM149.515 143.368C150.395 143.368 151.155 143.176 151.795 142.792C152.435 142.392 152.899 141.832 153.187 141.112V139.336H149.635C147.683 139.336 146.707 139.992 146.707 141.304C146.707 141.944 146.955 142.448 147.451 142.816C147.947 143.184 148.635 143.368 149.515 143.368ZM171.825 127.192V145H169.617V142.984C169.105 143.688 168.457 144.224 167.673 144.592C166.889 144.96 166.025 145.144 165.081 145.144C163.849 145.144 162.745 144.872 161.769 144.328C160.793 143.784 160.025 143.024 159.465 142.048C158.921 141.056 158.649 139.92 158.649 138.64C158.649 137.36 158.921 136.232 159.465 135.256C160.025 134.28 160.793 133.52 161.769 132.976C162.745 132.432 163.849 132.16 165.081 132.16C165.993 132.16 166.833 132.336 167.601 132.688C168.369 133.024 169.009 133.528 169.521 134.2V127.192H171.825ZM165.273 143.128C166.073 143.128 166.801 142.944 167.457 142.576C168.113 142.192 168.625 141.664 168.993 140.992C169.361 140.304 169.545 139.52 169.545 138.64C169.545 137.76 169.361 136.984 168.993 136.312C168.625 135.624 168.113 135.096 167.457 134.728C166.801 134.36 166.073 134.176 165.273 134.176C164.457 134.176 163.721 134.36 163.065 134.728C162.425 135.096 161.913 135.624 161.529 136.312C161.161 136.984 160.977 137.76 160.977 138.64C160.977 139.52 161.161 140.304 161.529 140.992C161.913 141.664 162.425 142.192 163.065 142.576C163.721 142.944 164.457 143.128 165.273 143.128Z" fill="#00AC3A"/>
<path d="M998.264 137.288V143.144H1006.69V145.208H998.264V152H995.864V135.2H1007.72V137.288H998.264ZM1012.74 141.416C1013.14 140.68 1013.73 140.12 1014.51 139.736C1015.3 139.352 1016.25 139.16 1017.37 139.16V141.392C1017.24 141.376 1017.06 141.368 1016.84 141.368C1015.59 141.368 1014.61 141.744 1013.89 142.496C1013.18 143.232 1012.83 144.288 1012.83 145.664V152H1010.53V139.28H1012.74V141.416ZM1025.54 152.144C1024.27 152.144 1023.14 151.864 1022.13 151.304C1021.12 150.744 1020.33 149.976 1019.75 149C1019.19 148.008 1018.91 146.888 1018.91 145.64C1018.91 144.392 1019.19 143.28 1019.75 142.304C1020.33 141.312 1021.12 140.544 1022.13 140C1023.14 139.44 1024.27 139.16 1025.54 139.16C1026.8 139.16 1027.93 139.44 1028.92 140C1029.93 140.544 1030.71 141.312 1031.27 142.304C1031.85 143.28 1032.14 144.392 1032.14 145.64C1032.14 146.888 1031.85 148.008 1031.27 149C1030.71 149.976 1029.93 150.744 1028.92 151.304C1027.93 151.864 1026.8 152.144 1025.54 152.144ZM1025.54 150.128C1026.35 150.128 1027.08 149.944 1027.72 149.576C1028.38 149.192 1028.89 148.664 1029.26 147.992C1029.63 147.304 1029.81 146.52 1029.81 145.64C1029.81 144.76 1029.63 143.984 1029.26 143.312C1028.89 142.624 1028.38 142.096 1027.72 141.728C1027.08 141.36 1026.35 141.176 1025.54 141.176C1024.72 141.176 1023.99 141.36 1023.33 141.728C1022.69 142.096 1022.18 142.624 1021.79 143.312C1021.43 143.984 1021.24 144.76 1021.24 145.64C1021.24 146.52 1021.43 147.304 1021.79 147.992C1022.18 148.664 1022.69 149.192 1023.33 149.576C1023.99 149.944 1024.72 150.128 1025.54 150.128ZM1042.12 139.16C1043.73 139.16 1045.01 139.632 1045.96 140.576C1046.92 141.504 1047.4 142.872 1047.4 144.68V152H1045.09V144.944C1045.09 143.712 1044.8 142.784 1044.2 142.16C1043.61 141.536 1042.76 141.224 1041.66 141.224C1040.41 141.224 1039.43 141.592 1038.71 142.328C1037.99 143.048 1037.63 144.088 1037.63 145.448V152H1035.32V139.28H1037.53V141.2C1038 140.544 1038.62 140.04 1039.4 139.688C1040.2 139.336 1041.11 139.16 1042.12 139.16ZM1058.81 151.256C1058.48 151.544 1058.06 151.768 1057.56 151.928C1057.07 152.072 1056.56 152.144 1056.03 152.144C1054.75 152.144 1053.76 151.8 1053.05 151.112C1052.35 150.424 1052 149.44 1052 148.16V141.176H1049.84V139.28H1052V136.496H1054.3V139.28H1057.95V141.176H1054.3V148.064C1054.3 148.752 1054.47 149.28 1054.8 149.648C1055.16 150.016 1055.65 150.2 1056.29 150.2C1057 150.2 1057.6 150 1058.09 149.6L1058.81 151.256ZM1061.6 139.28H1063.9V152H1061.6V139.28ZM1062.75 136.832C1062.3 136.832 1061.93 136.688 1061.62 136.4C1061.33 136.112 1061.19 135.76 1061.19 135.344C1061.19 134.928 1061.33 134.576 1061.62 134.288C1061.93 133.984 1062.3 133.832 1062.75 133.832C1063.2 133.832 1063.57 133.976 1063.85 134.264C1064.16 134.536 1064.31 134.88 1064.31 135.296C1064.31 135.728 1064.16 136.096 1063.85 136.4C1063.57 136.688 1063.2 136.832 1062.75 136.832ZM1079.8 145.712C1079.8 145.888 1079.78 146.12 1079.75 146.408H1069.43C1069.57 147.528 1070.06 148.432 1070.89 149.12C1071.74 149.792 1072.79 150.128 1074.04 150.128C1075.56 150.128 1076.78 149.616 1077.71 148.592L1078.98 150.08C1078.41 150.752 1077.69 151.264 1076.82 151.616C1075.97 151.968 1075.02 152.144 1073.97 152.144C1072.62 152.144 1071.43 151.872 1070.39 151.328C1069.35 150.768 1068.54 149.992 1067.97 149C1067.41 148.008 1067.13 146.888 1067.13 145.64C1067.13 144.408 1067.4 143.296 1067.94 142.304C1068.5 141.312 1069.26 140.544 1070.22 140C1071.2 139.44 1072.29 139.16 1073.51 139.16C1074.73 139.16 1075.81 139.44 1076.75 140C1077.71 140.544 1078.45 141.312 1078.98 142.304C1079.53 143.296 1079.8 144.432 1079.8 145.712ZM1073.51 141.104C1072.41 141.104 1071.48 141.44 1070.73 142.112C1069.99 142.784 1069.56 143.664 1069.43 144.752H1077.59C1077.46 143.68 1077.02 142.808 1076.27 142.136C1075.53 141.448 1074.61 141.104 1073.51 141.104ZM1085.2 141.416C1085.6 140.68 1086.2 140.12 1086.98 139.736C1087.76 139.352 1088.72 139.16 1089.84 139.16V141.392C1089.71 141.376 1089.53 141.368 1089.31 141.368C1088.06 141.368 1087.08 141.744 1086.36 142.496C1085.65 143.232 1085.3 144.288 1085.3 145.664V152H1083V139.28H1085.2V141.416Z" fill="#00AC3A"/>
<path d="M1010.16 62.2V79H1007.76V71.512H998.108V79H995.708V62.2H998.108V69.424H1007.76V62.2H1010.16ZM1020.3 79.144C1019.03 79.144 1017.9 78.864 1016.89 78.304C1015.88 77.744 1015.09 76.976 1014.51 76C1013.95 75.008 1013.67 73.888 1013.67 72.64C1013.67 71.392 1013.95 70.28 1014.51 69.304C1015.09 68.312 1015.88 67.544 1016.89 67C1017.9 66.44 1019.03 66.16 1020.3 66.16C1021.56 66.16 1022.69 66.44 1023.68 67C1024.69 67.544 1025.47 68.312 1026.03 69.304C1026.61 70.28 1026.9 71.392 1026.9 72.64C1026.9 73.888 1026.61 75.008 1026.03 76C1025.47 76.976 1024.69 77.744 1023.68 78.304C1022.69 78.864 1021.56 79.144 1020.3 79.144ZM1020.3 77.128C1021.11 77.128 1021.84 76.944 1022.48 76.576C1023.14 76.192 1023.65 75.664 1024.02 74.992C1024.38 74.304 1024.57 73.52 1024.57 72.64C1024.57 71.76 1024.38 70.984 1024.02 70.312C1023.65 69.624 1023.14 69.096 1022.48 68.728C1021.84 68.36 1021.11 68.176 1020.3 68.176C1019.48 68.176 1018.74 68.36 1018.09 68.728C1017.45 69.096 1016.94 69.624 1016.55 70.312C1016.18 70.984 1016 71.76 1016 72.64C1016 73.52 1016.18 74.304 1016.55 74.992C1016.94 75.664 1017.45 76.192 1018.09 76.576C1018.74 76.944 1019.48 77.128 1020.3 77.128ZM1037.23 78.256C1036.9 78.544 1036.48 78.768 1035.99 78.928C1035.49 79.072 1034.98 79.144 1034.45 79.144C1033.17 79.144 1032.18 78.8 1031.47 78.112C1030.77 77.424 1030.42 76.44 1030.42 75.16V68.176H1028.26V66.28H1030.42V63.496H1032.72V66.28H1036.37V68.176H1032.72V75.064C1032.72 75.752 1032.89 76.28 1033.23 76.648C1033.58 77.016 1034.07 77.2 1034.71 77.2C1035.42 77.2 1036.02 77 1036.51 76.6L1037.23 78.256ZM1051.09 72.712C1051.09 72.888 1051.08 73.12 1051.05 73.408H1040.73C1040.87 74.528 1041.36 75.432 1042.19 76.12C1043.04 76.792 1044.09 77.128 1045.33 77.128C1046.85 77.128 1048.08 76.616 1049.01 75.592L1050.28 77.08C1049.7 77.752 1048.98 78.264 1048.12 78.616C1047.27 78.968 1046.32 79.144 1045.26 79.144C1043.92 79.144 1042.73 78.872 1041.69 78.328C1040.65 77.768 1039.84 76.992 1039.26 76C1038.7 75.008 1038.42 73.888 1038.42 72.64C1038.42 71.408 1038.69 70.296 1039.24 69.304C1039.8 68.312 1040.56 67.544 1041.52 67C1042.49 66.44 1043.59 66.16 1044.81 66.16C1046.02 66.16 1047.1 66.44 1048.05 67C1049.01 67.544 1049.75 68.312 1050.28 69.304C1050.82 70.296 1051.09 71.432 1051.09 72.712ZM1044.81 68.104C1043.7 68.104 1042.77 68.44 1042.02 69.112C1041.29 69.784 1040.85 70.664 1040.73 71.752H1048.89C1048.76 70.68 1048.32 69.808 1047.57 69.136C1046.83 68.448 1045.91 68.104 1044.81 68.104ZM1054.29 61.192H1056.6V79H1054.29V61.192Z" fill="#00AC3A"/>
<path d="M87.2052 57.288V63.144H95.6292V65.208H87.2052V72H84.8052V55.2H96.6612V57.288H87.2052ZM103.89 59.16C105.65 59.16 106.994 59.592 107.922 60.456C108.866 61.32 109.338 62.608 109.338 64.32V72H107.154V70.32C106.77 70.912 106.218 71.368 105.498 71.688C104.794 71.992 103.954 72.144 102.978 72.144C101.554 72.144 100.41 71.8 99.5462 71.112C98.6982 70.424 98.2742 69.52 98.2742 68.4C98.2742 67.28 98.6822 66.384 99.4982 65.712C100.314 65.024 101.61 64.68 103.386 64.68H107.034V64.224C107.034 63.232 106.746 62.472 106.17 61.944C105.594 61.416 104.746 61.152 103.626 61.152C102.874 61.152 102.138 61.28 101.418 61.536C100.698 61.776 100.09 62.104 99.5942 62.52L98.6342 60.792C99.2902 60.264 100.074 59.864 100.986 59.592C101.898 59.304 102.866 59.16 103.89 59.16ZM103.362 70.368C104.242 70.368 105.002 70.176 105.642 69.792C106.282 69.392 106.746 68.832 107.034 68.112V66.336H103.482C101.53 66.336 100.554 66.992 100.554 68.304C100.554 68.944 100.802 69.448 101.298 69.816C101.794 70.184 102.482 70.368 103.362 70.368ZM119.216 72.144C117.92 72.144 116.76 71.864 115.736 71.304C114.728 70.744 113.936 69.976 113.36 69C112.784 68.008 112.496 66.888 112.496 65.64C112.496 64.392 112.784 63.28 113.36 62.304C113.936 61.312 114.728 60.544 115.736 60C116.76 59.44 117.92 59.16 119.216 59.16C120.368 59.16 121.392 59.392 122.288 59.856C123.2 60.32 123.904 60.992 124.4 61.872L122.648 63C122.248 62.392 121.752 61.936 121.16 61.632C120.568 61.328 119.912 61.176 119.192 61.176C118.36 61.176 117.608 61.36 116.936 61.728C116.28 62.096 115.76 62.624 115.376 63.312C115.008 63.984 114.824 64.76 114.824 65.64C114.824 66.536 115.008 67.328 115.376 68.016C115.76 68.688 116.28 69.208 116.936 69.576C117.608 69.944 118.36 70.128 119.192 70.128C119.912 70.128 120.568 69.976 121.16 69.672C121.752 69.368 122.248 68.912 122.648 68.304L124.4 69.408C123.904 70.288 123.2 70.968 122.288 71.448C121.392 71.912 120.368 72.144 119.216 72.144ZM134.699 71.256C134.363 71.544 133.947 71.768 133.451 71.928C132.955 72.072 132.443 72.144 131.915 72.144C130.635 72.144 129.643 71.8 128.939 71.112C128.235 70.424 127.883 69.44 127.883 68.16V61.176H125.723V59.28H127.883V56.496H130.187V59.28H133.835V61.176H130.187V68.064C130.187 68.752 130.355 69.28 130.691 69.648C131.043 70.016 131.539 70.2 132.179 70.2C132.883 70.2 133.483 70 133.979 69.6L134.699 71.256ZM142.511 72.144C141.247 72.144 140.111 71.864 139.103 71.304C138.095 70.744 137.303 69.976 136.727 69C136.167 68.008 135.887 66.888 135.887 65.64C135.887 64.392 136.167 63.28 136.727 62.304C137.303 61.312 138.095 60.544 139.103 60C140.111 59.44 141.247 59.16 142.511 59.16C143.775 59.16 144.903 59.44 145.895 60C146.903 60.544 147.687 61.312 148.247 62.304C148.823 63.28 149.111 64.392 149.111 65.64C149.111 66.888 148.823 68.008 148.247 69C147.687 69.976 146.903 70.744 145.895 71.304C144.903 71.864 143.775 72.144 142.511 72.144ZM142.511 70.128C143.327 70.128 144.055 69.944 144.695 69.576C145.351 69.192 145.863 68.664 146.231 67.992C146.599 67.304 146.783 66.52 146.783 65.64C146.783 64.76 146.599 63.984 146.231 63.312C145.863 62.624 145.351 62.096 144.695 61.728C144.055 61.36 143.327 61.176 142.511 61.176C141.695 61.176 140.959 61.36 140.303 61.728C139.663 62.096 139.151 62.624 138.767 63.312C138.399 63.984 138.215 64.76 138.215 65.64C138.215 66.52 138.399 67.304 138.767 67.992C139.151 68.664 139.663 69.192 140.303 69.576C140.959 69.944 141.695 70.128 142.511 70.128ZM154.505 61.416C154.905 60.68 155.497 60.12 156.281 59.736C157.065 59.352 158.017 59.16 159.137 59.16V61.392C159.009 61.376 158.833 61.368 158.609 61.368C157.361 61.368 156.377 61.744 155.657 62.496C154.953 63.232 154.601 64.288 154.601 65.664V72H152.297V59.28H154.505V61.416ZM173.749 59.28L167.581 73.272C167.037 74.568 166.397 75.48 165.661 76.008C164.941 76.536 164.069 76.8 163.045 76.8C162.421 76.8 161.813 76.696 161.221 76.488C160.645 76.296 160.165 76.008 159.781 75.624L160.765 73.896C161.421 74.52 162.181 74.832 163.045 74.832C163.605 74.832 164.069 74.68 164.437 74.376C164.821 74.088 165.165 73.584 165.469 72.864L165.877 71.976L160.261 59.28H162.661L167.101 69.456L171.493 59.28H173.749Z" fill="#00AC3A"/>
<path d="M1007.01 257.288C1007.98 257.56 1008.75 258.056 1009.31 258.776C1009.87 259.48 1010.15 260.376 1010.15 261.464C1010.15 262.92 1009.6 264.04 1008.5 264.824C1007.41 265.608 1005.82 266 1003.72 266H995.704V249.2H1003.24C1005.16 249.2 1006.64 249.584 1007.68 250.352C1008.74 251.12 1009.26 252.184 1009.26 253.544C1009.26 254.424 1009.06 255.184 1008.64 255.824C1008.24 256.464 1007.7 256.952 1007.01 257.288ZM998.104 251.144V256.52H1003.02C1004.26 256.52 1005.2 256.296 1005.86 255.848C1006.53 255.384 1006.86 254.712 1006.86 253.832C1006.86 252.952 1006.53 252.288 1005.86 251.84C1005.2 251.376 1004.26 251.144 1003.02 251.144H998.104ZM1003.62 264.056C1004.98 264.056 1006.01 263.832 1006.7 263.384C1007.38 262.936 1007.73 262.232 1007.73 261.272C1007.73 259.4 1006.36 258.464 1003.62 258.464H998.104V264.056H1003.62ZM1018.16 253.16C1019.92 253.16 1021.27 253.592 1022.2 254.456C1023.14 255.32 1023.61 256.608 1023.61 258.32V266H1021.43V264.32C1021.04 264.912 1020.49 265.368 1019.77 265.688C1019.07 265.992 1018.23 266.144 1017.25 266.144C1015.83 266.144 1014.68 265.8 1013.82 265.112C1012.97 264.424 1012.55 263.52 1012.55 262.4C1012.55 261.28 1012.96 260.384 1013.77 259.712C1014.59 259.024 1015.88 258.68 1017.66 258.68H1021.31V258.224C1021.31 257.232 1021.02 256.472 1020.44 255.944C1019.87 255.416 1019.02 255.152 1017.9 255.152C1017.15 255.152 1016.41 255.28 1015.69 255.536C1014.97 255.776 1014.36 256.104 1013.87 256.52L1012.91 254.792C1013.56 254.264 1014.35 253.864 1015.26 253.592C1016.17 253.304 1017.14 253.16 1018.16 253.16ZM1017.64 264.368C1018.52 264.368 1019.28 264.176 1019.92 263.792C1020.56 263.392 1021.02 262.832 1021.31 262.112V260.336H1017.76C1015.8 260.336 1014.83 260.992 1014.83 262.304C1014.83 262.944 1015.08 263.448 1015.57 263.816C1016.07 264.184 1016.76 264.368 1017.64 264.368ZM1034.67 253.16C1036.28 253.16 1037.56 253.632 1038.51 254.576C1039.47 255.504 1039.95 256.872 1039.95 258.68V266H1037.64V258.944C1037.64 257.712 1037.35 256.784 1036.76 256.16C1036.16 255.536 1035.32 255.224 1034.21 255.224C1032.96 255.224 1031.98 255.592 1031.26 256.328C1030.54 257.048 1030.18 258.088 1030.18 259.448V266H1027.88V253.28H1030.08V255.2C1030.55 254.544 1031.17 254.04 1031.96 253.688C1032.76 253.336 1033.66 253.16 1034.67 253.16ZM1049.16 260.072L1046.52 262.52V266H1044.21V248.192H1046.52V259.616L1053.45 253.28H1056.24L1050.88 258.536L1056.76 266H1053.93L1049.16 260.072Z" fill="#00AC3A"/>
<defs>
<filter id="filter0_d" x="646.81" y="134.959" width="23.7836" height="22.6435" filterUnits="userSpaceOnUse" color-interpolation-filters="sRGB">
<feFlood flood-opacity="0" result="BackgroundImageFix"/>
<feColorMatrix in="SourceAlpha" type="matrix" values="0 0 0 0 0 0 0 0 0 0 0 0 0 0 0 0 0 0 127 0"/>
<feOffset dy="2"/>
<feGaussianBlur stdDeviation="2"/>
<feColorMatrix type="matrix" values="0 0 0 0 0 0 0 0 0 0 0 0 0 0 0 0 0 0 0.25 0"/>
<feBlend mode="normal" in2="BackgroundImageFix" result="effect1_dropShadow"/>
<feBlend mode="normal" in="SourceGraphic" in2="effect1_dropShadow" result="shape"/>
</filter>
<filter id="filter1_d" x="552.118" y="164.875" width="23.7836" height="22.6435" filterUnits="userSpaceOnUse" color-interpolation-filters="sRGB">
<feFlood flood-opacity="0" result="BackgroundImageFix"/>
<feColorMatrix in="SourceAlpha" type="matrix" values="0 0 0 0 0 0 0 0 0 0 0 0 0 0 0 0 0 0 127 0"/>
<feOffset dy="2"/>
<feGaussianBlur stdDeviation="2"/>
<feColorMatrix type="matrix" values="0 0 0 0 0 0 0 0 0 0 0 0 0 0 0 0 0 0 0.25 0"/>
<feBlend mode="normal" in2="BackgroundImageFix" result="effect1_dropShadow"/>
<feBlend mode="normal" in="SourceGraphic" in2="effect1_dropShadow" result="shape"/>
</filter>
<filter id="filter2_d" x="599.402" y="179.65" width="23.7836" height="22.6435" filterUnits="userSpaceOnUse" color-interpolation-filters="sRGB">
<feFlood flood-opacity="0" result="BackgroundImageFix"/>
<feColorMatrix in="SourceAlpha" type="matrix" values="0 0 0 0 0 0 0 0 0 0 0 0 0 0 0 0 0 0 127 0"/>
<feOffset dy="2"/>
<feGaussianBlur stdDeviation="2"/>
<feColorMatrix type="matrix" values="0 0 0 0 0 0 0 0 0 0 0 0 0 0 0 0 0 0 0.25 0"/>
<feBlend mode="normal" in2="BackgroundImageFix" result="effect1_dropShadow"/>
<feBlend mode="normal" in="SourceGraphic" in2="effect1_dropShadow" result="shape"/>
</filter>
<filter id="filter3_d" x="717" y="62" width="23.7836" height="22.6435" filterUnits="userSpaceOnUse" color-interpolation-filters="sRGB">
<feFlood flood-opacity="0" result="BackgroundImageFix"/>
<feColorMatrix in="SourceAlpha" type="matrix" values="0 0 0 0 0 0 0 0 0 0 0 0 0 0 0 0 0 0 127 0"/>
<feOffset dy="2"/>
<feGaussianBlur stdDeviation="2"/>
<feColorMatrix type="matrix" values="0 0 0 0 0 0 0 0 0 0 0 0 0 0 0 0 0 0 0.25 0"/>
<feBlend mode="normal" in2="BackgroundImageFix" result="effect1_dropShadow"/>
<feBlend mode="normal" in="SourceGraphic" in2="effect1_dropShadow" result="shape"/>
</filter>
<filter id="filter4_d" x="709.016" y="248.662" width="23.7836" height="22.6435" filterUnits="userSpaceOnUse" color-interpolation-filters="sRGB">
<feFlood flood-opacity="0" result="BackgroundImageFix"/>
<feColorMatrix in="SourceAlpha" type="matrix" values="0 0 0 0 0 0 0 0 0 0 0 0 0 0 0 0 0 0 127 0"/>
<feOffset dy="2"/>
<feGaussianBlur stdDeviation="2"/>
<feColorMatrix type="matrix" values="0 0 0 0 0 0 0 0 0 0 0 0 0 0 0 0 0 0 0.25 0"/>
<feBlend mode="normal" in2="BackgroundImageFix" result="effect1_dropShadow"/>
<feBlend mode="normal" in="SourceGraphic" in2="effect1_dropShadow" result="shape"/>
</filter>
<filter id="filter5_d" x="495.473" y="196.118" width="23.7836" height="22.6435" filterUnits="userSpaceOnUse" color-interpolation-filters="sRGB">
<feFlood flood-opacity="0" result="BackgroundImageFix"/>
<feColorMatrix in="SourceAlpha" type="matrix" values="0 0 0 0 0 0 0 0 0 0 0 0 0 0 0 0 0 0 127 0"/>
<feOffset dy="2"/>
<feGaussianBlur stdDeviation="2"/>
<feColorMatrix type="matrix" values="0 0 0 0 0 0 0 0 0 0 0 0 0 0 0 0 0 0 0.25 0"/>
<feBlend mode="normal" in2="BackgroundImageFix" result="effect1_dropShadow"/>
<feBlend mode="normal" in="SourceGraphic" in2="effect1_dropShadow" result="shape"/>
</filter>
<linearGradient id="paint0_linear" x1="700.017" y1="60.2966" x2="447.344" y2="392.86" gradientUnits="userSpaceOnUse">
<stop stop-color="#F26E50"/>
<stop offset="1" stop-color="#E86F8C"/>
</linearGradient>
<linearGradient id="paint1_linear" x1="700.017" y1="60.2966" x2="447.344" y2="392.86" gradientUnits="userSpaceOnUse">
<stop stop-color="#F26E50"/>
<stop offset="1" stop-color="#E86F8C"/>
</linearGradient>
</defs>
</svg>
