<svg width="431" height="126" viewBox="0 0 431 126" fill="none" xmlns="http://www.w3.org/2000/svg">
<path d="M0 97.577H13.6476C16.7331 97.577 19.4495 98.144 21.7966 99.278C24.1701 100.386 26.0029 101.981 27.2952 104.065C28.6138 106.148 29.2731 108.601 29.2731 111.422C29.2731 114.244 28.6138 116.697 27.2952 118.78C26.0029 120.864 24.1701 122.472 21.7966 123.606C19.4495 124.714 16.7331 125.268 13.6476 125.268H0V97.577ZM13.252 117.989C15.2563 117.989 16.8518 117.422 18.0386 116.288C19.2517 115.128 19.8582 113.506 19.8582 111.422C19.8582 109.339 19.2517 107.73 18.0386 106.596C16.8518 105.436 15.2563 104.856 13.252 104.856H9.33574V117.989H13.252Z" fill="#00DB4A"/>
<path d="M55.1114 118.226V125.268H32.0885V97.577H54.5972V104.618H41.266V107.862H52.9753V114.587H41.266V118.226H55.1114Z" fill="#00DB4A"/>
<path d="M68.4367 125.901C66.1423 125.901 63.9006 125.65 61.7118 125.149C59.5492 124.622 57.7691 123.923 56.3714 123.053L59.3778 116.249C60.6964 117.013 62.1733 117.633 63.8083 118.108C65.4434 118.556 67.0126 118.78 68.5158 118.78C69.808 118.78 70.731 118.662 71.2848 118.424C71.8387 118.16 72.1156 117.778 72.1156 117.277C72.1156 116.697 71.7464 116.262 71.0079 115.972C70.2959 115.682 69.1091 115.365 67.4477 115.022C65.3116 114.574 63.5314 114.099 62.1073 113.598C60.6832 113.071 59.4438 112.227 58.3889 111.066C57.334 109.88 56.8065 108.284 56.8065 106.28C56.8065 104.539 57.2944 102.957 58.2702 101.533C59.246 100.109 60.6964 98.9879 62.6216 98.1704C64.5731 97.3529 66.9334 96.9441 69.7025 96.9441C71.6013 96.9441 73.4606 97.1551 75.2802 97.577C77.1263 97.9726 78.7482 98.566 80.1459 99.3571L77.3373 106.122C74.6209 104.75 72.0496 104.065 69.6234 104.065C67.2235 104.065 66.0236 104.645 66.0236 105.805C66.0236 106.359 66.3796 106.781 67.0917 107.071C67.8037 107.335 68.9773 107.625 70.6124 107.941C72.7221 108.337 74.5023 108.798 75.9527 109.326C77.4032 109.827 78.6559 110.658 79.7107 111.818C80.792 112.978 81.3326 114.561 81.3326 116.565C81.3326 118.306 80.8448 119.888 79.869 121.312C78.8932 122.71 77.4296 123.83 75.478 124.674C73.5529 125.492 71.2057 125.901 68.4367 125.901Z" fill="#00DB4A"/>
<path d="M116.936 110.789C118.571 111.396 119.837 112.279 120.734 113.44C121.631 114.6 122.079 115.998 122.079 117.633C122.079 120.059 121.077 121.945 119.072 123.29C117.068 124.608 114.167 125.268 110.37 125.268H94.7837V97.577H109.578C113.271 97.577 116.053 98.2363 117.925 99.5549C119.824 100.874 120.773 102.627 120.773 104.816C120.773 106.108 120.444 107.269 119.784 108.297C119.152 109.326 118.202 110.157 116.936 110.789ZM103.961 104.104V108.218H108.313C110.343 108.218 111.359 107.533 111.359 106.161C111.359 104.79 110.343 104.104 108.313 104.104H103.961ZM109.578 118.741C111.635 118.741 112.664 118.015 112.664 116.565C112.664 115.115 111.635 114.389 109.578 114.389H103.961V118.741H109.578Z" fill="#00DB4A"/>
<path d="M138.038 125.901C133.792 125.901 130.482 124.754 128.109 122.459C125.736 120.165 124.549 116.947 124.549 112.807V97.577H133.884V112.53C133.884 114.561 134.241 116.038 134.953 116.961C135.691 117.884 136.746 118.345 138.117 118.345C139.489 118.345 140.53 117.884 141.242 116.961C141.981 116.038 142.35 114.561 142.35 112.53V97.577H151.527V112.807C151.527 116.947 150.341 120.165 147.967 122.459C145.594 124.754 142.284 125.901 138.038 125.901Z" fill="#00DB4A"/>
<path d="M155.213 97.577H164.549V125.268H155.213V97.577Z" fill="#00DB4A"/>
<path d="M178.775 125.901C176.48 125.901 174.239 125.65 172.05 125.149C169.887 124.622 168.107 123.923 166.709 123.053L169.716 116.249C171.035 117.013 172.511 117.633 174.146 118.108C175.782 118.556 177.351 118.78 178.854 118.78C180.146 118.78 181.069 118.662 181.623 118.424C182.177 118.16 182.454 117.778 182.454 117.277C182.454 116.697 182.084 116.262 181.346 115.972C180.634 115.682 179.447 115.365 177.786 115.022C175.65 114.574 173.87 114.099 172.445 113.598C171.021 113.071 169.782 112.227 168.727 111.066C167.672 109.88 167.145 108.284 167.145 106.28C167.145 104.539 167.633 102.957 168.608 101.533C169.584 100.109 171.035 98.9879 172.96 98.1704C174.911 97.3529 177.272 96.9441 180.041 96.9441C181.939 96.9441 183.799 97.1551 185.618 97.577C187.464 97.9726 189.086 98.566 190.484 99.3571L187.675 106.122C184.959 104.75 182.388 104.065 179.962 104.065C177.562 104.065 176.362 104.645 176.362 105.805C176.362 106.359 176.718 106.781 177.43 107.071C178.142 107.335 179.315 107.625 180.95 107.941C183.06 108.337 184.84 108.798 186.291 109.326C187.741 109.827 188.994 110.658 190.049 111.818C191.13 112.978 191.671 114.561 191.671 116.565C191.671 118.306 191.183 119.888 190.207 121.312C189.231 122.71 187.768 123.83 185.816 124.674C183.891 125.492 181.544 125.901 178.775 125.901Z" fill="#00DB4A"/>
<path d="M204.18 125.901C201.886 125.901 199.644 125.65 197.455 125.149C195.293 124.622 193.513 123.923 192.115 123.053L195.121 116.249C196.44 117.013 197.917 117.633 199.552 118.108C201.187 118.556 202.756 118.78 204.259 118.78C205.551 118.78 206.474 118.662 207.028 118.424C207.582 118.16 207.859 117.778 207.859 117.277C207.859 116.697 207.49 116.262 206.751 115.972C206.039 115.682 204.853 115.365 203.191 115.022C201.055 114.574 199.275 114.099 197.851 113.598C196.427 113.071 195.187 112.227 194.132 111.066C193.077 109.88 192.55 108.284 192.55 106.28C192.55 104.539 193.038 102.957 194.014 101.533C194.989 100.109 196.44 98.9879 198.365 98.1704C200.317 97.3529 202.677 96.9441 205.446 96.9441C207.345 96.9441 209.204 97.1551 211.024 97.577C212.87 97.9726 214.492 98.566 215.889 99.3571L213.081 106.122C210.364 104.75 207.793 104.065 205.367 104.065C202.967 104.065 201.767 104.645 201.767 105.805C201.767 106.359 202.123 106.781 202.835 107.071C203.547 107.335 204.721 107.625 206.356 107.941C208.466 108.337 210.246 108.798 211.696 109.326C213.147 109.827 214.399 110.658 215.454 111.818C216.535 112.978 217.076 114.561 217.076 116.565C217.076 118.306 216.588 119.888 215.612 121.312C214.637 122.71 213.173 123.83 211.221 124.674C209.296 125.492 206.949 125.901 204.18 125.901Z" fill="#00DB4A"/>
<path d="M233.779 125.901C230.799 125.901 228.122 125.281 225.748 124.041C223.375 122.802 221.516 121.088 220.171 118.899C218.826 116.684 218.153 114.191 218.153 111.422C218.153 108.653 218.826 106.174 220.171 103.985C221.516 101.77 223.375 100.043 225.748 98.8033C228.122 97.5638 230.799 96.9441 233.779 96.9441C236.759 96.9441 239.435 97.5638 241.809 98.8033C244.182 100.043 246.042 101.77 247.387 103.985C248.732 106.174 249.404 108.653 249.404 111.422C249.404 114.191 248.732 116.684 247.387 118.899C246.042 121.088 244.182 122.802 241.809 124.041C239.435 125.281 236.759 125.901 233.779 125.901ZM233.779 118.345C234.939 118.345 235.981 118.068 236.904 117.514C237.853 116.934 238.605 116.13 239.159 115.101C239.712 114.046 239.989 112.82 239.989 111.422C239.989 110.025 239.712 108.812 239.159 107.783C238.605 106.728 237.853 105.924 236.904 105.37C235.981 104.79 234.939 104.5 233.779 104.5C232.618 104.5 231.563 104.79 230.614 105.37C229.691 105.924 228.952 106.728 228.399 107.783C227.845 108.812 227.568 110.025 227.568 111.422C227.568 112.82 227.845 114.046 228.399 115.101C228.952 116.13 229.691 116.934 230.614 117.514C231.563 118.068 232.618 118.345 233.779 118.345Z" fill="#00DB4A"/>
<path d="M279.494 97.577V125.268H271.82L261.298 112.688V125.268H252.199V97.577H259.873L270.396 110.157V97.577H279.494Z" fill="#00DB4A"/>
<path d="M293.724 125.901C291.429 125.901 289.188 125.65 286.999 125.149C284.836 124.622 283.056 123.923 281.659 123.053L284.665 116.249C285.984 117.013 287.46 117.633 289.096 118.108C290.731 118.556 292.3 118.78 293.803 118.78C295.095 118.78 296.018 118.662 296.572 118.424C297.126 118.16 297.403 117.778 297.403 117.277C297.403 116.697 297.034 116.262 296.295 115.972C295.583 115.682 294.396 115.365 292.735 115.022C290.599 114.574 288.819 114.099 287.395 113.598C285.97 113.071 284.731 112.227 283.676 111.066C282.621 109.88 282.094 108.284 282.094 106.28C282.094 104.539 282.582 102.957 283.557 101.533C284.533 100.109 285.984 98.9879 287.909 98.1704C289.86 97.3529 292.221 96.9441 294.99 96.9441C296.888 96.9441 298.748 97.1551 300.567 97.577C302.413 97.9726 304.035 98.566 305.433 99.3571L302.624 106.122C299.908 104.75 297.337 104.065 294.911 104.065C292.511 104.065 291.311 104.645 291.311 105.805C291.311 106.359 291.667 106.781 292.379 107.071C293.091 107.335 294.264 107.625 295.9 107.941C298.009 108.337 299.789 108.798 301.24 109.326C302.69 109.827 303.943 110.658 304.998 111.818C306.079 112.978 306.62 114.561 306.62 116.565C306.62 118.306 306.132 119.888 305.156 121.312C304.18 122.71 302.717 123.83 300.765 124.674C298.84 125.492 296.493 125.901 293.724 125.901Z" fill="#00DB4A"/>
<path d="M331.914 70.44H325.162V89.006H300.267V15.164H335.817C342.638 15.164 348.581 16.2892 353.644 18.5396C358.708 20.79 362.611 24.025 365.354 28.2446C368.096 32.4641 369.468 37.3869 369.468 43.013C369.468 48.2874 368.272 52.8937 365.881 56.832C363.49 60.7702 360.044 63.8997 355.543 66.2205L371.05 89.006H344.467L331.914 70.44ZM344.361 43.013C344.361 40.2703 343.517 38.1605 341.83 36.6837C340.142 35.1365 337.61 34.3629 334.234 34.3629H325.162V51.663H334.234C337.61 51.663 340.142 50.9246 341.83 49.4478C343.517 47.9006 344.361 45.7557 344.361 43.013Z" fill="white"/>
<path d="M374.249 0H343.642L374.074 44.503L373.385 67.5786H356.467L371.05 89.006H397.103L398.237 44.503L431 0H400.393L387.234 20.3972L374.249 0Z" fill="white"/>
<path fill-rule="evenodd" clip-rule="evenodd" d="M217.995 49.4478H177.775L198.18 15.164H218.644L218.726 43.8405C219.578 39.6883 221.101 35.8258 223.297 32.2531C226.883 26.3458 231.841 21.7394 238.171 18.4341C244.5 15.1288 251.638 13.4762 259.585 13.4762C267.532 13.4762 274.67 15.1288 280.999 18.4341C287.328 21.7394 292.286 26.3458 295.873 32.2531C299.459 38.0902 301.253 44.7008 301.253 52.085C301.253 59.4692 299.459 66.115 295.873 72.0223C292.286 77.8594 287.328 82.4305 280.999 85.7359C274.67 89.0412 267.532 90.6938 259.585 90.6938C251.638 90.6938 244.5 89.0412 238.171 85.7359C231.841 82.4305 226.883 77.8594 223.297 72.0223C221.508 69.0765 220.166 65.947 219.269 62.6339H245.656C247.08 65.026 248.91 66.9247 251.146 68.3302C253.677 69.8071 256.49 70.5455 259.585 70.5455C262.679 70.5455 265.457 69.8071 267.918 68.3302C270.45 66.7831 272.454 64.6381 273.931 61.8954C275.408 59.0824 276.146 55.8123 276.146 52.085C276.146 48.3577 275.408 45.1227 273.931 42.38C272.454 39.567 270.45 37.4221 267.918 35.9452C265.457 34.3981 262.679 33.6245 259.585 33.6245C256.49 33.6245 253.677 34.3981 251.146 35.9452C248.684 37.4221 246.715 39.567 245.238 42.38C244.121 44.4544 243.427 46.8103 243.155 49.4478H218.742H217.995ZM196.01 62.6339L196.175 89.006H218.855L218.78 62.6339H196.01ZM191.643 62.6339H156.721L168.959 82.3602H179.93L191.643 62.6339Z" fill="white"/>
<path d="M74.9759 0H33.1701L15.6386 49.4478H40.1393L56.0959 15.6151L54.9561 49.4478H74.9759H86.5603V34.3629H95.6323C99.008 34.3629 101.54 35.1365 103.228 36.6837C104.915 38.1605 105.759 40.2703 105.759 43.013C105.759 45.7557 104.915 47.9006 103.228 49.4478L130.202 49.4478C130.217 49.3814 130.231 49.3148 130.245 49.2481V36.776C129.593 33.6691 128.429 30.8253 126.751 28.2446C124.009 24.025 120.106 20.79 115.042 18.5396C109.979 16.2892 104.036 15.164 97.2147 15.164H74.9759V0Z" fill="white"/>
<path d="M0.80426 89.006H31.8215L37.2158 72.9934H54.7473V89.006H74.9759H86.5603V70.44H93.3116L105.865 89.006H130.245V85.7691L116.941 66.2205C118.948 65.1857 120.745 63.9902 122.332 62.6339H74.9759H10.3941L0.80426 89.006Z" fill="white"/>
<path d="M132.448 89.006H152.925V62.6339H130.245V85.7691L132.448 89.006Z" fill="white"/>
<path d="M150.71 15.164H130.245V36.776V49.2481V49.4478H171.666L150.71 15.164Z" fill="white"/>
<path d="M258.86 60.9855C258.86 60.9855 265.35 59.9965 265.35 56.0407C265.35 52.0849 258.86 51.0959 258.86 51.0959L248.043 51.0959L248.043 60.9855H258.86Z" fill="#00DB4A"/>
</svg>
