<svg width="456" height="374" viewBox="0 0 456 374" fill="none" xmlns="http://www.w3.org/2000/svg">
<path d="M456 310.771C456 317.302 450.843 322.595 444.478 322.595H11.522C5.1576 322.595 0 317.302 0 310.772V12.0056C0 5.47642 5.1576 0.179443 11.522 0.179443H444.478C450.842 0.179443 456 5.47642 456 12.0056V310.771Z" fill="#E2E5E7"/>
<path d="M279.717 322.595H228H176.283C176.283 322.595 174.187 358.069 169.998 365.594H228H286.002C281.812 358.068 279.717 322.595 279.717 322.595Z" fill="#D1D5D5"/>
<path d="M295.689 368.551C289.404 367.743 286.001 365.594 286.001 365.594H228H169.997C169.997 365.594 166.595 367.744 160.31 368.551C154.026 369.358 149.836 369.893 149.836 373.119H228H306.162C306.162 369.893 301.973 369.357 295.689 368.551Z" fill="#C6CBCB"/>
<path d="M444.478 0.179443H11.522C5.1576 0.179443 0 5.47642 0 12.0056V280.314H455.999V12.0056C456 5.47642 450.842 0.179443 444.478 0.179443ZM437.128 263.509H208.286H18.8723V16.9881H355.157H437.128V263.509Z" fill="#2D404E"/>
<path d="M18.8723 16.988V263.509H208.286H437.128V16.988H355.157H18.8723Z" fill="#00AC3A"/>
<path d="M279.717 322.595H228H176.283C176.283 322.595 175.97 327.872 175.348 334.78H280.652C280.029 327.872 279.717 322.595 279.717 322.595Z" fill="#C6CBCB"/>
<path d="M228.059 310.137C232.197 310.137 235.551 306.695 235.551 302.448C235.551 298.202 232.197 294.759 228.059 294.759C223.922 294.759 220.567 298.202 220.567 302.448C220.567 306.695 223.922 310.137 228.059 310.137Z" fill="#2D404E"/>
<path opacity="0.16" d="M441.308 0.179443H340.164L127.359 279.882H455.999V11.9873C456 5.46825 449.423 0.179443 441.308 0.179443Z" fill="#E2E5E7"/>
<path d="M260.96 104H219.274L200.746 154.951H225.448L242.134 119.571L240.942 154.951H260.96V104Z" fill="white"/>
<path d="M187 192.753H217.929L223.308 176.786H240.789V192.753H260.96V168.099H195.965L187 192.753Z" fill="white"/>
<path d="M263.528 156.594C263.528 156.594 270 157.58 270 161.525C270 165.469 263.528 166.456 263.528 166.456H252.743L252.743 156.594L263.528 156.594Z" fill="white"/>
</svg>
