<svg width="200" height="200" viewBox="0 0 200 200" fill="none" xmlns="http://www.w3.org/2000/svg">
<g clip-path="url(#clip0)">
<path d="M27.1836 107.363C35.3152 97.6609 47.1738 92.4024 59.2461 92.4024C78.4273 92.4024 85.9941 104.473 93.7383 103.828C103.136 56.8406 101.953 64.2028 101.953 58.9844C101.953 36.3672 83.5547 17.9688 60.9375 17.9688C38.3203 17.9688 19.9219 36.3672 19.9219 58.9844C19.9219 64.1395 18.8191 55.868 27.1836 107.363ZM60.9375 29.6875C76.1914 29.6875 88.7539 41.4063 90.1055 56.3125H31.7695C33.1211 41.4063 45.6836 29.6875 60.9375 29.6875Z" fill="url(#paint0_linear)"/>
<path d="M154.914 101.945L174.008 118.773L178.152 100.379C180.758 88.8242 173.473 77.3047 161.918 74.6992L154.297 72.9805L167.266 15.4414L172.98 16.7266C176.134 17.4371 179.273 15.4594 179.984 12.3008C180.695 9.14455 178.715 6.00783 175.555 5.29689L152.691 0.144549C149.535 -0.566389 146.398 1.41408 145.688 4.57033C144.977 7.72658 146.957 10.8633 150.117 11.5742L155.832 12.8633L142.863 70.4063L135.242 68.6875C123.675 66.0801 112.179 73.3145 109.563 84.9219L106.891 96.7695C122.34 88.1649 141.623 90.2371 154.914 101.945Z" fill="url(#paint1_linear)"/>
<path d="M147.164 110.738C136.938 101.723 121.871 100.707 110.523 108.27L105.07 111.906C98.1836 116.496 89.4375 116.801 82.25 112.691L74.1992 108.094C61.2062 100.666 44.784 103.924 35.5742 115.613L15.5742 141.016H181.516L147.164 110.738Z" fill="url(#paint2_linear)"/>
<path d="M0 152.734V194.141C0 197.375 2.625 200 5.85938 200H194.141C197.375 200 200 197.375 200 194.141V152.734H0Z" fill="url(#paint3_linear)"/>
</g>
<defs>
<linearGradient id="paint0_linear" x1="151.134" y1="27.0996" x2="33.8035" y2="156.274" gradientUnits="userSpaceOnUse">
<stop stop-color="#F26E50"/>
<stop offset="1" stop-color="#FA8F77"/>
</linearGradient>
<linearGradient id="paint1_linear" x1="151.134" y1="27.0996" x2="33.8035" y2="156.274" gradientUnits="userSpaceOnUse">
<stop stop-color="#F26E50"/>
<stop offset="1" stop-color="#FA8F77"/>
</linearGradient>
<linearGradient id="paint2_linear" x1="151.134" y1="27.0996" x2="33.8035" y2="156.274" gradientUnits="userSpaceOnUse">
<stop stop-color="#F26E50"/>
<stop offset="1" stop-color="#FA8F77"/>
</linearGradient>
<linearGradient id="paint3_linear" x1="151.134" y1="27.0996" x2="33.8035" y2="156.274" gradientUnits="userSpaceOnUse">
<stop stop-color="#F26E50"/>
<stop offset="1" stop-color="#FA8F77"/>
</linearGradient>
<clipPath id="clip0">
<rect width="200" height="200" fill="white"/>
</clipPath>
</defs>
</svg>
