<svg width="1062" height="445" viewBox="0 0 1062 445" fill="none" xmlns="http://www.w3.org/2000/svg">
<path d="M338.377 175.436C343.719 151.454 331.399 151.115 329.85 116.383C329.356 105.318 327.529 96.1407 315.459 80.2051C303.389 64.2696 294.328 65.0906 298.088 45.1019C301.848 25.1133 339.827 48.2337 366.042 45.1019C406.261 40.2972 398.38 25.9382 428.722 25.9382C444.989 25.9382 451.046 33.7012 456.289 45.1019C467.486 69.4516 504.398 42.3044 534.572 28.0916C553.06 19.3836 557.183 14.8662 572.175 25.9382C587.534 37.282 574.559 44.8065 579.035 62.643C585.173 87.0966 595.386 93.9876 619.525 105.186C637.646 113.591 654.303 109.33 670.357 99.7649C696.962 83.9118 674.963 57.9642 693.187 36.3314C714.882 10.5791 714.691 2.2506 740.223 0.0966236C757.15 -1.33137 760.603 13.3047 765.17 28.3767C770.53 46.0678 816.74 23.3456 806.533 62.643C796.327 101.94 801.213 147.348 795.863 196.061C791.565 235.195 783.221 264.126 783.221 264.126C776.646 297.823 779.106 305.754 778.164 318.636C776.778 337.586 794.96 339.9 789.343 358.394C785.239 371.906 765.875 372.121 757.649 384.501C752.372 392.443 754.886 398.61 749.054 406.326C723.931 439.567 628.255 377.606 650.212 343.096C659.678 328.22 662.234 328.714 670.357 310.194C680.106 287.967 681.981 282.454 684.052 260.234C687.002 228.584 684.981 231.809 670.357 196.061C659.08 168.495 619.452 176.47 600.028 200.799C572.175 235.685 598.203 271.863 556.761 301.715C532.087 319.49 513.211 302.667 484.222 316.173C463.538 325.809 454.335 352.138 433.19 343.096C415.762 335.644 432.505 318.04 421.909 305.158C391.435 268.111 299.396 372.24 278.749 331.47C263.104 300.577 318.815 288.279 330.588 256.411C341.865 225.882 333.034 199.418 338.377 175.436Z" fill="url(#paint0_linear)"/>
<path d="M487.222 380.827C497.364 367.988 485.604 355.113 502.487 347.379C520.141 339.292 553.251 341.567 553.251 358.394C553.251 368.768 543.857 374.798 547.571 387.288C549.623 394.191 553.251 398.055 561.962 406.326C573.65 417.423 584.115 421.725 585.75 434.881C589.132 462.078 530.28 426.893 496.578 417.34C482.926 413.47 465.82 417.044 462.198 406.326C458.326 394.867 479.208 390.972 487.222 380.827Z" fill="url(#paint1_linear)"/>
<g filter="url(#filter0_d)">
<ellipse cx="636.702" cy="144.281" rx="7.8918" ry="7.32174" fill="white"/>
</g>
<g filter="url(#filter1_d)">
<ellipse cx="542.01" cy="174.197" rx="7.8918" ry="7.32174" fill="white"/>
</g>
<g filter="url(#filter2_d)">
<ellipse cx="589.294" cy="188.972" rx="7.8918" ry="7.32174" fill="white"/>
</g>
<g filter="url(#filter3_d)">
<ellipse cx="706.892" cy="71.3217" rx="7.8918" ry="7.32174" fill="white"/>
</g>
<g filter="url(#filter4_d)">
<ellipse cx="698.907" cy="257.983" rx="7.8918" ry="7.32174" fill="white"/>
</g>
<g filter="url(#filter5_d)">
<ellipse cx="485.365" cy="205.44" rx="7.8918" ry="7.32174" fill="white"/>
</g>
<line x1="485" y1="205.5" x2="157" y2="205.5" stroke="#595757"/>
<line x1="449" y1="137.5" x2="157" y2="137.5" stroke="#595757"/>
<line x1="541.815" y1="174.465" x2="448.815" y2="137.465" stroke="#595757"/>
<line x1="965" y1="144.5" x2="637" y2="144.5" stroke="#595757"/>
<line x1="965" y1="71.5" x2="707" y2="71.5" stroke="#595757"/>
<path d="M588.613 187.136L503 64.0001" stroke="#595757"/>
<line x1="965" y1="258.5" x2="699" y2="258.5" stroke="#595757"/>
<line x1="503" y1="64.5" x2="157" y2="64.5" stroke="#595757"/>
<path d="M88.6457 211.36C87.4777 211.36 86.4137 211.168 85.4537 210.784C84.4937 210.4 83.6697 209.84 82.9817 209.104C82.2937 208.368 81.7577 207.464 81.3737 206.392C81.0057 205.304 80.8217 204.064 80.8217 202.672C80.8217 201.28 81.0297 200.048 81.4457 198.976C81.8777 197.888 82.4537 196.976 83.1737 196.24C83.8937 195.504 84.7337 194.944 85.6937 194.56C86.6537 194.176 87.6777 193.984 88.7657 193.984C89.4537 193.984 90.0697 194.032 90.6137 194.128C91.1737 194.224 91.6537 194.336 92.0537 194.464C92.4697 194.592 92.8057 194.72 93.0617 194.848C93.3177 194.976 93.4937 195.072 93.5897 195.136L92.9177 197.056C92.7737 196.96 92.5657 196.856 92.2937 196.744C92.0217 196.632 91.7097 196.52 91.3577 196.408C91.0217 196.296 90.6457 196.208 90.2297 196.144C89.8297 196.064 89.4217 196.024 89.0057 196.024C88.1257 196.024 87.3337 196.176 86.6297 196.48C85.9257 196.784 85.3257 197.224 84.8297 197.8C84.3337 198.376 83.9497 199.08 83.6777 199.912C83.4217 200.728 83.2937 201.648 83.2937 202.672C83.2937 203.664 83.4057 204.568 83.6297 205.384C83.8697 206.2 84.2217 206.904 84.6857 207.496C85.1497 208.072 85.7257 208.52 86.4137 208.84C87.1177 209.16 87.9337 209.32 88.8617 209.32C89.9337 209.32 90.8217 209.208 91.5257 208.984C92.2297 208.76 92.7577 208.56 93.1097 208.384L93.7097 210.304C93.5977 210.384 93.3977 210.488 93.1097 210.616C92.8217 210.728 92.4617 210.84 92.0297 210.952C91.5977 211.064 91.0937 211.16 90.5177 211.24C89.9417 211.32 89.3177 211.36 88.6457 211.36ZM100.457 209.392C100.985 209.392 101.449 209.384 101.849 209.368C102.265 209.336 102.609 209.288 102.881 209.224V205.504C102.721 205.424 102.457 205.36 102.089 205.312C101.737 205.248 101.305 205.216 100.793 205.216C100.457 205.216 100.097 205.24 99.7125 205.288C99.3445 205.336 99.0005 205.44 98.6805 205.6C98.3765 205.744 98.1205 205.952 97.9125 206.224C97.7045 206.48 97.6005 206.824 97.6005 207.256C97.6005 208.056 97.8565 208.616 98.3685 208.936C98.8805 209.24 99.5765 209.392 100.457 209.392ZM100.265 198.208C101.161 198.208 101.913 198.328 102.521 198.568C103.145 198.792 103.641 199.12 104.009 199.552C104.393 199.968 104.665 200.472 104.825 201.064C104.985 201.64 105.065 202.28 105.065 202.984V210.784C104.873 210.816 104.601 210.864 104.249 210.928C103.913 210.976 103.529 211.024 103.097 211.072C102.665 211.12 102.193 211.16 101.681 211.192C101.185 211.24 100.689 211.264 100.193 211.264C99.4885 211.264 98.8405 211.192 98.2485 211.048C97.6565 210.904 97.1445 210.68 96.7125 210.376C96.2805 210.056 95.9445 209.64 95.7045 209.128C95.4645 208.616 95.3445 208 95.3445 207.28C95.3445 206.592 95.4805 206 95.7525 205.504C96.0405 205.008 96.4245 204.608 96.9045 204.304C97.3845 204 97.9445 203.776 98.5845 203.632C99.2245 203.488 99.8965 203.416 100.601 203.416C100.825 203.416 101.057 203.432 101.297 203.464C101.537 203.48 101.761 203.512 101.969 203.56C102.193 203.592 102.385 203.624 102.545 203.656C102.705 203.688 102.817 203.712 102.881 203.728V203.104C102.881 202.736 102.841 202.376 102.761 202.024C102.681 201.656 102.537 201.336 102.329 201.064C102.121 200.776 101.833 200.552 101.465 200.392C101.113 200.216 100.649 200.128 100.073 200.128C99.3365 200.128 98.6885 200.184 98.1285 200.296C97.5845 200.392 97.1765 200.496 96.9045 200.608L96.6405 198.76C96.9285 198.632 97.4085 198.512 98.0805 198.4C98.7525 198.272 99.4805 198.208 100.265 198.208ZM111.676 209.392C112.588 209.392 113.26 209.272 113.692 209.032C114.14 208.792 114.364 208.408 114.364 207.88C114.364 207.336 114.148 206.904 113.716 206.584C113.284 206.264 112.572 205.904 111.58 205.504C111.1 205.312 110.636 205.12 110.188 204.928C109.756 204.72 109.38 204.48 109.06 204.208C108.74 203.936 108.484 203.608 108.292 203.224C108.1 202.84 108.004 202.368 108.004 201.808C108.004 200.704 108.412 199.832 109.228 199.192C110.044 198.536 111.156 198.208 112.564 198.208C112.916 198.208 113.268 198.232 113.62 198.28C113.972 198.312 114.3 198.36 114.604 198.424C114.908 198.472 115.172 198.528 115.396 198.592C115.636 198.656 115.82 198.712 115.948 198.76L115.54 200.68C115.3 200.552 114.924 200.424 114.412 200.296C113.9 200.152 113.284 200.08 112.564 200.08C111.94 200.08 111.396 200.208 110.932 200.464C110.468 200.704 110.236 201.088 110.236 201.616C110.236 201.888 110.284 202.128 110.38 202.336C110.492 202.544 110.652 202.736 110.86 202.912C111.084 203.072 111.356 203.224 111.676 203.368C111.996 203.512 112.38 203.664 112.828 203.824C113.42 204.048 113.948 204.272 114.412 204.496C114.876 204.704 115.268 204.952 115.588 205.24C115.924 205.528 116.18 205.88 116.356 206.296C116.532 206.696 116.62 207.192 116.62 207.784C116.62 208.936 116.188 209.808 115.324 210.4C114.476 210.992 113.26 211.288 111.676 211.288C110.572 211.288 109.708 211.192 109.084 211C108.46 210.824 108.036 210.688 107.812 210.592L108.22 208.672C108.476 208.768 108.884 208.912 109.444 209.104C110.004 209.296 110.748 209.392 111.676 209.392ZM121.715 211H119.483V198.52H121.715V211ZM120.587 196.264C120.187 196.264 119.843 196.136 119.555 195.88C119.283 195.608 119.146 195.248 119.146 194.8C119.146 194.352 119.283 194 119.555 193.744C119.843 193.472 120.187 193.336 120.587 193.336C120.987 193.336 121.323 193.472 121.595 193.744C121.883 194 122.027 194.352 122.027 194.8C122.027 195.248 121.883 195.608 121.595 195.88C121.323 196.136 120.987 196.264 120.587 196.264ZM125.553 198.88C126.065 198.752 126.745 198.616 127.593 198.472C128.441 198.328 129.417 198.256 130.521 198.256C131.513 198.256 132.337 198.4 132.993 198.688C133.649 198.96 134.169 199.352 134.553 199.864C134.953 200.36 135.233 200.96 135.393 201.664C135.553 202.368 135.633 203.144 135.633 203.992V211H133.401V204.472C133.401 203.704 133.345 203.048 133.233 202.504C133.137 201.96 132.969 201.52 132.729 201.184C132.489 200.848 132.169 200.608 131.769 200.464C131.369 200.304 130.873 200.224 130.281 200.224C130.041 200.224 129.793 200.232 129.537 200.248C129.281 200.264 129.033 200.288 128.793 200.32C128.569 200.336 128.361 200.36 128.169 200.392C127.993 200.424 127.865 200.448 127.785 200.464V211H125.553V198.88ZM150.35 204.76C150.35 205.752 150.206 206.648 149.918 207.448C149.63 208.248 149.222 208.936 148.694 209.512C148.182 210.088 147.566 210.536 146.846 210.856C146.126 211.16 145.342 211.312 144.494 211.312C143.646 211.312 142.862 211.16 142.142 210.856C141.422 210.536 140.798 210.088 140.27 209.512C139.758 208.936 139.358 208.248 139.07 207.448C138.782 206.648 138.638 205.752 138.638 204.76C138.638 203.784 138.782 202.896 139.07 202.096C139.358 201.28 139.758 200.584 140.27 200.008C140.798 199.432 141.422 198.992 142.142 198.688C142.862 198.368 143.646 198.208 144.494 198.208C145.342 198.208 146.126 198.368 146.846 198.688C147.566 198.992 148.182 199.432 148.694 200.008C149.222 200.584 149.63 201.28 149.918 202.096C150.206 202.896 150.35 203.784 150.35 204.76ZM148.022 204.76C148.022 203.352 147.702 202.24 147.062 201.424C146.438 200.592 145.582 200.176 144.494 200.176C143.406 200.176 142.542 200.592 141.902 201.424C141.278 202.24 140.966 203.352 140.966 204.76C140.966 206.168 141.278 207.288 141.902 208.12C142.542 208.936 143.406 209.344 144.494 209.344C145.582 209.344 146.438 208.936 147.062 208.12C147.702 207.288 148.022 206.168 148.022 204.76Z" fill="#63BF60"/>
<path d="M2.36088 143V126.368H12.3929V128.36H4.68888V133.376H11.5289V135.344H4.68888V143H2.36088ZM17.3395 143H15.1075V130.52H17.3395V143ZM16.2115 128.264C15.8115 128.264 15.4675 128.136 15.1795 127.88C14.9075 127.608 14.7715 127.248 14.7715 126.8C14.7715 126.352 14.9075 126 15.1795 125.744C15.4675 125.472 15.8115 125.336 16.2115 125.336C16.6115 125.336 16.9475 125.472 17.2195 125.744C17.5075 126 17.6515 126.352 17.6515 126.8C17.6515 127.248 17.5075 127.608 17.2195 127.88C16.9475 128.136 16.6115 128.264 16.2115 128.264ZM29.0018 141.752C28.8098 141.88 28.4338 142.048 27.8738 142.256C27.3298 142.448 26.6898 142.544 25.9538 142.544C25.2018 142.544 24.4898 142.424 23.8178 142.184C23.1618 141.944 22.5858 141.576 22.0898 141.08C21.5938 140.568 21.2018 139.936 20.9138 139.184C20.6258 138.432 20.4818 137.536 20.4818 136.496C20.4818 135.584 20.6178 134.752 20.8898 134C21.1618 133.232 21.5538 132.576 22.0658 132.032C22.5938 131.472 23.2338 131.04 23.9858 130.736C24.7378 130.416 25.5858 130.256 26.5298 130.256C27.5698 130.256 28.4738 130.336 29.2418 130.496C30.0258 130.64 30.6818 130.776 31.2098 130.904V142.04C31.2098 143.96 30.7138 145.352 29.7218 146.216C28.7298 147.08 27.2258 147.512 25.2098 147.512C24.4258 147.512 23.6818 147.448 22.9778 147.32C22.2898 147.192 21.6898 147.04 21.1778 146.864L21.5858 144.92C22.0338 145.096 22.5778 145.248 23.2178 145.376C23.8738 145.52 24.5538 145.592 25.2578 145.592C26.5858 145.592 27.5378 145.328 28.1138 144.8C28.7058 144.272 29.0018 143.432 29.0018 142.28V141.752ZM28.9778 132.488C28.7538 132.424 28.4498 132.368 28.0658 132.32C27.6978 132.256 27.1938 132.224 26.5538 132.224C25.3538 132.224 24.4258 132.616 23.7698 133.4C23.1298 134.184 22.8098 135.224 22.8098 136.52C22.8098 137.24 22.8978 137.856 23.0738 138.368C23.2658 138.88 23.5138 139.304 23.8178 139.64C24.1378 139.976 24.4978 140.224 24.8978 140.384C25.3138 140.544 25.7378 140.624 26.1698 140.624C26.7618 140.624 27.3058 140.544 27.8018 140.384C28.2978 140.208 28.6898 140.008 28.9778 139.784V132.488ZM35.0528 143V124.76L37.2848 124.376V130.76C37.7008 130.6 38.1408 130.48 38.6048 130.4C39.0848 130.304 39.5568 130.256 40.0208 130.256C41.0128 130.256 41.8368 130.4 42.4928 130.688C43.1488 130.96 43.6688 131.352 44.0528 131.864C44.4528 132.36 44.7328 132.96 44.8928 133.664C45.0528 134.368 45.1328 135.144 45.1328 135.992V143H42.9008V136.472C42.9008 135.704 42.8448 135.048 42.7328 134.504C42.6368 133.96 42.4688 133.52 42.2288 133.184C41.9888 132.848 41.6688 132.608 41.2688 132.464C40.8688 132.304 40.3728 132.224 39.7808 132.224C39.5408 132.224 39.2928 132.24 39.0368 132.272C38.7808 132.304 38.5328 132.344 38.2928 132.392C38.0688 132.424 37.8608 132.464 37.6688 132.512C37.4928 132.56 37.3648 132.6 37.2848 132.632V143H35.0528ZM50.8518 130.52H55.5798V132.392H50.8518V138.152C50.8518 138.776 50.8998 139.296 50.9958 139.712C51.0918 140.112 51.2358 140.432 51.4278 140.672C51.6198 140.896 51.8598 141.056 52.1478 141.152C52.4358 141.248 52.7718 141.296 53.1558 141.296C53.8278 141.296 54.3638 141.224 54.7638 141.08C55.1798 140.92 55.4678 140.808 55.6278 140.744L56.0598 142.592C55.8358 142.704 55.4438 142.84 54.8838 143C54.3238 143.176 53.6838 143.264 52.9638 143.264C52.1158 143.264 51.4118 143.16 50.8518 142.952C50.3078 142.728 49.8678 142.4 49.5318 141.968C49.1958 141.536 48.9558 141.008 48.8118 140.384C48.6838 139.744 48.6198 139.008 48.6198 138.176V127.04L50.8518 126.656V130.52ZM60.652 143H58.42V130.52H60.652V143ZM59.524 128.264C59.124 128.264 58.78 128.136 58.492 127.88C58.22 127.608 58.084 127.248 58.084 126.8C58.084 126.352 58.22 126 58.492 125.744C58.78 125.472 59.124 125.336 59.524 125.336C59.924 125.336 60.26 125.472 60.532 125.744C60.82 126 60.964 126.352 60.964 126.8C60.964 127.248 60.82 127.608 60.532 127.88C60.26 128.136 59.924 128.264 59.524 128.264ZM64.4903 130.88C65.0023 130.752 65.6823 130.616 66.5303 130.472C67.3783 130.328 68.3543 130.256 69.4583 130.256C70.4503 130.256 71.2743 130.4 71.9303 130.688C72.5863 130.96 73.1063 131.352 73.4903 131.864C73.8903 132.36 74.1703 132.96 74.3303 133.664C74.4903 134.368 74.5703 135.144 74.5703 135.992V143H72.3383V136.472C72.3383 135.704 72.2823 135.048 72.1703 134.504C72.0743 133.96 71.9063 133.52 71.6663 133.184C71.4263 132.848 71.1063 132.608 70.7063 132.464C70.3063 132.304 69.8103 132.224 69.2183 132.224C68.9783 132.224 68.7303 132.232 68.4743 132.248C68.2183 132.264 67.9703 132.288 67.7303 132.32C67.5063 132.336 67.2983 132.36 67.1063 132.392C66.9303 132.424 66.8023 132.448 66.7223 132.464V143H64.4903V130.88ZM86.0956 141.752C85.9036 141.88 85.5276 142.048 84.9676 142.256C84.4236 142.448 83.7836 142.544 83.0476 142.544C82.2956 142.544 81.5836 142.424 80.9116 142.184C80.2556 141.944 79.6796 141.576 79.1836 141.08C78.6876 140.568 78.2956 139.936 78.0076 139.184C77.7196 138.432 77.5756 137.536 77.5756 136.496C77.5756 135.584 77.7116 134.752 77.9836 134C78.2556 133.232 78.6476 132.576 79.1596 132.032C79.6876 131.472 80.3276 131.04 81.0796 130.736C81.8316 130.416 82.6796 130.256 83.6236 130.256C84.6636 130.256 85.5676 130.336 86.3356 130.496C87.1196 130.64 87.7756 130.776 88.3036 130.904V142.04C88.3036 143.96 87.8076 145.352 86.8156 146.216C85.8236 147.08 84.3196 147.512 82.3036 147.512C81.5196 147.512 80.7756 147.448 80.0716 147.32C79.3836 147.192 78.7836 147.04 78.2716 146.864L78.6796 144.92C79.1276 145.096 79.6716 145.248 80.3116 145.376C80.9676 145.52 81.6476 145.592 82.3516 145.592C83.6796 145.592 84.6316 145.328 85.2076 144.8C85.7996 144.272 86.0956 143.432 86.0956 142.28V141.752ZM86.0716 132.488C85.8476 132.424 85.5436 132.368 85.1596 132.32C84.7916 132.256 84.2876 132.224 83.6476 132.224C82.4476 132.224 81.5196 132.616 80.8636 133.4C80.2236 134.184 79.9036 135.224 79.9036 136.52C79.9036 137.24 79.9916 137.856 80.1676 138.368C80.3596 138.88 80.6076 139.304 80.9116 139.64C81.2316 139.976 81.5916 140.224 81.9916 140.384C82.4076 140.544 82.8316 140.624 83.2636 140.624C83.8556 140.624 84.3996 140.544 84.8956 140.384C85.3916 140.208 85.7836 140.008 86.0716 139.784V132.488ZM105.981 136.04C106.237 136.36 106.557 136.784 106.941 137.312C107.341 137.824 107.749 138.4 108.165 139.04C108.581 139.664 108.989 140.32 109.389 141.008C109.805 141.696 110.157 142.36 110.445 143H107.901C107.581 142.392 107.229 141.776 106.845 141.152C106.477 140.528 106.101 139.936 105.717 139.376C105.333 138.8 104.949 138.264 104.565 137.768C104.197 137.272 103.861 136.84 103.557 136.472C103.349 136.488 103.133 136.496 102.909 136.496C102.701 136.496 102.485 136.496 102.261 136.496H100.173V143H97.8453V126.608C98.5013 126.448 99.2293 126.344 100.029 126.296C100.845 126.232 101.589 126.2 102.261 126.2C104.597 126.2 106.373 126.64 107.589 127.52C108.821 128.4 109.437 129.712 109.437 131.456C109.437 132.56 109.141 133.504 108.549 134.288C107.973 135.072 107.117 135.656 105.981 136.04ZM102.453 128.24C101.461 128.24 100.701 128.264 100.173 128.312V134.576H101.829C102.629 134.576 103.349 134.536 103.989 134.456C104.629 134.376 105.165 134.224 105.597 134C106.045 133.776 106.389 133.464 106.629 133.064C106.869 132.648 106.989 132.104 106.989 131.432C106.989 130.808 106.869 130.288 106.629 129.872C106.389 129.456 106.061 129.128 105.645 128.888C105.245 128.648 104.765 128.48 104.205 128.384C103.661 128.288 103.077 128.24 102.453 128.24ZM123.811 136.76C123.811 137.752 123.667 138.648 123.379 139.448C123.091 140.248 122.683 140.936 122.155 141.512C121.643 142.088 121.027 142.536 120.307 142.856C119.587 143.16 118.803 143.312 117.955 143.312C117.107 143.312 116.323 143.16 115.603 142.856C114.883 142.536 114.259 142.088 113.731 141.512C113.219 140.936 112.819 140.248 112.531 139.448C112.243 138.648 112.099 137.752 112.099 136.76C112.099 135.784 112.243 134.896 112.531 134.096C112.819 133.28 113.219 132.584 113.731 132.008C114.259 131.432 114.883 130.992 115.603 130.688C116.323 130.368 117.107 130.208 117.955 130.208C118.803 130.208 119.587 130.368 120.307 130.688C121.027 130.992 121.643 131.432 122.155 132.008C122.683 132.584 123.091 133.28 123.379 134.096C123.667 134.896 123.811 135.784 123.811 136.76ZM121.483 136.76C121.483 135.352 121.163 134.24 120.523 133.424C119.899 132.592 119.043 132.176 117.955 132.176C116.867 132.176 116.003 132.592 115.363 133.424C114.739 134.24 114.427 135.352 114.427 136.76C114.427 138.168 114.739 139.288 115.363 140.12C116.003 140.936 116.867 141.344 117.955 141.344C119.043 141.344 119.899 140.936 120.523 140.12C121.163 139.288 121.483 138.168 121.483 136.76ZM131.175 141.392C131.703 141.392 132.167 141.384 132.567 141.368C132.983 141.336 133.327 141.288 133.599 141.224V137.504C133.439 137.424 133.175 137.36 132.807 137.312C132.455 137.248 132.023 137.216 131.511 137.216C131.175 137.216 130.815 137.24 130.431 137.288C130.063 137.336 129.719 137.44 129.399 137.6C129.095 137.744 128.839 137.952 128.631 138.224C128.423 138.48 128.319 138.824 128.319 139.256C128.319 140.056 128.575 140.616 129.087 140.936C129.599 141.24 130.295 141.392 131.175 141.392ZM130.983 130.208C131.879 130.208 132.631 130.328 133.239 130.568C133.863 130.792 134.359 131.12 134.727 131.552C135.111 131.968 135.383 132.472 135.543 133.064C135.703 133.64 135.783 134.28 135.783 134.984V142.784C135.591 142.816 135.319 142.864 134.967 142.928C134.631 142.976 134.247 143.024 133.815 143.072C133.383 143.12 132.911 143.16 132.399 143.192C131.903 143.24 131.407 143.264 130.911 143.264C130.207 143.264 129.559 143.192 128.967 143.048C128.375 142.904 127.863 142.68 127.431 142.376C126.999 142.056 126.663 141.64 126.423 141.128C126.183 140.616 126.063 140 126.063 139.28C126.063 138.592 126.199 138 126.471 137.504C126.759 137.008 127.143 136.608 127.623 136.304C128.103 136 128.663 135.776 129.303 135.632C129.943 135.488 130.615 135.416 131.319 135.416C131.543 135.416 131.775 135.432 132.015 135.464C132.255 135.48 132.479 135.512 132.687 135.56C132.911 135.592 133.103 135.624 133.263 135.656C133.423 135.688 133.535 135.712 133.599 135.728V135.104C133.599 134.736 133.559 134.376 133.479 134.024C133.399 133.656 133.255 133.336 133.047 133.064C132.839 132.776 132.551 132.552 132.183 132.392C131.831 132.216 131.367 132.128 130.791 132.128C130.055 132.128 129.407 132.184 128.847 132.296C128.303 132.392 127.895 132.496 127.623 132.608L127.359 130.76C127.647 130.632 128.127 130.512 128.799 130.4C129.471 130.272 130.199 130.208 130.983 130.208ZM147.554 133.16C147.282 132.936 146.89 132.72 146.378 132.512C145.866 132.304 145.306 132.2 144.698 132.2C144.058 132.2 143.506 132.32 143.042 132.56C142.594 132.784 142.226 133.104 141.938 133.52C141.65 133.92 141.442 134.4 141.314 134.96C141.186 135.52 141.122 136.12 141.122 136.76C141.122 138.216 141.482 139.344 142.202 140.144C142.922 140.928 143.882 141.32 145.082 141.32C145.69 141.32 146.194 141.296 146.594 141.248C147.01 141.184 147.33 141.12 147.554 141.056V133.16ZM147.554 124.76L149.786 124.376V142.64C149.274 142.784 148.618 142.928 147.818 143.072C147.018 143.216 146.098 143.288 145.058 143.288C144.098 143.288 143.234 143.136 142.466 142.832C141.698 142.528 141.042 142.096 140.498 141.536C139.954 140.976 139.53 140.296 139.226 139.496C138.938 138.68 138.794 137.768 138.794 136.76C138.794 135.8 138.914 134.92 139.154 134.12C139.41 133.32 139.778 132.632 140.258 132.056C140.738 131.48 141.322 131.032 142.01 130.712C142.714 130.392 143.514 130.232 144.41 130.232C145.13 130.232 145.762 130.328 146.306 130.52C146.866 130.712 147.282 130.896 147.554 131.072V124.76Z" fill="#63BF60"/>
<path d="M976.166 152V135.368H986.198V137.36H978.494V142.376H985.334V144.344H978.494V152H976.166ZM992.841 139.256C993.033 139.256 993.249 139.272 993.489 139.304C993.745 139.32 993.993 139.352 994.233 139.4C994.473 139.432 994.689 139.472 994.881 139.52C995.089 139.552 995.241 139.584 995.337 139.616L994.953 141.56C994.777 141.496 994.481 141.424 994.065 141.344C993.665 141.248 993.145 141.2 992.505 141.2C992.089 141.2 991.673 141.248 991.257 141.344C990.857 141.424 990.593 141.48 990.465 141.512V152H988.233V140.048C988.761 139.856 989.417 139.68 990.201 139.52C990.985 139.344 991.865 139.256 992.841 139.256ZM1008.51 145.76C1008.51 146.752 1008.36 147.648 1008.07 148.448C1007.79 149.248 1007.38 149.936 1006.85 150.512C1006.34 151.088 1005.72 151.536 1005 151.856C1004.28 152.16 1003.5 152.312 1002.65 152.312C1001.8 152.312 1001.02 152.16 1000.3 151.856C999.578 151.536 998.954 151.088 998.426 150.512C997.914 149.936 997.514 149.248 997.226 148.448C996.938 147.648 996.794 146.752 996.794 145.76C996.794 144.784 996.938 143.896 997.226 143.096C997.514 142.28 997.914 141.584 998.426 141.008C998.954 140.432 999.578 139.992 1000.3 139.688C1001.02 139.368 1001.8 139.208 1002.65 139.208C1003.5 139.208 1004.28 139.368 1005 139.688C1005.72 139.992 1006.34 140.432 1006.85 141.008C1007.38 141.584 1007.79 142.28 1008.07 143.096C1008.36 143.896 1008.51 144.784 1008.51 145.76ZM1006.18 145.76C1006.18 144.352 1005.86 143.24 1005.22 142.424C1004.59 141.592 1003.74 141.176 1002.65 141.176C1001.56 141.176 1000.7 141.592 1000.06 142.424C999.434 143.24 999.122 144.352 999.122 145.76C999.122 147.168 999.434 148.288 1000.06 149.12C1000.7 149.936 1001.56 150.344 1002.65 150.344C1003.74 150.344 1004.59 149.936 1005.22 149.12C1005.86 148.288 1006.18 147.168 1006.18 145.76ZM1011.65 139.88C1012.16 139.752 1012.84 139.616 1013.69 139.472C1014.53 139.328 1015.51 139.256 1016.61 139.256C1017.61 139.256 1018.43 139.4 1019.09 139.688C1019.74 139.96 1020.26 140.352 1020.65 140.864C1021.05 141.36 1021.33 141.96 1021.49 142.664C1021.65 143.368 1021.73 144.144 1021.73 144.992V152H1019.49V145.472C1019.49 144.704 1019.44 144.048 1019.33 143.504C1019.23 142.96 1019.06 142.52 1018.82 142.184C1018.58 141.848 1018.26 141.608 1017.86 141.464C1017.46 141.304 1016.97 141.224 1016.37 141.224C1016.13 141.224 1015.89 141.232 1015.63 141.248C1015.37 141.264 1015.13 141.288 1014.89 141.32C1014.66 141.336 1014.45 141.36 1014.26 141.392C1014.09 141.424 1013.96 141.448 1013.88 141.464V152H1011.65V139.88ZM1027.52 139.52H1032.24V141.392H1027.52V147.152C1027.52 147.776 1027.56 148.296 1027.66 148.712C1027.76 149.112 1027.9 149.432 1028.09 149.672C1028.28 149.896 1028.52 150.056 1028.81 150.152C1029.1 150.248 1029.44 150.296 1029.82 150.296C1030.49 150.296 1031.03 150.224 1031.43 150.08C1031.84 149.92 1032.13 149.808 1032.29 149.744L1032.72 151.592C1032.5 151.704 1032.11 151.84 1031.55 152C1030.99 152.176 1030.35 152.264 1029.63 152.264C1028.78 152.264 1028.08 152.16 1027.52 151.952C1026.97 151.728 1026.53 151.4 1026.2 150.968C1025.86 150.536 1025.62 150.008 1025.48 149.384C1025.35 148.744 1025.28 148.008 1025.28 147.176V136.04L1027.52 135.656V139.52ZM1037.32 152H1035.08V139.52H1037.32V152ZM1036.19 137.264C1035.79 137.264 1035.44 137.136 1035.16 136.88C1034.88 136.608 1034.75 136.248 1034.75 135.8C1034.75 135.352 1034.88 135 1035.16 134.744C1035.44 134.472 1035.79 134.336 1036.19 134.336C1036.59 134.336 1036.92 134.472 1037.2 134.744C1037.48 135 1037.63 135.352 1037.63 135.8C1037.63 136.248 1037.48 136.608 1037.2 136.88C1036.92 137.136 1036.59 137.264 1036.19 137.264ZM1040.46 145.784C1040.46 144.68 1040.62 143.72 1040.94 142.904C1041.26 142.072 1041.68 141.384 1042.21 140.84C1042.74 140.296 1043.35 139.888 1044.03 139.616C1044.72 139.344 1045.43 139.208 1046.15 139.208C1047.83 139.208 1049.11 139.736 1050.01 140.792C1050.91 141.832 1051.35 143.424 1051.35 145.568C1051.35 145.664 1051.35 145.792 1051.35 145.952C1051.35 146.096 1051.35 146.232 1051.33 146.36H1042.79C1042.88 147.656 1043.26 148.64 1043.91 149.312C1044.57 149.984 1045.59 150.32 1046.99 150.32C1047.77 150.32 1048.43 150.256 1048.95 150.128C1049.5 149.984 1049.91 149.848 1050.18 149.72L1050.49 151.592C1050.22 151.736 1049.74 151.888 1049.05 152.048C1048.38 152.208 1047.61 152.288 1046.75 152.288C1045.66 152.288 1044.71 152.128 1043.91 151.808C1043.13 151.472 1042.48 151.016 1041.97 150.44C1041.46 149.864 1041.07 149.184 1040.82 148.4C1040.58 147.6 1040.46 146.728 1040.46 145.784ZM1049.03 144.56C1049.04 143.552 1048.79 142.728 1048.26 142.088C1047.75 141.432 1047.03 141.104 1046.12 141.104C1045.61 141.104 1045.15 141.208 1044.75 141.416C1044.37 141.608 1044.04 141.864 1043.77 142.184C1043.5 142.504 1043.28 142.872 1043.12 143.288C1042.98 143.704 1042.88 144.128 1042.83 144.56H1049.03ZM1059.17 139.256C1059.36 139.256 1059.58 139.272 1059.82 139.304C1060.07 139.32 1060.32 139.352 1060.56 139.4C1060.8 139.432 1061.02 139.472 1061.21 139.52C1061.42 139.552 1061.57 139.584 1061.66 139.616L1061.28 141.56C1061.1 141.496 1060.81 141.424 1060.39 141.344C1059.99 141.248 1059.47 141.2 1058.83 141.2C1058.42 141.2 1058 141.248 1057.58 141.344C1057.18 141.424 1056.92 141.48 1056.79 141.512V152H1054.56V140.048C1055.09 139.856 1055.74 139.68 1056.53 139.52C1057.31 139.344 1058.19 139.256 1059.17 139.256Z" fill="#63BF60"/>
<path d="M986.794 62.368H989.122V79H986.794V71.32H978.658V79H976.33V62.368H978.658V69.304H986.794V62.368ZM1004.12 72.76C1004.12 73.752 1003.98 74.648 1003.69 75.448C1003.4 76.248 1003 76.936 1002.47 77.512C1001.96 78.088 1001.34 78.536 1000.62 78.856C999.9 79.16 999.116 79.312 998.268 79.312C997.42 79.312 996.636 79.16 995.916 78.856C995.196 78.536 994.572 78.088 994.044 77.512C993.532 76.936 993.132 76.248 992.844 75.448C992.556 74.648 992.412 73.752 992.412 72.76C992.412 71.784 992.556 70.896 992.844 70.096C993.132 69.28 993.532 68.584 994.044 68.008C994.572 67.432 995.196 66.992 995.916 66.688C996.636 66.368 997.42 66.208 998.268 66.208C999.116 66.208 999.9 66.368 1000.62 66.688C1001.34 66.992 1001.96 67.432 1002.47 68.008C1003 68.584 1003.4 69.28 1003.69 70.096C1003.98 70.896 1004.12 71.784 1004.12 72.76ZM1001.8 72.76C1001.8 71.352 1001.48 70.24 1000.84 69.424C1000.21 68.592 999.356 68.176 998.268 68.176C997.18 68.176 996.316 68.592 995.676 69.424C995.052 70.24 994.74 71.352 994.74 72.76C994.74 74.168 995.052 75.288 995.676 76.12C996.316 76.936 997.18 77.344 998.268 77.344C999.356 77.344 1000.21 76.936 1000.84 76.12C1001.48 75.288 1001.8 74.168 1001.8 72.76ZM1009.35 66.52H1014.08V68.392H1009.35V74.152C1009.35 74.776 1009.4 75.296 1009.5 75.712C1009.59 76.112 1009.74 76.432 1009.93 76.672C1010.12 76.896 1010.36 77.056 1010.65 77.152C1010.94 77.248 1011.27 77.296 1011.66 77.296C1012.33 77.296 1012.86 77.224 1013.26 77.08C1013.68 76.92 1013.97 76.808 1014.13 76.744L1014.56 78.592C1014.34 78.704 1013.94 78.84 1013.38 79C1012.82 79.176 1012.18 79.264 1011.46 79.264C1010.62 79.264 1009.91 79.16 1009.35 78.952C1008.81 78.728 1008.37 78.4 1008.03 77.968C1007.7 77.536 1007.46 77.008 1007.31 76.384C1007.18 75.744 1007.12 75.008 1007.12 74.176V63.04L1009.35 62.656V66.52ZM1015.99 72.784C1015.99 71.68 1016.15 70.72 1016.47 69.904C1016.79 69.072 1017.21 68.384 1017.74 67.84C1018.27 67.296 1018.88 66.888 1019.57 66.616C1020.25 66.344 1020.96 66.208 1021.68 66.208C1023.36 66.208 1024.65 66.736 1025.54 67.792C1026.44 68.832 1026.89 70.424 1026.89 72.568C1026.89 72.664 1026.89 72.792 1026.89 72.952C1026.89 73.096 1026.88 73.232 1026.86 73.36H1018.32C1018.41 74.656 1018.79 75.64 1019.45 76.312C1020.1 76.984 1021.13 77.32 1022.52 77.32C1023.3 77.32 1023.96 77.256 1024.49 77.128C1025.03 76.984 1025.44 76.848 1025.71 76.72L1026.02 78.592C1025.75 78.736 1025.27 78.888 1024.58 79.048C1023.91 79.208 1023.14 79.288 1022.28 79.288C1021.19 79.288 1020.25 79.128 1019.45 78.808C1018.66 78.472 1018.01 78.016 1017.5 77.44C1016.99 76.864 1016.61 76.184 1016.35 75.4C1016.11 74.6 1015.99 73.728 1015.99 72.784ZM1024.56 71.56C1024.57 70.552 1024.32 69.728 1023.79 69.088C1023.28 68.432 1022.57 68.104 1021.65 68.104C1021.14 68.104 1020.69 68.208 1020.29 68.416C1019.9 68.608 1019.57 68.864 1019.3 69.184C1019.03 69.504 1018.81 69.872 1018.65 70.288C1018.51 70.704 1018.41 71.128 1018.37 71.56H1024.56ZM1033.84 79.24C1032.46 79.208 1031.48 78.912 1030.91 78.352C1030.33 77.792 1030.04 76.92 1030.04 75.736V60.76L1032.28 60.376V75.376C1032.28 75.744 1032.31 76.048 1032.37 76.288C1032.44 76.528 1032.54 76.72 1032.68 76.864C1032.83 77.008 1033.02 77.12 1033.26 77.2C1033.5 77.264 1033.8 77.32 1034.15 77.368L1033.84 79.24Z" fill="#63BF60"/>
<path d="M73.2867 72V55.368H83.3187V57.36H75.6147V62.376H82.4547V64.344H75.6147V72H73.2867ZM89.0385 70.392C89.5665 70.392 90.0305 70.384 90.4305 70.368C90.8465 70.336 91.1905 70.288 91.4625 70.224V66.504C91.3025 66.424 91.0385 66.36 90.6705 66.312C90.3185 66.248 89.8865 66.216 89.3745 66.216C89.0385 66.216 88.6785 66.24 88.2945 66.288C87.9265 66.336 87.5825 66.44 87.2625 66.6C86.9585 66.744 86.7025 66.952 86.4945 67.224C86.2865 67.48 86.1825 67.824 86.1825 68.256C86.1825 69.056 86.4385 69.616 86.9505 69.936C87.4625 70.24 88.1585 70.392 89.0385 70.392ZM88.8465 59.208C89.7425 59.208 90.4945 59.328 91.1025 59.568C91.7265 59.792 92.2225 60.12 92.5905 60.552C92.9745 60.968 93.2465 61.472 93.4065 62.064C93.5665 62.64 93.6465 63.28 93.6465 63.984V71.784C93.4545 71.816 93.1825 71.864 92.8305 71.928C92.4945 71.976 92.1105 72.024 91.6785 72.072C91.2465 72.12 90.7745 72.16 90.2625 72.192C89.7665 72.24 89.2705 72.264 88.7745 72.264C88.0705 72.264 87.4225 72.192 86.8305 72.048C86.2385 71.904 85.7265 71.68 85.2945 71.376C84.8625 71.056 84.5265 70.64 84.2865 70.128C84.0465 69.616 83.9265 69 83.9265 68.28C83.9265 67.592 84.0625 67 84.3345 66.504C84.6225 66.008 85.0065 65.608 85.4865 65.304C85.9665 65 86.5265 64.776 87.1665 64.632C87.8065 64.488 88.4785 64.416 89.1825 64.416C89.4065 64.416 89.6385 64.432 89.8785 64.464C90.1185 64.48 90.3425 64.512 90.5505 64.56C90.7745 64.592 90.9665 64.624 91.1265 64.656C91.2865 64.688 91.3985 64.712 91.4625 64.728V64.104C91.4625 63.736 91.4225 63.376 91.3425 63.024C91.2625 62.656 91.1185 62.336 90.9105 62.064C90.7025 61.776 90.4145 61.552 90.0465 61.392C89.6945 61.216 89.2305 61.128 88.6545 61.128C87.9185 61.128 87.2705 61.184 86.7105 61.296C86.1665 61.392 85.7585 61.496 85.4865 61.608L85.2225 59.76C85.5105 59.632 85.9905 59.512 86.6625 59.4C87.3345 59.272 88.0625 59.208 88.8465 59.208ZM102.778 72.288C101.77 72.288 100.882 72.128 100.114 71.808C99.3616 71.488 98.7216 71.04 98.1936 70.464C97.6816 69.888 97.2976 69.208 97.0416 68.424C96.7856 67.624 96.6576 66.744 96.6576 65.784C96.6576 64.824 96.7936 63.944 97.0656 63.144C97.3536 62.344 97.7536 61.656 98.2656 61.08C98.7776 60.488 99.4016 60.032 100.138 59.712C100.89 59.376 101.722 59.208 102.634 59.208C103.194 59.208 103.754 59.256 104.314 59.352C104.874 59.448 105.41 59.6 105.922 59.808L105.418 61.704C105.082 61.544 104.69 61.416 104.242 61.32C103.81 61.224 103.346 61.176 102.85 61.176C101.602 61.176 100.642 61.568 99.9696 62.352C99.3136 63.136 98.9856 64.28 98.9856 65.784C98.9856 66.456 99.0576 67.072 99.2016 67.632C99.3616 68.192 99.6016 68.672 99.9216 69.072C100.258 69.472 100.682 69.784 101.194 70.008C101.706 70.216 102.33 70.32 103.066 70.32C103.658 70.32 104.194 70.264 104.674 70.152C105.154 70.04 105.53 69.92 105.802 69.792L106.114 71.664C105.986 71.744 105.802 71.824 105.562 71.904C105.322 71.968 105.05 72.024 104.746 72.072C104.442 72.136 104.114 72.184 103.762 72.216C103.426 72.264 103.098 72.288 102.778 72.288ZM110.598 59.52H115.326V61.392H110.598V67.152C110.598 67.776 110.646 68.296 110.742 68.712C110.838 69.112 110.982 69.432 111.174 69.672C111.366 69.896 111.606 70.056 111.894 70.152C112.182 70.248 112.518 70.296 112.902 70.296C113.574 70.296 114.11 70.224 114.51 70.08C114.926 69.92 115.214 69.808 115.374 69.744L115.806 71.592C115.582 71.704 115.19 71.84 114.63 72C114.07 72.176 113.43 72.264 112.71 72.264C111.862 72.264 111.158 72.16 110.598 71.952C110.054 71.728 109.614 71.4 109.278 70.968C108.942 70.536 108.702 70.008 108.558 69.384C108.43 68.744 108.366 68.008 108.366 67.176V56.04L110.598 55.656V59.52ZM128.854 65.76C128.854 66.752 128.71 67.648 128.422 68.448C128.134 69.248 127.726 69.936 127.198 70.512C126.686 71.088 126.07 71.536 125.35 71.856C124.63 72.16 123.846 72.312 122.998 72.312C122.15 72.312 121.366 72.16 120.646 71.856C119.926 71.536 119.302 71.088 118.774 70.512C118.262 69.936 117.862 69.248 117.574 68.448C117.286 67.648 117.142 66.752 117.142 65.76C117.142 64.784 117.286 63.896 117.574 63.096C117.862 62.28 118.262 61.584 118.774 61.008C119.302 60.432 119.926 59.992 120.646 59.688C121.366 59.368 122.15 59.208 122.998 59.208C123.846 59.208 124.63 59.368 125.35 59.688C126.07 59.992 126.686 60.432 127.198 61.008C127.726 61.584 128.134 62.28 128.422 63.096C128.71 63.896 128.854 64.784 128.854 65.76ZM126.526 65.76C126.526 64.352 126.206 63.24 125.566 62.424C124.942 61.592 124.086 61.176 122.998 61.176C121.91 61.176 121.046 61.592 120.406 62.424C119.782 63.24 119.47 64.352 119.47 65.76C119.47 67.168 119.782 68.288 120.406 69.12C121.046 69.936 121.91 70.344 122.998 70.344C124.086 70.344 124.942 69.936 125.566 69.12C126.206 68.288 126.526 67.168 126.526 65.76ZM136.602 59.256C136.794 59.256 137.01 59.272 137.25 59.304C137.506 59.32 137.754 59.352 137.994 59.4C138.234 59.432 138.45 59.472 138.642 59.52C138.85 59.552 139.002 59.584 139.098 59.616L138.714 61.56C138.538 61.496 138.242 61.424 137.826 61.344C137.426 61.248 136.906 61.2 136.266 61.2C135.85 61.2 135.434 61.248 135.018 61.344C134.618 61.424 134.354 61.48 134.226 61.512V72H131.994V60.048C132.522 59.856 133.178 59.68 133.962 59.52C134.746 59.344 135.626 59.256 136.602 59.256ZM140.304 74.328C140.48 74.408 140.704 74.48 140.976 74.544C141.264 74.624 141.544 74.664 141.816 74.664C142.696 74.664 143.384 74.464 143.88 74.064C144.376 73.68 144.824 73.048 145.224 72.168C144.216 70.248 143.272 68.216 142.392 66.072C141.528 63.912 140.808 61.728 140.232 59.52H142.632C142.808 60.24 143.016 61.016 143.256 61.848C143.512 62.68 143.792 63.536 144.096 64.416C144.4 65.296 144.728 66.176 145.08 67.056C145.432 67.936 145.8 68.784 146.184 69.6C146.792 67.92 147.32 66.256 147.768 64.608C148.216 62.96 148.64 61.264 149.04 59.52H151.344C150.768 61.872 150.128 64.136 149.424 66.312C148.72 68.472 147.96 70.496 147.144 72.384C146.824 73.104 146.488 73.72 146.136 74.232C145.8 74.76 145.424 75.192 145.008 75.528C144.592 75.864 144.12 76.112 143.592 76.272C143.08 76.432 142.496 76.512 141.84 76.512C141.664 76.512 141.48 76.496 141.288 76.464C141.096 76.448 140.904 76.416 140.712 76.368C140.536 76.336 140.368 76.296 140.208 76.248C140.064 76.2 139.96 76.16 139.896 76.128L140.304 74.328Z" fill="#63BF60"/>
<path d="M980.911 268.144C980.575 268.144 980.207 268.136 979.807 268.12C979.423 268.104 979.031 268.08 978.631 268.048C978.247 268.016 977.863 267.976 977.479 267.928C977.095 267.88 976.743 267.816 976.423 267.736V251.608C976.743 251.528 977.095 251.464 977.479 251.416C977.863 251.368 978.247 251.328 978.631 251.296C979.031 251.264 979.423 251.24 979.807 251.224C980.191 251.208 980.551 251.2 980.887 251.2C981.847 251.2 982.743 251.272 983.575 251.416C984.423 251.56 985.151 251.808 985.759 252.16C986.383 252.496 986.871 252.944 987.223 253.504C987.575 254.064 987.751 254.752 987.751 255.568C987.751 256.48 987.535 257.232 987.103 257.824C986.671 258.4 986.095 258.832 985.375 259.12C986.351 259.408 987.127 259.864 987.703 260.488C988.279 261.112 988.567 261.992 988.567 263.128C988.567 264.792 987.951 266.048 986.719 266.896C985.503 267.728 983.567 268.144 980.911 268.144ZM978.727 260.248V266.104C978.903 266.12 979.111 266.136 979.351 266.152C979.559 266.168 979.799 266.184 980.071 266.2C980.359 266.2 980.687 266.2 981.055 266.2C981.743 266.2 982.391 266.16 982.999 266.08C983.623 265.984 984.167 265.824 984.631 265.6C985.095 265.376 985.463 265.064 985.735 264.664C986.023 264.264 986.167 263.76 986.167 263.152C986.167 262.608 986.063 262.152 985.855 261.784C985.647 261.4 985.343 261.096 984.943 260.872C984.559 260.648 984.095 260.488 983.551 260.392C983.007 260.296 982.399 260.248 981.727 260.248H978.727ZM978.727 258.376H981.175C981.751 258.376 982.295 258.336 982.807 258.256C983.319 258.176 983.759 258.032 984.127 257.824C984.511 257.616 984.807 257.344 985.015 257.008C985.239 256.672 985.351 256.248 985.351 255.736C985.351 255.256 985.239 254.856 985.015 254.536C984.791 254.2 984.479 253.936 984.079 253.744C983.695 253.536 983.239 253.384 982.711 253.288C982.183 253.192 981.623 253.144 981.031 253.144C980.439 253.144 979.975 253.152 979.639 253.168C979.303 253.184 978.999 253.208 978.727 253.24V258.376ZM995.925 266.392C996.453 266.392 996.917 266.384 997.317 266.368C997.733 266.336 998.077 266.288 998.349 266.224V262.504C998.189 262.424 997.925 262.36 997.557 262.312C997.205 262.248 996.773 262.216 996.261 262.216C995.925 262.216 995.565 262.24 995.181 262.288C994.813 262.336 994.469 262.44 994.149 262.6C993.845 262.744 993.589 262.952 993.381 263.224C993.173 263.48 993.069 263.824 993.069 264.256C993.069 265.056 993.325 265.616 993.837 265.936C994.349 266.24 995.045 266.392 995.925 266.392ZM995.733 255.208C996.629 255.208 997.381 255.328 997.989 255.568C998.613 255.792 999.109 256.12 999.477 256.552C999.861 256.968 1000.13 257.472 1000.29 258.064C1000.45 258.64 1000.53 259.28 1000.53 259.984V267.784C1000.34 267.816 1000.07 267.864 999.717 267.928C999.381 267.976 998.997 268.024 998.565 268.072C998.133 268.12 997.661 268.16 997.149 268.192C996.653 268.24 996.157 268.264 995.661 268.264C994.957 268.264 994.309 268.192 993.717 268.048C993.125 267.904 992.613 267.68 992.181 267.376C991.749 267.056 991.413 266.64 991.173 266.128C990.933 265.616 990.813 265 990.813 264.28C990.813 263.592 990.949 263 991.221 262.504C991.509 262.008 991.893 261.608 992.373 261.304C992.853 261 993.413 260.776 994.053 260.632C994.693 260.488 995.365 260.416 996.069 260.416C996.293 260.416 996.525 260.432 996.765 260.464C997.005 260.48 997.229 260.512 997.437 260.56C997.661 260.592 997.853 260.624 998.013 260.656C998.173 260.688 998.285 260.712 998.349 260.728V260.104C998.349 259.736 998.309 259.376 998.229 259.024C998.149 258.656 998.005 258.336 997.797 258.064C997.589 257.776 997.301 257.552 996.933 257.392C996.581 257.216 996.117 257.128 995.541 257.128C994.805 257.128 994.157 257.184 993.597 257.296C993.053 257.392 992.645 257.496 992.373 257.608L992.109 255.76C992.397 255.632 992.877 255.512 993.549 255.4C994.221 255.272 994.949 255.208 995.733 255.208ZM1004.24 255.88C1004.75 255.752 1005.43 255.616 1006.28 255.472C1007.13 255.328 1008.1 255.256 1009.21 255.256C1010.2 255.256 1011.02 255.4 1011.68 255.688C1012.34 255.96 1012.86 256.352 1013.24 256.864C1013.64 257.36 1013.92 257.96 1014.08 258.664C1014.24 259.368 1014.32 260.144 1014.32 260.992V268H1012.09V261.472C1012.09 260.704 1012.03 260.048 1011.92 259.504C1011.82 258.96 1011.66 258.52 1011.42 258.184C1011.18 257.848 1010.86 257.608 1010.46 257.464C1010.06 257.304 1009.56 257.224 1008.97 257.224C1008.73 257.224 1008.48 257.232 1008.22 257.248C1007.97 257.264 1007.72 257.288 1007.48 257.32C1007.26 257.336 1007.05 257.36 1006.86 257.392C1006.68 257.424 1006.55 257.448 1006.47 257.464V268H1004.24V255.88ZM1022.53 261.136C1023.01 261.504 1023.52 261.96 1024.05 262.504C1024.59 263.048 1025.12 263.64 1025.63 264.28C1026.16 264.904 1026.65 265.544 1027.12 266.2C1027.58 266.84 1027.97 267.44 1028.29 268H1025.68C1025.34 267.44 1024.95 266.872 1024.5 266.296C1024.07 265.704 1023.61 265.144 1023.13 264.616C1022.65 264.072 1022.17 263.576 1021.67 263.128C1021.17 262.68 1020.7 262.304 1020.25 262V268H1018.02V249.76L1020.25 249.376V260.752C1020.64 260.368 1021.06 259.944 1021.53 259.48C1021.99 259.016 1022.45 258.544 1022.89 258.064C1023.34 257.584 1023.77 257.128 1024.17 256.696C1024.57 256.248 1024.91 255.856 1025.2 255.52H1027.81C1027.45 255.92 1027.05 256.36 1026.61 256.84C1026.18 257.32 1025.73 257.808 1025.27 258.304C1024.81 258.784 1024.33 259.272 1023.85 259.768C1023.39 260.248 1022.95 260.704 1022.53 261.136Z" fill="#63BF60"/>
<defs>
<filter id="filter0_d" x="624.81" y="134.959" width="23.7836" height="22.6435" filterUnits="userSpaceOnUse" color-interpolation-filters="sRGB">
<feFlood flood-opacity="0" result="BackgroundImageFix"/>
<feColorMatrix in="SourceAlpha" type="matrix" values="0 0 0 0 0 0 0 0 0 0 0 0 0 0 0 0 0 0 127 0"/>
<feOffset dy="2"/>
<feGaussianBlur stdDeviation="2"/>
<feColorMatrix type="matrix" values="0 0 0 0 0 0 0 0 0 0 0 0 0 0 0 0 0 0 0.25 0"/>
<feBlend mode="normal" in2="BackgroundImageFix" result="effect1_dropShadow"/>
<feBlend mode="normal" in="SourceGraphic" in2="effect1_dropShadow" result="shape"/>
</filter>
<filter id="filter1_d" x="530.118" y="164.875" width="23.7836" height="22.6435" filterUnits="userSpaceOnUse" color-interpolation-filters="sRGB">
<feFlood flood-opacity="0" result="BackgroundImageFix"/>
<feColorMatrix in="SourceAlpha" type="matrix" values="0 0 0 0 0 0 0 0 0 0 0 0 0 0 0 0 0 0 127 0"/>
<feOffset dy="2"/>
<feGaussianBlur stdDeviation="2"/>
<feColorMatrix type="matrix" values="0 0 0 0 0 0 0 0 0 0 0 0 0 0 0 0 0 0 0.25 0"/>
<feBlend mode="normal" in2="BackgroundImageFix" result="effect1_dropShadow"/>
<feBlend mode="normal" in="SourceGraphic" in2="effect1_dropShadow" result="shape"/>
</filter>
<filter id="filter2_d" x="577.402" y="179.65" width="23.7836" height="22.6435" filterUnits="userSpaceOnUse" color-interpolation-filters="sRGB">
<feFlood flood-opacity="0" result="BackgroundImageFix"/>
<feColorMatrix in="SourceAlpha" type="matrix" values="0 0 0 0 0 0 0 0 0 0 0 0 0 0 0 0 0 0 127 0"/>
<feOffset dy="2"/>
<feGaussianBlur stdDeviation="2"/>
<feColorMatrix type="matrix" values="0 0 0 0 0 0 0 0 0 0 0 0 0 0 0 0 0 0 0.25 0"/>
<feBlend mode="normal" in2="BackgroundImageFix" result="effect1_dropShadow"/>
<feBlend mode="normal" in="SourceGraphic" in2="effect1_dropShadow" result="shape"/>
</filter>
<filter id="filter3_d" x="695" y="62" width="23.7836" height="22.6435" filterUnits="userSpaceOnUse" color-interpolation-filters="sRGB">
<feFlood flood-opacity="0" result="BackgroundImageFix"/>
<feColorMatrix in="SourceAlpha" type="matrix" values="0 0 0 0 0 0 0 0 0 0 0 0 0 0 0 0 0 0 127 0"/>
<feOffset dy="2"/>
<feGaussianBlur stdDeviation="2"/>
<feColorMatrix type="matrix" values="0 0 0 0 0 0 0 0 0 0 0 0 0 0 0 0 0 0 0.25 0"/>
<feBlend mode="normal" in2="BackgroundImageFix" result="effect1_dropShadow"/>
<feBlend mode="normal" in="SourceGraphic" in2="effect1_dropShadow" result="shape"/>
</filter>
<filter id="filter4_d" x="687.016" y="248.662" width="23.7836" height="22.6435" filterUnits="userSpaceOnUse" color-interpolation-filters="sRGB">
<feFlood flood-opacity="0" result="BackgroundImageFix"/>
<feColorMatrix in="SourceAlpha" type="matrix" values="0 0 0 0 0 0 0 0 0 0 0 0 0 0 0 0 0 0 127 0"/>
<feOffset dy="2"/>
<feGaussianBlur stdDeviation="2"/>
<feColorMatrix type="matrix" values="0 0 0 0 0 0 0 0 0 0 0 0 0 0 0 0 0 0 0.25 0"/>
<feBlend mode="normal" in2="BackgroundImageFix" result="effect1_dropShadow"/>
<feBlend mode="normal" in="SourceGraphic" in2="effect1_dropShadow" result="shape"/>
</filter>
<filter id="filter5_d" x="473.473" y="196.118" width="23.7836" height="22.6435" filterUnits="userSpaceOnUse" color-interpolation-filters="sRGB">
<feFlood flood-opacity="0" result="BackgroundImageFix"/>
<feColorMatrix in="SourceAlpha" type="matrix" values="0 0 0 0 0 0 0 0 0 0 0 0 0 0 0 0 0 0 127 0"/>
<feOffset dy="2"/>
<feGaussianBlur stdDeviation="2"/>
<feColorMatrix type="matrix" values="0 0 0 0 0 0 0 0 0 0 0 0 0 0 0 0 0 0 0.25 0"/>
<feBlend mode="normal" in2="BackgroundImageFix" result="effect1_dropShadow"/>
<feBlend mode="normal" in="SourceGraphic" in2="effect1_dropShadow" result="shape"/>
</filter>
<linearGradient id="paint0_linear" x1="678.017" y1="60.2966" x2="425.344" y2="392.86" gradientUnits="userSpaceOnUse">
<stop stop-color="#F26E50"/>
<stop offset="0.453125" stop-color="#F26E50"/>
<stop offset="0.456904" stop-color="#EF8168"/>
<stop offset="1" stop-color="#EF8168"/>
</linearGradient>
<linearGradient id="paint1_linear" x1="678.017" y1="60.2966" x2="425.344" y2="392.86" gradientUnits="userSpaceOnUse">
<stop stop-color="#F26E50"/>
<stop offset="0.453125" stop-color="#F26E50"/>
<stop offset="0.456904" stop-color="#EF8168"/>
<stop offset="1" stop-color="#EF8168"/>
</linearGradient>
</defs>
</svg>
