<svg width="456" height="374" viewBox="0 0 456 374" fill="none" xmlns="http://www.w3.org/2000/svg">
<path d="M456 310.771C456 317.302 450.843 322.595 444.478 322.595H11.522C5.1576 322.595 0 317.302 0 310.772V12.0056C0 5.47642 5.1576 0.179443 11.522 0.179443H444.478C450.842 0.179443 456 5.47642 456 12.0056V310.771Z" fill="#E2E5E7"/>
<path d="M279.717 322.595H228H176.283C176.283 322.595 174.187 358.069 169.998 365.594H228H286.002C281.812 358.068 279.717 322.595 279.717 322.595Z" fill="#D1D5D5"/>
<path d="M295.689 368.551C289.404 367.743 286.001 365.594 286.001 365.594H228H169.997C169.997 365.594 166.595 367.744 160.31 368.551C154.026 369.358 149.836 369.893 149.836 373.119H228H306.162C306.162 369.893 301.973 369.357 295.689 368.551Z" fill="#C6CBCB"/>
<path d="M444.478 0.179443H11.522C5.1576 0.179443 0 5.47642 0 12.0056V280.314H455.999V12.0056C456 5.47642 450.842 0.179443 444.478 0.179443ZM437.128 263.509H208.286H18.8723V16.9881H355.157H437.128V263.509V263.509Z" fill="#2D404E"/>
<path d="M18.8723 16.988V263.509H208.286H437.128V16.988H355.157H18.8723Z" fill="#63BF60"/>
<path d="M279.717 322.595H228H176.283C176.283 322.595 175.97 327.872 175.348 334.78H280.652C280.029 327.872 279.717 322.595 279.717 322.595Z" fill="#C6CBCB"/>
<path d="M228.059 310.137C232.197 310.137 235.551 306.695 235.551 302.448C235.551 298.202 232.197 294.759 228.059 294.759C223.922 294.759 220.567 298.202 220.567 302.448C220.567 306.695 223.922 310.137 228.059 310.137Z" fill="#2D404E"/>
<path opacity="0.16" d="M441.308 0.179443H340.164L127.359 279.882H455.999V11.9873C456 5.46825 449.423 0.179443 441.308 0.179443Z" fill="#E2E5E7"/>
<path d="M209.62 153.514C212.456 165.301 227.043 190.95 219.707 190.877C206.369 190.744 179.322 172.437 176.034 155.622C171.656 139.686 206.473 88.7149 216.477 88.8145C225.814 88.9076 205.645 129.377 209.62 153.514Z" fill="white"/>
<path d="M256.733 145.436C259.266 154.485 246.383 191.143 252.386 191.203C258.388 191.263 280.682 158.65 276.742 145.469C273.879 135.89 229.805 90.3354 222.427 95.8146C218.873 98.4535 229.012 106.986 238.937 117.496C247.538 126.605 254.201 136.388 256.733 145.436Z" fill="white"/>
<path d="M252.732 145.397C256.18 157.212 245.039 192.518 238.381 191.063C231.722 189.609 242.555 168.2 232.01 151.437C225.113 140.472 223.514 128.447 221.56 122.181C218.956 113.826 218.367 103.409 222.364 104.143C226.36 104.877 249.481 134.259 252.732 145.397Z" fill="white"/>
<path d="M262.373 105.236C243.159 88.3862 219.827 86.7656 224.469 90.2823C229.111 93.7989 259.982 111.66 272.834 133.103C285.686 154.547 281.588 122.085 262.373 105.236Z" fill="white"/>
<path d="M213.305 155.415C209.157 145.708 215.663 108.241 218.893 122.155C222.122 136.069 221.434 138.838 229.544 152.263C239.142 169.493 233.019 194.48 228.377 190.964C223.735 187.447 219.859 170.75 213.305 155.415Z" fill="white"/>
</svg>
