<svg width="262" height="77" viewBox="0 0 262 77" fill="none" xmlns="http://www.w3.org/2000/svg">
<g clip-path="url(#clip0)">
<path d="M0 59.6304H8.29622C10.1719 59.6304 11.8231 59.9769 13.2499 60.6699C14.6927 61.347 15.8069 62.3217 16.5924 63.5953C17.394 64.8682 17.7948 66.3673 17.7948 68.0912C17.7948 69.8158 17.394 71.3148 16.5924 72.5878C15.8069 73.8613 14.6927 74.844 13.2499 75.537C11.8231 76.2141 10.1719 76.5527 8.29622 76.5527H0V59.6304ZM8.05574 72.1044C9.27413 72.1044 10.244 71.7579 10.9655 71.0649C11.7029 70.356 12.0716 69.3648 12.0716 68.0912C12.0716 66.8183 11.7029 65.835 10.9655 65.142C10.244 64.4331 9.27413 64.0787 8.05574 64.0787H5.67509V72.1044H8.05574Z" fill="white"/>
<path d="M33.5016 72.2492V76.5527H19.5063V59.6304H33.1891V63.9332H25.0852V65.9157H32.2031V70.0254H25.0852V72.2492H33.5016Z" fill="white"/>
<path d="M41.6019 76.9395C40.2072 76.9395 38.8445 76.7861 37.5139 76.4799C36.1993 76.1579 35.1172 75.7307 34.2676 75.1991L36.0951 71.0411C36.8967 71.508 37.7945 71.8868 38.7884 72.1771C39.7823 72.4509 40.7362 72.5878 41.65 72.5878C42.4355 72.5878 42.9966 72.5157 43.3333 72.3702C43.67 72.2089 43.8383 71.9754 43.8383 71.6693C43.8383 71.3148 43.6139 71.049 43.1649 70.8718C42.7321 70.6946 42.0107 70.5008 41.0007 70.2912C39.7022 70.0175 38.6201 69.7272 37.7544 69.421C36.8887 69.0989 36.1352 68.5832 35.494 67.8737C34.8527 67.1489 34.5321 66.1736 34.5321 64.9489C34.5321 63.8849 34.8286 62.9182 35.4218 62.0479C36.015 61.1777 36.8967 60.4926 38.067 59.993C39.2533 59.4934 40.6881 59.2436 42.3714 59.2436C43.5257 59.2436 44.6559 59.3726 45.762 59.6304C46.8842 59.8722 47.8702 60.2348 48.7198 60.7182L47.0125 64.8523C45.3612 64.0139 43.7982 63.5953 42.3233 63.5953C40.8644 63.5953 40.135 63.9497 40.135 64.6586C40.135 64.9972 40.3514 65.2551 40.7843 65.4323C41.2171 65.5936 41.9305 65.7708 42.9245 65.964C44.207 66.206 45.2891 66.4877 46.1708 66.8103C47.0526 67.1165 47.8141 67.6243 48.4553 68.3332C49.1126 69.0421 49.4412 70.0095 49.4412 71.2342C49.4412 72.2981 49.1447 73.2649 48.5515 74.1351C47.9583 74.9894 47.0686 75.6739 45.8822 76.1897C44.712 76.6896 43.2852 76.9395 41.6019 76.9395Z" fill="white"/>
<path d="M71.0841 67.7044C72.078 68.0753 72.8475 68.6149 73.3928 69.3244C73.9381 70.0333 74.2104 70.8877 74.2104 71.8868C74.2104 73.3694 73.6013 74.5219 72.3825 75.3439C71.1643 76.1493 69.4008 76.5527 67.0927 76.5527H57.6179V59.6304H66.6112C68.8562 59.6304 70.5473 60.0333 71.6853 60.8391C72.8396 61.6452 73.4165 62.7165 73.4165 64.0542C73.4165 64.8438 73.2165 65.5533 72.8153 66.1815C72.4311 66.8103 71.8536 67.3182 71.0841 67.7044ZM63.1967 63.6191V66.1332H65.8422C67.0763 66.1332 67.6939 65.7146 67.6939 64.8762C67.6939 64.0383 67.0763 63.6191 65.8422 63.6191H63.1967ZM66.6112 72.5639C67.8616 72.5639 68.4872 72.1203 68.4872 71.2342C68.4872 70.348 67.8616 69.9044 66.6112 69.9044H63.1967V72.5639H66.6112Z" fill="white"/>
<path d="M83.9117 76.9395C81.3306 76.9395 79.3185 76.2385 77.876 74.836C76.4334 73.4342 75.7119 71.4676 75.7119 68.9376V59.6304H81.3865V68.7683C81.3865 70.0095 81.6036 70.9121 82.0364 71.4762C82.485 72.0402 83.1263 72.3219 83.9597 72.3219C84.7937 72.3219 85.4266 72.0402 85.8594 71.4762C86.3086 70.9121 86.5329 70.0095 86.5329 68.7683V59.6304H92.1115V68.9376C92.1115 71.4676 91.3906 73.4342 89.9474 74.836C88.5049 76.2385 86.4928 76.9395 83.9117 76.9395Z" fill="white"/>
<path d="M94.3523 59.6304H100.028V76.5527H94.3523V59.6304Z" fill="white"/>
<path d="M108.675 76.9395C107.28 76.9395 105.918 76.7861 104.587 76.4799C103.272 76.1579 102.19 75.7307 101.341 75.1991L103.168 71.0411C103.97 71.508 104.867 71.8868 105.861 72.1771C106.856 72.4509 107.81 72.5878 108.723 72.5878C109.509 72.5878 110.07 72.5157 110.407 72.3702C110.743 72.2089 110.912 71.9754 110.912 71.6693C110.912 71.3148 110.687 71.049 110.238 70.8718C109.805 70.6946 109.084 70.5008 108.074 70.2912C106.776 70.0175 105.694 69.7272 104.827 69.421C103.962 69.0989 103.209 68.5832 102.567 67.8737C101.926 67.1489 101.606 66.1736 101.606 64.9489C101.606 63.8849 101.902 62.9182 102.495 62.0479C103.088 61.1777 103.97 60.4926 105.14 59.993C106.326 59.4934 107.762 59.2436 109.445 59.2436C110.599 59.2436 111.729 59.3726 112.835 59.6304C113.957 59.8722 114.943 60.2348 115.793 60.7182L114.086 64.8523C112.434 64.0139 110.872 63.5953 109.397 63.5953C107.938 63.5953 107.208 63.9497 107.208 64.6586C107.208 64.9972 107.425 65.2551 107.858 65.4323C108.291 65.5936 109.004 65.7708 109.997 65.964C111.28 66.206 112.362 66.4877 113.244 66.8103C114.126 67.1165 114.887 67.6243 115.529 68.3332C116.186 69.0421 116.515 70.0095 116.515 71.2342C116.515 72.2981 116.218 73.2649 115.625 74.1351C115.031 74.9894 114.142 75.6739 112.955 76.1897C111.785 76.6896 110.359 76.9395 108.675 76.9395Z" fill="white"/>
<path d="M124.119 76.9395C122.724 76.9395 121.361 76.7861 120.031 76.4799C118.716 76.1579 117.634 75.7307 116.785 75.1991L118.612 71.0411C119.414 71.508 120.312 71.8868 121.305 72.1771C122.299 72.4509 123.253 72.5878 124.167 72.5878C124.952 72.5878 125.513 72.5157 125.85 72.3702C126.187 72.2089 126.355 71.9754 126.355 71.6693C126.355 71.3148 126.131 71.049 125.682 70.8718C125.249 70.6946 124.528 70.5008 123.518 70.2912C122.219 70.0175 121.137 69.7272 120.271 69.421C119.406 69.0989 118.652 68.5832 118.011 67.8737C117.369 67.1489 117.049 66.1736 117.049 64.9489C117.049 63.8849 117.346 62.9182 117.939 62.0479C118.532 61.1777 119.414 60.4926 120.584 59.993C121.77 59.4934 123.205 59.2436 124.888 59.2436C126.043 59.2436 127.173 59.3726 128.279 59.6304C129.401 59.8722 130.387 60.2348 131.236 60.7182L129.53 64.8523C127.878 64.0139 126.315 63.5953 124.84 63.5953C123.381 63.5953 122.652 63.9497 122.652 64.6586C122.652 64.9972 122.868 65.2551 123.301 65.4323C123.734 65.5936 124.448 65.7708 125.441 65.964C126.724 66.206 127.806 66.4877 128.688 66.8103C129.57 67.1165 130.331 67.6243 130.972 68.3332C131.629 69.0421 131.958 70.0095 131.958 71.2342C131.958 72.2981 131.661 73.2649 131.068 74.1351C130.475 74.9894 129.585 75.6739 128.399 76.1897C127.229 76.6896 125.802 76.9395 124.119 76.9395Z" fill="white"/>
<path d="M142.112 76.9395C140.3 76.9395 138.673 76.5606 137.23 75.8028C135.787 75.0457 134.657 73.9982 133.839 72.6605C133.022 71.3069 132.613 69.7834 132.613 68.0912C132.613 66.3991 133.022 64.8841 133.839 63.5464C134.657 62.1928 135.787 61.1374 137.23 60.3798C138.673 59.6223 140.3 59.2436 142.112 59.2436C143.923 59.2436 145.55 59.6223 146.993 60.3798C148.435 61.1374 149.566 62.1928 150.384 63.5464C151.201 64.8841 151.61 66.3991 151.61 68.0912C151.61 69.7834 151.201 71.3069 150.384 72.6605C149.566 73.9982 148.435 75.0457 146.993 75.8028C145.55 76.5606 143.923 76.9395 142.112 76.9395ZM142.112 72.322C142.817 72.322 143.45 72.1527 144.011 71.8141C144.588 71.4597 145.045 70.9683 145.382 70.3395C145.718 69.6948 145.887 68.9456 145.887 68.0912C145.887 67.2375 145.718 66.4962 145.382 65.8674C145.045 65.2227 144.588 64.7313 144.011 64.3928C143.45 64.0383 142.817 63.8611 142.112 63.8611C141.406 63.8611 140.764 64.0383 140.188 64.3928C139.627 64.7313 139.177 65.2227 138.841 65.8674C138.504 66.4962 138.336 67.2375 138.336 68.0912C138.336 68.9456 138.504 69.6948 138.841 70.3395C139.177 70.9683 139.627 71.4597 140.188 71.8141C140.764 72.1527 141.406 72.322 142.112 72.322Z" fill="white"/>
<path d="M169.901 59.6304V76.5527H165.236L158.84 68.8649V76.5527H153.309V59.6304H157.974L164.371 67.3182V59.6304H169.901Z" fill="white"/>
<path d="M178.552 76.9395C177.156 76.9395 175.794 76.7861 174.463 76.4799C173.149 76.1579 172.067 75.7307 171.217 75.1991L173.045 71.0411C173.846 71.508 174.744 71.8868 175.738 72.1771C176.732 72.4509 177.686 72.5878 178.6 72.5878C179.385 72.5878 179.946 72.5157 180.283 72.3702C180.62 72.2089 180.788 71.9754 180.788 71.6693C180.788 71.3148 180.564 71.049 180.114 70.8718C179.682 70.6946 178.96 70.5008 177.95 70.2912C176.652 70.0175 175.57 69.7272 174.704 69.421C173.838 69.0989 173.085 68.5832 172.443 67.8737C171.802 67.1489 171.482 66.1736 171.482 64.9489C171.482 63.8849 171.778 62.9182 172.371 62.0479C172.964 61.1777 173.846 60.4926 175.017 59.993C176.203 59.4934 177.638 59.2436 179.321 59.2436C180.475 59.2436 181.606 59.3726 182.711 59.6304C183.833 59.8722 184.819 60.2348 185.669 60.7182L183.962 64.8523C182.311 64.0139 180.748 63.5953 179.273 63.5953C177.814 63.5953 177.085 63.9497 177.085 64.6586C177.085 64.9972 177.301 65.2551 177.734 65.4323C178.167 65.5936 178.88 65.7708 179.874 65.964C181.156 66.206 182.238 66.4877 183.12 66.8103C184.002 67.1165 184.764 67.6243 185.405 68.3332C186.062 69.0421 186.391 70.0095 186.391 71.2342C186.391 72.2981 186.094 73.2649 185.501 74.1351C184.908 74.9894 184.018 75.6739 182.832 76.1897C181.661 76.6896 180.235 76.9395 178.552 76.9395Z" fill="white"/>
<path fill-rule="evenodd" clip-rule="evenodd" d="M119.152 38.2763L119.253 54.3926H133.039L132.994 38.2763H119.152ZM116.498 38.2763H95.2689L102.708 50.3312H109.377L116.498 38.2763Z" fill="white"/>
<path fill-rule="evenodd" clip-rule="evenodd" d="M197.662 43.0467H201.767L209.398 54.3926H241.394L242.084 27.1963L262 0H243.394L235.395 12.465L227.502 0H208.896L217.554 12.7287C216.758 12.2083 215.899 11.742 214.976 11.3298C211.898 9.95451 208.286 9.26689 204.139 9.26689H182.529V26.2947C181.995 23.9452 181.105 21.7504 179.858 19.7102C177.677 16.1002 174.663 13.2852 170.816 11.2653C166.969 9.24538 162.63 8.23546 157.799 8.23546C152.968 8.23546 148.629 9.24538 144.781 11.2653C140.934 13.2852 137.92 16.1002 135.74 19.7102C134.405 21.8935 133.479 24.254 132.961 26.7914L132.911 9.26689H120.471L108.067 30.2181H147.811C147.977 28.6063 148.398 27.1666 149.077 25.8989C149.975 24.1798 151.172 22.8691 152.669 21.9665C154.207 21.0211 155.917 20.5483 157.799 20.5483C159.68 20.5483 161.368 21.0211 162.864 21.9665C164.404 22.8691 165.622 24.1798 166.52 25.8989C167.417 27.575 167.866 29.5519 167.866 31.8297C167.866 34.1075 167.417 36.1059 166.52 37.825C165.622 39.5011 164.404 40.8119 162.864 41.7573C161.368 42.6599 159.68 43.1111 157.799 43.1111C155.917 43.1111 154.207 42.6599 152.669 41.7573C151.31 40.8984 150.197 39.7381 149.332 38.2763H132.994C133.539 40.3009 134.652 42.2134 135.74 44.0136C137.92 47.5807 140.934 50.3742 144.781 52.3942C148.629 54.4141 152.968 55.424 157.799 55.424C162.63 55.424 166.969 54.4141 170.816 52.3942C174.663 50.3742 177.677 47.5807 179.858 44.0136C181.105 41.9489 181.995 39.7365 182.529 37.3765V54.3926H197.662V43.0467ZM222.415 34.7307C223.868 32.3239 224.595 29.509 224.595 26.2857C224.595 24.9774 224.475 23.7313 224.233 22.5475L227.395 27.1963L226.977 41.298H216.692L216.131 40.4681C218.867 39.0498 220.961 37.1373 222.415 34.7307ZM207.795 22.4178C208.82 23.3203 209.333 24.6096 209.333 26.2857C209.333 27.9618 208.82 29.2726 207.795 30.2181C206.768 31.1206 205.229 31.5718 203.177 31.5718H197.662V20.9995H203.177C205.229 20.9995 206.768 21.4723 207.795 22.4178Z" fill="white"/>
<path d="M45.577 0H20.1638L9.50655 30.2181H24.4002L34.1001 9.54256L33.4072 30.2181H52.619V20.9995H58.1338C60.1859 20.9995 61.725 21.4723 62.7512 22.4178C63.7767 23.3203 64.2897 24.6096 64.2897 26.2857C64.2897 27.9618 63.7767 29.2726 62.7512 30.2181H79.1483C79.1575 30.1775 79.166 30.1368 79.1745 30.0961V30.2181H104.354L91.6149 9.26689H79.1745V22.4742C78.7781 20.5756 78.0706 18.8377 77.0505 17.2606C75.3837 14.6819 73.0111 12.705 69.9327 11.3298C66.855 9.95451 63.2423 9.26689 59.0957 9.26689H45.577V0Z" fill="white"/>
<path d="M0.488925 54.3926H19.344L22.6231 44.6071H33.2803V54.3926H52.619V43.0467H56.7231L64.3542 54.3926H92.9614V38.2763H79.1745V52.4144L71.0871 40.4681C72.3072 39.8357 73.3995 39.1051 74.3643 38.2763H6.31848L0.488925 54.3926Z" fill="white"/>
<path d="M157.358 37.2689C157.358 37.2689 161.303 36.6645 161.303 34.2471C161.303 31.8296 157.358 31.2253 157.358 31.2253H150.783V37.2689H157.358Z" fill="white"/>
</g>
<defs>
<clipPath id="clip0">
<rect width="262" height="77" fill="white"/>
</clipPath>
</defs>
</svg>
