<svg width="140" height="41" viewBox="0 0 140 41" fill="none" xmlns="http://www.w3.org/2000/svg">
<path d="M0 31.6956H4.43309C5.43536 31.6956 6.31769 31.8798 7.0801 32.2481C7.85107 32.6079 8.44643 33.1262 8.86618 33.8029C9.2945 34.4797 9.50866 35.2763 9.50866 36.1929C9.50866 37.1095 9.2945 37.9062 8.86618 38.5829C8.44643 39.2597 7.85107 39.7822 7.0801 40.1506C6.31769 40.5104 5.43536 40.6903 4.43309 40.6903H0V31.6956ZM4.3046 38.3259C4.95564 38.3259 5.4739 38.1418 5.85939 37.7734C6.25344 37.3965 6.45047 36.8697 6.45047 36.1929C6.45047 35.5162 6.25344 34.9936 5.85939 34.6253C5.4739 34.2484 4.95564 34.0599 4.3046 34.0599H3.03249V38.3259H4.3046Z" fill="white"/>
<path d="M17.9016 38.403V40.6903H10.4232V31.6956H17.7346V33.9828H13.4043V35.0365H17.2077V37.2209H13.4043V38.403H17.9016Z" fill="white"/>
<path d="M22.23 40.8959C21.4847 40.8959 20.7566 40.8145 20.0456 40.6517C19.3431 40.4804 18.7649 40.2534 18.3109 39.9707L19.2875 37.7606C19.7158 38.009 20.1955 38.2103 20.7266 38.3645C21.2577 38.5101 21.7674 38.5829 22.2557 38.5829C22.6755 38.5829 22.9753 38.5444 23.1552 38.4673C23.3351 38.3816 23.425 38.2574 23.425 38.0947C23.425 37.9062 23.3051 37.7648 23.0652 37.6706C22.8339 37.5764 22.4484 37.4736 21.9088 37.3622C21.2149 37.2166 20.6367 37.0624 20.1741 36.8996C19.7115 36.7283 19.3089 36.4542 18.9662 36.0773C18.6236 35.6918 18.4522 35.1735 18.4522 34.5225C18.4522 33.9571 18.6107 33.4431 18.9277 32.9805C19.2446 32.518 19.7158 32.1539 20.3411 31.8883C20.975 31.6228 21.7417 31.49 22.6412 31.49C23.258 31.49 23.8619 31.5585 24.453 31.6956C25.0526 31.8241 25.5795 32.0168 26.0335 32.2738L25.1212 34.4711C24.2388 34.0256 23.4036 33.8029 22.6155 33.8029C21.836 33.8029 21.4462 33.9914 21.4462 34.3683C21.4462 34.5482 21.5618 34.6852 21.7931 34.7795C22.0244 34.8651 22.4056 34.9594 22.9367 35.0622C23.622 35.1907 24.2003 35.3406 24.6714 35.5119C25.1426 35.6747 25.5495 35.9445 25.8921 36.3214C26.2433 36.6983 26.419 37.2123 26.419 37.8634C26.419 38.4287 26.2605 38.9427 25.9435 39.4053C25.6266 39.8593 25.1511 40.2234 24.5172 40.4975C23.8919 40.7631 23.1295 40.8959 22.23 40.8959Z" fill="white"/>
<path d="M37.9839 35.9873C38.5151 36.1844 38.9262 36.4713 39.2175 36.8482C39.5088 37.2252 39.6544 37.6792 39.6544 38.2103C39.6544 38.9984 39.3289 39.6109 38.6778 40.0478C38.0268 40.4761 37.0845 40.6903 35.8509 40.6903H30.7882V31.6956H35.5939C36.7932 31.6956 37.697 31.9097 38.3052 32.3381C38.922 32.7664 39.2303 33.336 39.2303 34.047C39.2303 34.4668 39.1233 34.8437 38.9091 35.1778C38.7035 35.5119 38.3951 35.7817 37.9839 35.9873ZM33.7693 33.8158V35.1521H35.1827C35.8424 35.1521 36.1722 34.9294 36.1722 34.4839C36.1722 34.0385 35.8424 33.8158 35.1827 33.8158H33.7693ZM35.5939 38.5701C36.2621 38.5701 36.5962 38.3345 36.5962 37.8634C36.5962 37.3922 36.2621 37.1566 35.5939 37.1566H33.7693V38.5701H35.5939Z" fill="white"/>
<path d="M44.8384 40.8959C43.4592 40.8959 42.3841 40.5232 41.6131 39.7779C40.8422 39.0327 40.4567 37.9876 40.4567 36.6427V31.6956H43.4892V36.5527C43.4892 37.2123 43.6048 37.692 43.8361 37.9919C44.076 38.2917 44.4186 38.4416 44.8641 38.4416C45.3095 38.4416 45.6479 38.2917 45.8792 37.9919C46.119 37.692 46.239 37.2123 46.239 36.5527V31.6956H49.2201V36.6427C49.2201 37.9876 48.8346 39.0327 48.0636 39.7779C47.2926 40.5232 46.2175 40.8959 44.8384 40.8959Z" fill="white"/>
<path d="M50.4174 31.6956H53.4499V40.6903H50.4174V31.6956Z" fill="white"/>
<path d="M58.0707 40.8959C57.3254 40.8959 56.5973 40.8145 55.8863 40.6517C55.1838 40.4804 54.6056 40.2534 54.1516 39.9707L55.1281 37.7606C55.5565 38.009 56.0362 38.2103 56.5673 38.3645C57.0984 38.5101 57.6081 38.5829 58.0964 38.5829C58.5161 38.5829 58.816 38.5444 58.9958 38.4673C59.1757 38.3816 59.2657 38.2574 59.2657 38.0947C59.2657 37.9062 59.1458 37.7648 58.9059 37.6706C58.6746 37.5764 58.2891 37.4736 57.7494 37.3622C57.0556 37.2166 56.4773 37.0624 56.0148 36.8996C55.5522 36.7283 55.1496 36.4542 54.8069 36.0773C54.4642 35.6918 54.2929 35.1735 54.2929 34.5225C54.2929 33.9571 54.4514 33.4431 54.7684 32.9805C55.0853 32.518 55.5565 32.1539 56.1818 31.8883C56.8157 31.6228 57.5824 31.49 58.4819 31.49C59.0986 31.49 59.7026 31.5585 60.2937 31.6956C60.8933 31.8241 61.4201 32.0168 61.8741 32.2738L60.9618 34.4711C60.0795 34.0256 59.2443 33.8029 58.4562 33.8029C57.6766 33.8029 57.2869 33.9914 57.2869 34.3683C57.2869 34.5482 57.4025 34.6852 57.6338 34.7795C57.8651 34.8651 58.2463 34.9594 58.7774 35.0622C59.4627 35.1907 60.0409 35.3406 60.5121 35.5119C60.9832 35.6747 61.3901 35.9445 61.7328 36.3214C62.084 36.6983 62.2596 37.2123 62.2596 37.8634C62.2596 38.4287 62.1012 38.9427 61.7842 39.4053C61.4672 39.8593 60.9918 40.2234 60.3579 40.4975C59.7326 40.7631 58.9702 40.8959 58.0707 40.8959Z" fill="white"/>
<path d="M66.323 40.8959C65.5777 40.8959 64.8496 40.8145 64.1386 40.6517C63.4361 40.4804 62.8579 40.2534 62.4039 39.9707L63.3805 37.7606C63.8088 38.009 64.2885 38.2103 64.8196 38.3645C65.3507 38.5101 65.8604 38.5829 66.3487 38.5829C66.7685 38.5829 67.0683 38.5444 67.2482 38.4673C67.4281 38.3816 67.518 38.2574 67.518 38.0947C67.518 37.9062 67.3981 37.7648 67.1582 37.6706C66.9269 37.5764 66.5414 37.4736 66.0018 37.3622C65.3079 37.2166 64.7297 37.0624 64.2671 36.8996C63.8045 36.7283 63.4019 36.4542 63.0592 36.0773C62.7166 35.6918 62.5452 35.1735 62.5452 34.5225C62.5452 33.9571 62.7037 33.4431 63.0207 32.9805C63.3376 32.518 63.8088 32.1539 64.4341 31.8883C65.068 31.6228 65.8347 31.49 66.7342 31.49C67.351 31.49 67.9549 31.5585 68.546 31.6956C69.1456 31.8241 69.6724 32.0168 70.1265 32.2738L69.2141 34.4711C68.3318 34.0256 67.4966 33.8029 66.7085 33.8029C65.9289 33.8029 65.5392 33.9914 65.5392 34.3683C65.5392 34.5482 65.6548 34.6852 65.8861 34.7795C66.1174 34.8651 66.4986 34.9594 67.0297 35.0622C67.715 35.1907 68.2933 35.3406 68.7644 35.5119C69.2356 35.6747 69.6425 35.9445 69.9851 36.3214C70.3363 36.6983 70.512 37.2123 70.512 37.8634C70.512 38.4287 70.3535 38.9427 70.0365 39.4053C69.7196 39.8593 69.2441 40.2234 68.6102 40.4975C67.9849 40.7631 67.2225 40.8959 66.323 40.8959Z" fill="white"/>
<path d="M75.9374 40.8959C74.9694 40.8959 74.0999 40.6945 73.3289 40.2919C72.5579 39.8893 71.954 39.3325 71.5171 38.6215C71.0802 37.9019 70.8618 37.0924 70.8618 36.1929C70.8618 35.2935 71.0802 34.4882 71.5171 33.7772C71.954 33.0576 72.5579 32.4965 73.3289 32.0939C74.0999 31.6913 74.9694 31.49 75.9374 31.49C76.9054 31.49 77.7748 31.6913 78.5458 32.0939C79.3168 32.4965 79.9207 33.0576 80.3576 33.7772C80.7945 34.4882 81.0129 35.2935 81.0129 36.1929C81.0129 37.0924 80.7945 37.9019 80.3576 38.6215C79.9207 39.3325 79.3168 39.8893 78.5458 40.2919C77.7748 40.6945 76.9054 40.8959 75.9374 40.8959ZM75.9374 38.4416C76.3143 38.4416 76.6526 38.3516 76.9525 38.1718C77.2609 37.9833 77.505 37.722 77.6849 37.3879C77.8648 37.0453 77.9547 36.6469 77.9547 36.1929C77.9547 35.7389 77.8648 35.3449 77.6849 35.0108C77.505 34.6681 77.2609 34.4068 76.9525 34.2269C76.6526 34.0385 76.3143 33.9443 75.9374 33.9443C75.5604 33.9443 75.2178 34.0385 74.9094 34.2269C74.6096 34.4068 74.3697 34.6681 74.1898 35.0108C74.0099 35.3449 73.92 35.7389 73.92 36.1929C73.92 36.6469 74.0099 37.0453 74.1898 37.3879C74.3697 37.722 74.6096 37.9833 74.9094 38.1718C75.2178 38.3516 75.5604 38.4416 75.9374 38.4416Z" fill="white"/>
<path d="M90.787 31.6956V40.6903H88.2942L84.8762 36.6041V40.6903H81.9208V31.6956H84.4136L87.8316 35.7817V31.6956H90.787Z" fill="white"/>
<path d="M95.4091 40.8959C94.6639 40.8959 93.9357 40.8145 93.2247 40.6517C92.5223 40.4804 91.944 40.2534 91.49 39.9707L92.4666 37.7606C92.8949 38.009 93.3746 38.2103 93.9057 38.3645C94.4368 38.5101 94.9465 38.5829 95.4348 38.5829C95.8546 38.5829 96.1544 38.5444 96.3343 38.4673C96.5142 38.3816 96.6041 38.2574 96.6041 38.0947C96.6041 37.9062 96.4842 37.7648 96.2443 37.6706C96.0131 37.5764 95.6276 37.4736 95.0879 37.3622C94.394 37.2166 93.8158 37.0624 93.3532 36.8996C92.8906 36.7283 92.488 36.4542 92.1453 36.0773C91.8027 35.6918 91.6314 35.1735 91.6314 34.5225C91.6314 33.9571 91.7898 33.4431 92.1068 32.9805C92.4238 32.518 92.8949 32.1539 93.5202 31.8883C94.1542 31.6228 94.9208 31.49 95.8203 31.49C96.4371 31.49 97.041 31.5585 97.6321 31.6956C98.2317 31.8241 98.7586 32.0168 99.2126 32.2738L98.3003 34.4711C97.4179 34.0256 96.5827 33.8029 95.7946 33.8029C95.0151 33.8029 94.6253 33.9914 94.6253 34.3683C94.6253 34.5482 94.741 34.6852 94.9722 34.7795C95.2035 34.8651 95.5847 34.9594 96.1159 35.0622C96.8012 35.1907 97.3794 35.3406 97.8505 35.5119C98.3217 35.6747 98.7286 35.9445 99.0712 36.3214C99.4225 36.6983 99.5981 37.2123 99.5981 37.8634C99.5981 38.4287 99.4396 38.9427 99.1226 39.4053C98.8057 39.8593 98.3303 40.2234 97.6963 40.4975C97.071 40.7631 96.3086 40.8959 95.4091 40.8959Z" fill="white"/>
<path d="M107.814 22.8808H105.621V28.9115H97.5345V4.92566H109.082C111.298 4.92566 113.228 5.29115 114.873 6.02215C116.518 6.75315 117.785 7.80395 118.676 9.17457C119.567 10.5452 120.013 12.1442 120.013 13.9717C120.013 15.685 119.624 17.1813 118.848 18.4605C118.071 19.7398 116.952 20.7563 115.49 21.5101L120.527 28.9115H111.892L107.814 22.8808ZM111.857 13.9717C111.857 13.0808 111.583 12.3955 111.035 11.9158C110.487 11.4132 109.665 11.162 108.568 11.162H105.621V16.7815H108.568C109.665 16.7815 110.487 16.5416 111.035 16.0619C111.583 15.5594 111.857 14.8626 111.857 13.9717Z" fill="white"/>
<path d="M121.566 0H111.624L121.509 14.4557L121.285 21.9513H115.79L120.527 28.9115H128.989L129.358 14.4557L140 0H130.058L125.784 6.62555L121.566 0Z" fill="white"/>
<path fill-rule="evenodd" clip-rule="evenodd" d="M70.8104 16.0619H57.7459L64.3739 4.92566H71.0214L71.048 14.2405C71.3246 12.8918 71.8195 11.6372 72.5326 10.4767C73.6976 8.55779 75.3081 7.06154 77.364 5.98789C79.4199 4.91424 81.7385 4.37741 84.3199 4.37741C86.9012 4.37741 89.2198 4.91424 91.2757 5.98789C93.3317 7.06154 94.9421 8.55779 96.1072 10.4767C97.2722 12.3727 97.8547 14.52 97.8547 16.9186C97.8547 19.3171 97.2722 21.4759 96.1072 23.3947C94.9421 25.2908 93.3317 26.7756 91.2757 27.8492C89.2198 28.9229 86.9012 29.4597 84.3199 29.4597C81.7385 29.4597 79.4199 28.9229 77.364 27.8492C75.3081 26.7756 73.6976 25.2908 72.5326 23.3947C71.9516 22.4378 71.5155 21.4213 71.2242 20.3451H79.7956C80.258 21.1221 80.8523 21.7389 81.5786 22.1954C82.401 22.6752 83.3147 22.915 84.3199 22.915C85.325 22.915 86.2273 22.6752 87.0268 22.1954C87.8492 21.6929 88.5002 20.9962 88.98 20.1053C89.4597 19.1915 89.6995 18.1293 89.6995 16.9186C89.6995 15.7079 89.4597 14.657 88.98 13.7661C88.5002 12.8524 87.8492 12.1557 87.0268 11.6759C86.2273 11.1734 85.325 10.9221 84.3199 10.9221C83.3147 10.9221 82.401 11.1734 81.5786 11.6759C80.7791 12.1557 80.1395 12.8524 79.6598 13.7661C79.297 14.4399 79.0713 15.2052 78.9829 16.0619H71.0532H70.8104ZM63.6691 20.3451L63.7229 28.9115H71.0899L71.0654 20.3451H63.6691ZM62.2505 20.3451H50.907L54.8824 26.7527H58.446L62.2505 20.3451Z" fill="white"/>
<path d="M24.3541 0H10.7745L5.07982 16.0619H13.0383L18.2214 5.0722L17.8512 16.0619H24.3541H28.117V11.162H31.0639C32.1604 11.162 32.9827 11.4132 33.531 11.9158C34.0792 12.3955 34.3534 13.0808 34.3534 13.9717C34.3534 14.8626 34.0792 15.5594 33.531 16.0619L42.293 16.0619C42.2977 16.0403 42.3024 16.0187 42.307 15.9971V11.9458C42.0953 10.9366 41.7171 10.0129 41.1722 9.17457C40.2813 7.80395 39.0135 6.75315 37.3687 6.02215C35.724 5.29115 33.7937 4.92566 31.5779 4.92566H24.3541V0Z" fill="white"/>
<path d="M0.261246 28.9115H10.3365L12.0887 23.7102H17.7833V28.9115H24.3541H28.117V22.8808H30.31L34.3876 28.9115H42.307V27.86L37.9855 21.5101C38.6374 21.174 39.2211 20.7857 39.7367 20.3451H24.3541H3.37629L0.261246 28.9115Z" fill="white"/>
<path d="M43.0225 28.9115H49.674V20.3451H42.307V27.86L43.0225 28.9115Z" fill="white"/>
<path d="M48.9544 4.92566H42.307V11.9458V15.9971V16.0619H55.7616L48.9544 4.92566Z" fill="white"/>
<path d="M84.0844 19.8098C84.0844 19.8098 86.1925 19.4886 86.1925 18.2036C86.1925 16.9187 84.0844 16.5974 84.0844 16.5974L80.5709 16.5974L80.5709 19.8098H84.0844Z" fill="white"/>
</svg>
